{
.appVersion = "3236";
DisplayStrings = (
"/de-cy.ALT/space/de-cy.alt1/space/de-cy.loclBGR/space/de-cy.loclSRB/space/de-cy.ALT.alt0/space/de-cy.loclBGR.alt0/space/de-cy.loclSRB.alt0/space/de-cy.ALT.alt1/space/de-cy.loclBGR.alt1/space/de-cy.loclSRB.alt1/space/de-cy.ALT.alt0.alt1/space/de-cy.loclBGR.alt0.alt1/space/de-cy.loclSRB.alt0.alt1",
"/de-cy.ALT/de-cy.alt1/de-cy.loclBGR/de-cy.loclSRB/de-cy.ALT.alt0/de-cy.loclBGR.alt0/de-cy.loclSRB.alt0/de-cy.ALT.alt1/de-cy.loclBGR.alt1/de-cy.loclSRB.alt1/de-cy.ALT.alt0.alt1/de-cy.loclBGR.alt0.alt1/de-cy.loclSRB.alt0.alt1",
"/de-cy",
"/El-cy",
"/Lambda",
""
);
classes = (
{
code = "f fdotaccent f.ss02 fdotaccent.ss02 f_f";
name = f;
},
{
code = "j jdotless jacute jcaron jcircumflex jcrossedtail jstroke";
name = j;
},
{
code = "j.ss01 jdotless.ss01 jacute.ss01 jcaron.ss01 jcircumflex.ss01 jcrossedtail.ss01 jstroke.ss01
";
name = jss01;
},
{
code = "g gacute gbreve gcaron gcircumflex gcommaaccent gdotaccent";
name = g;
},
{
code = "g.ss01 gacute.ss01 gbreve.ss01 gcaron.ss01  gcircumflex.ss01 gcommaaccent.ss01 gdotaccent.ss01
";
name = gss01;
},
{
code = "y yacute ycircumflex ydieresis ydotaccent ydotbelow ygrave yhook";
name = y;
},
{
automatic = 1;

glyphs = (
{
glyphname = A;
lastChange = "2024-03-16 00:22:21 +0000";
layers = (
{
anchors = (
{
name = bottom;
position = "{149, -30}";
},
{
name = ogonek;
position = "{545, -61}";
},
{
name = top;
position = "{769, 781}";
}
);
layerId = "61E7180A-0B32-4047-B910-001D8BB62225";
paths = (
{
closed = 1;
nodes = (
"662 -64 OFFCURVE",
"742 68 OFFCURVE",
"787 184 CURVE",
"787 193 OFFCURVE",
"781 193 OFFCURVE",
"775 193 CURVE",
"730 83 OFFCURVE",
"648 -34 OFFCURVE",
"570 -34 CURVE SMOOTH",
"545 -34 OFFCURVE",
"528 -14 OFFCURVE",
"528 35 CURVE SMOOTH",
"528 141 OFFCURVE",
"597 281 OFFCURVE",
"666 359 CURVE SMOOTH",
"683 378 OFFCURVE",
"691 396 OFFCURVE",
"691 415 CURVE SMOOTH",
"691 433 OFFCURVE",
"682 446 OFFCURVE",
"668 446 CURVE SMOOTH",
"653 446 OFFCURVE",
"631 430 OFFCURVE",
"608 387 CURVE SMOOTH",
"533 250 OFFCURVE",
"313 -17 OFFCURVE",
"156 -17 CURVE SMOOTH",
"104 -17 OFFCURVE",
"71 15 OFFCURVE",
"71 81 CURVE SMOOTH",
"71 201 OFFCURVE",
"179 374 OFFCURVE",
"248 472 CURVE",
"318 452 OFFCURVE",
"389 443 OFFCURVE",
"465 443 CURVE SMOOTH",
"595 443 OFFCURVE",
"864 483 OFFCURVE",
"864 649 CURVE SMOOTH",
"864 724 OFFCURVE",
"799 776 OFFCURVE",
"691 776 CURVE SMOOTH",
"496 776 OFFCURVE",
"328 655 OFFCURVE",
"201 515 CURVE",
"155 535 OFFCURVE",
"86 578 OFFCURVE",
"86 633 CURVE SMOOTH",
"86 641 OFFCURVE",
"88 649 OFFCURVE",
"91 657 CURVE SMOOTH",
"94 663 OFFCURVE",
"95 668 OFFCURVE",
"95 672 CURVE SMOOTH",
"95 679 OFFCURVE",
"91 683 OFFCURVE",
"86 683 CURVE SMOOTH",
"73 683 OFFCURVE",
"59 658 OFFCURVE",
"59 633 CURVE SMOOTH",
"59 561 OFFCURVE",
"121 522 OFFCURVE",
"184 493 CURVE",
"149 454 OFFCURVE",
"119 410 OFFCURVE",
"95 366 CURVE SMOOTH",
"44 275 OFFCURVE",
"18 186 OFFCURVE",
"18 110 CURVE SMOOTH",
"18 12 OFFCURVE",
"61 -47 OFFCURVE",
"149 -47 CURVE SMOOTH",
"281 -47 OFFCURVE",
"432 108 OFFCURVE",
"504 193 CURVE",
"482 165 OFFCURVE",
"465 105 OFFCURVE",
"465 51 CURVE SMOOTH",
"465 -10 OFFCURVE",
"486 -64 OFFCURVE",
"545 -64 CURVE SMOOTH"
);
},
{
closed = 1;
nodes = (
"382 467 OFFCURVE",
"322 475 OFFCURVE",
"264 492 CURVE",
"377 627 OFFCURVE",
"507 751 OFFCURVE",
"694 751 CURVE SMOOTH",
"768 751 OFFCURVE",
"823 720 OFFCURVE",
"823 661 CURVE SMOOTH",
"823 497 OFFCURVE",
"589 467 OFFCURVE",
"456 467 CURVE SMOOTH"
);
}
);
userData = {
com.hugojourdan.ColorFlow = {
"0" = 0;
"1" = 0;
"10" = 0;
"11" = 0;
"2" = 0;
"3" = 0;
"4" = 0;
"5" = 0;
"6" = 0;
"7" = 0;
"8" = 0;
"9" = 0;
};
};
width = 716;
}
);
note = A;
unicode = 0041;
userData = {
KernOnName = A;
};
},
{
glyphname = "Alpha-latin";
lastChange = "2024-03-16 00:22:21 +0000";
layers = (
{
anchors = (
{
name = bottom;
position = "{238, -58}";
},
{
name = ogonek;
position = "{545, -33}";
},
{
name = top;
position = "{723, 776}";
}
);
layerId = "61E7180A-0B32-4047-B910-001D8BB62225";
paths = (
{
closed = 1;
nodes = (
"301 -47 OFFCURVE",
"445 101 OFFCURVE",
"670 361 CURVE",
"637 362 LINE",
"550 259 OFFCURVE",
"516 111 OFFCURVE",
"516 53 CURVE SMOOTH",
"516 -10 OFFCURVE",
"547 -42 OFFCURVE",
"592 -42 CURVE SMOOTH",
"621 -42 OFFCURVE",
"650 -26 OFFCURVE",
"670 -7 CURVE SMOOTH",
"728 48 OFFCURVE",
"749 94 OFFCURVE",
"792 182 CURVE SMOOTH",
"795 188 OFFCURVE",
"796 193 OFFCURVE",
"796 196 CURVE SMOOTH",
"796 201 OFFCURVE",
"794 203 OFFCURVE",
"791 203 CURVE SMOOTH",
"787 203 OFFCURVE",
"782 199 OFFCURVE",
"777 189 CURVE SMOOTH",
"745 125 OFFCURVE",
"703 46 OFFCURVE",
"651 8 CURVE SMOOTH",
"641 0 OFFCURVE",
"630 -4 OFFCURVE",
"620 -4 CURVE SMOOTH",
"591 -4 OFFCURVE",
"582 29 OFFCURVE",
"582 58 CURVE SMOOTH",
"582 118 OFFCURVE",
"607 213 OFFCURVE",
"698 380 CURVE SMOOTH",
"776 523 OFFCURVE",
"875 732 OFFCURVE",
"917 753 CURVE SMOOTH",
"927 758 OFFCURVE",
"931 761 OFFCURVE",
"931 763 CURVE SMOOTH",
"931 764 OFFCURVE",
"929 765 OFFCURVE",
"925 765 CURVE SMOOTH",
"915 765 OFFCURVE",
"896 762 OFFCURVE",
"867 752 CURVE SMOOTH",
"857 749 OFFCURVE",
"846 740 OFFCURVE",
"834 726 CURVE",
"805 757 OFFCURVE",
"756 776 OFFCURVE",
"691 776 CURVE SMOOTH",
"371 776 OFFCURVE",
"18 399 OFFCURVE",
"18 110 CURVE SMOOTH",
"18 12 OFFCURVE",
"61 -47 OFFCURVE",
"149 -47 CURVE SMOOTH"
);
},
{
closed = 1;
nodes = (
"104 -17 OFFCURVE",
"71 15 OFFCURVE",
"71 81 CURVE SMOOTH",
"71 191 OFFCURVE",
"191 408 OFFCURVE",
"264 492 CURVE SMOOTH",
"379 625 OFFCURVE",
"507 751 OFFCURVE",
"694 751 CURVE SMOOTH",
"748 751 OFFCURVE",
"791 734 OFFCURVE",
"811 706 CURVE",
"779 646 OFFCURVE",
"680 463 OFFCURVE",
"600 336 CURVE",
"544 251 OFFCURVE",
"441 151 OFFCURVE",
"344 71 CURVE SMOOTH",
"273 12 OFFCURVE",
"206 -17 OFFCURVE",
"156 -17 CURVE SMOOTH"
);
}
);
userData = {
com.hugojourdan.ColorFlow = {
"0" = 0;
"1" = 0;
"10" = 0;
"11" = 0;
"2" = 0;
"3" = 0;
"4" = 0;
"5" = 0;
"6" = 0;
"7" = 0;
"8" = 0;
"9" = 0;
};
};
width = 772;
}
);
unicode = 2C6D;
},
{
glyphname = AE;
lastChange = "2024-03-16 00:22:21 +0000";
layers = (
{
anchors = (
{
name = bottom;
position = "{690, 0}";
},
{
name = top;
position = "{866, 790}";
}
);
layerId = "61E7180A-0B32-4047-B910-001D8BB62225";
paths = (
{
closed = 1;
nodes = (
"1008 -115 OFFCURVE",
"1185 -58 OFFCURVE",
"1284 26 CURVE SMOOTH",
"1332 67 OFFCURVE",
"1359 110 OFFCURVE",
"1359 147 CURVE SMOOTH",
"1359 177 OFFCURVE",
"1341 202 OFFCURVE",
"1304 220 CURVE SMOOTH",
"1293 225 OFFCURVE",
"1284 227 OFFCURVE",
"1276 227 CURVE SMOOTH",
"1269 227 OFFCURVE",
"1264 225 OFFCURVE",
"1264 221 CURVE SMOOTH",
"1264 217 OFFCURVE",
"1273 211 OFFCURVE",
"1293 206 CURVE SMOOTH",
"1315 201 OFFCURVE",
"1324 188 OFFCURVE",
"1324 171 CURVE SMOOTH",
"1324 141 OFFCURVE",
"1294 93 OFFCURVE",
"1248 55 CURVE SMOOTH",
"1163 -15 OFFCURVE",
"995 -91 OFFCURVE",
"831 -91 CURVE SMOOTH",
"640 -91 OFFCURVE",
"562 6 OFFCURVE",
"562 108 CURVE SMOOTH",
"562 202 OFFCURVE",
"629 302 OFFCURVE",
"734 332 CURVE SMOOTH",
"779 345 OFFCURVE",
"825 348 OFFCURVE",
"866 348 CURVE SMOOTH",
"900 348 OFFCURVE",
"930 346 OFFCURVE",
"955 346 CURVE SMOOTH",
"988 346 OFFCURVE",
"1010 350 OFFCURVE",
"1014 366 CURVE",
"1024 434 OFFCURVE",
"804 397 OFFCURVE",
"775 515 CURVE",
"839 556 OFFCURVE",
"864 607 OFFCURVE",
"864 649 CURVE SMOOTH",
"864 663 OFFCURVE",
"862 677 OFFCURVE",
"856 690 CURVE",
"929 746 OFFCURVE",
"1035 782 OFFCURVE",
"1131 782 CURVE SMOOTH",
"1143 782 OFFCURVE",
"1156 781 OFFCURVE",
"1168 780 CURVE SMOOTH",
"1252 772 OFFCURVE",
"1282 733 OFFCURVE",
"1282 690 CURVE SMOOTH",
"1282 632 OFFCURVE",
"1227 564 OFFCURVE",
"1167 558 CURVE SMOOTH",
"1143 556 OFFCURVE",
"1128 545 OFFCURVE",
"1128 540 CURVE SMOOTH",
"1128 537 OFFCURVE",
"1133 535 OFFCURVE",
"1142 535 CURVE SMOOTH",
"1149 535 OFFCURVE",
"1159 536 OFFCURVE",
"1171 539 CURVE SMOOTH",
"1282 564 OFFCURVE",
"1346 628 OFFCURVE",
"1346 687 CURVE SMOOTH",
"1346 740 OFFCURVE",
"1292 792 OFFCURVE",
"1172 805 CURVE SMOOTH",
"1152 807 OFFCURVE",
"1143 807 OFFCURVE",
"1129 807 CURVE SMOOTH",
"1037 807 OFFCURVE",
"923 778 OFFCURVE",
"835 726 CURVE",
"805 757 OFFCURVE",
"756 776 OFFCURVE",
"691 776 CURVE SMOOTH",
"496 776 OFFCURVE",
"328 655 OFFCURVE",
"201 515 CURVE",
"165 531 OFFCURVE",
"135 552 OFFCURVE",
"113 578 CURVE SMOOTH",
"98 594 OFFCURVE",
"86 612 OFFCURVE",
"86 633 CURVE SMOOTH",
"86 641 OFFCURVE",
"88 649 OFFCURVE",
"91 657 CURVE SMOOTH",
"94 663 OFFCURVE",
"95 668 OFFCURVE",
"95 672 CURVE SMOOTH",
"95 679 OFFCURVE",
"91 683 OFFCURVE",
"86 683 CURVE SMOOTH",
"83 683 OFFCURVE",
"78 681 OFFCURVE",
"74 675 CURVE",
"64 668 OFFCURVE",
"59 652 OFFCURVE",
"59 633 CURVE SMOOTH",
"59 609 OFFCURVE",
"67 581 OFFCURVE",
"83 563 CURVE SMOOTH",
"107 535 OFFCURVE",
"143 512 OFFCURVE",
"184 493 CURVE",
"149 454 OFFCURVE",
"119 410 OFFCURVE",
"95 366 CURVE SMOOTH",
"44 275 OFFCURVE",
"18 186 OFFCURVE",
"18 110 CURVE SMOOTH",
"18 38 OFFCURVE",
"42 -16 OFFCURVE",
"91 -36 CURVE SMOOTH",
"110 -44 OFFCURVE",
"130 -48 OFFCURVE",
"150 -48 CURVE SMOOTH",
"278 -48 OFFCURVE",
"424 100 OFFCURVE",
"497 186 CURVE",
"489 163 OFFCURVE",
"485 140 OFFCURVE",
"485 116 CURVE SMOOTH",
"485 -3 OFFCURVE",
"596 -115 OFFCURVE",
"829 -115 CURVE SMOOTH"
);
},
{
closed = 1;
nodes = (
"104 -17 OFFCURVE",
"71 15 OFFCURVE",
"71 81 CURVE SMOOTH",
"71 117 OFFCURVE",
"81 163 OFFCURVE",
"103 219 CURVE SMOOTH",
"138 306 OFFCURVE",
"212 421 OFFCURVE",
"248 472 CURVE",
"312 452 OFFCURVE",
"376 443 OFFCURVE",
"445 443 CURVE SMOOTH",
"483 443 OFFCURVE",
"495 444 OFFCURVE",
"552 449 CURVE SMOOTH",
"605 454 OFFCURVE",
"656 462 OFFCURVE",
"708 483 CURVE",
"734 442 OFFCURVE",
"788 410 OFFCURVE",
"833 395 CURVE",
"799 394 OFFCURVE",
"762 387 OFFCURVE",
"726 377 CURVE SMOOTH",
"705 371 OFFCURVE",
"681 362 OFFCURVE",
"661 351 CURVE",
"662 354 OFFCURVE",
"665 358 OFFCURVE",
"666 359 CURVE SMOOTH",
"684 378 OFFCURVE",
"691 399 OFFCURVE",
"691 415 CURVE SMOOTH",
"691 433 OFFCURVE",
"682 446 OFFCURVE",
"668 446 CURVE SMOOTH",
"653 446 OFFCURVE",
"631 430 OFFCURVE",
"608 387 CURVE SMOOTH",
"555 290 OFFCURVE",
"449 158 OFFCURVE",
"344 71 CURVE SMOOTH",
"273 12 OFFCURVE",
"206 -17 OFFCURVE",
"156 -17 CURVE SMOOTH"
);
},
{
closed = 1;
nodes = (
"370 467 OFFCURVE",
"316 475 OFFCURVE",
"264 492 CURVE",
"377 627 OFFCURVE",
"507 751 OFFCURVE",
"694 751 CURVE SMOOTH",
"745 751 OFFCURVE",
"787 736 OFFCURVE",
"807 709 CURVE",
"740 663 OFFCURVE",
"693 602 OFFCURVE",
"693 531 CURVE SMOOTH",
"693 521 OFFCURVE",
"694 513 OFFCURVE",
"697 505 CURVE",
"657 489 OFFCURVE",
"607 477 OFFCURVE",
"552 473 CURVE SMOOTH",
"509 469 OFFCURVE",
"471 467 OFFCURVE",
"436 467 CURVE SMOOTH"
);
},
{
closed = 1;
nodes = (
"773 556 LINE",
"775 595 OFFCURVE",
"795 629 OFFCURVE",
"823 659 CURVE",
"823 619 OFFCURVE",
"805 583 OFFCURVE",
"772 552 CURVE"
);
}
);
userData = {
com.hugojourdan.ColorFlow = {
"0" = 0;
"1" = 0;
"10" = 0;
"11" = 0;
"2" = 0;
"3" = 0;
"4" = 0;
"5" = 0;
"6" = 0;
"7" = 0;
"8" = 0;
"9" = 0;
};
};
width = 1380;
}
);
note = AE;
unicode = 00C6;
},
{
glyphname = B;
lastChange = "2024-03-16 00:22:21 +0000";
layers = (
{
anchors = (
{
name = bottom;
position = "{524, -20}";
},
{
name = top;
position = "{931, 790}";
}
);
layerId = "61E7180A-0B32-4047-B910-001D8BB62225";
paths = (
{
closed = 1;
nodes = (
"253 -39 OFFCURVE",
"325 -14 OFFCURVE",
"389 34 CURVE",
"491 -13 OFFCURVE",
"578 -39 OFFCURVE",
"702 -39 CURVE SMOOTH",
"859 -39 OFFCURVE",
"1043 53 OFFCURVE",
"1043 194 CURVE SMOOTH",
"1043 289 OFFCURVE",
"966 347 OFFCURVE",
"846 386 CURVE",
"974 391 OFFCURVE",
"1093 459 OFFCURVE",
"1093 561 CURVE SMOOTH",
"1093 643 OFFCURVE",
"1000 705 OFFCURVE",
"864 740 CURVE",
"867 745 OFFCURVE",
"880 758 OFFCURVE",
"898 771 CURVE SMOOTH",
"906 777 OFFCURVE",
"909 779 OFFCURVE",
"909 782 CURVE SMOOTH",
"909 785 OFFCURVE",
"905 788 OFFCURVE",
"901 788 CURVE SMOOTH",
"897 788 OFFCURVE",
"892 787 OFFCURVE",
"883 783 CURVE SMOOTH",
"867 776 OFFCURVE",
"846 764 OFFCURVE",
"828 748 CURVE",
"762 762 OFFCURVE",
"687 770 OFFCURVE",
"610 770 CURVE SMOOTH",
"401 770 OFFCURVE",
"82 689 OFFCURVE",
"82 488 CURVE SMOOTH",
"82 387 OFFCURVE",
"167 336 OFFCURVE",
"238 336 CURVE SMOOTH",
"313 336 OFFCURVE",
"401 387 OFFCURVE",
"401 469 CURVE SMOOTH",
"401 481 OFFCURVE",
"396 485 OFFCURVE",
"391 485 CURVE SMOOTH",
"386 485 OFFCURVE",
"381 481 OFFCURVE",
"381 478 CURVE SMOOTH",
"381 436 OFFCURVE",
"333 362 OFFCURVE",
"243 362 CURVE SMOOTH",
"189 362 OFFCURVE",
"128 390 OFFCURVE",
"128 468 CURVE SMOOTH",
"128 657 OFFCURVE",
"447 739 OFFCURVE",
"644 739 CURVE SMOOTH",
"701 739 OFFCURVE",
"755 734 OFFCURVE",
"804 726 CURVE",
"746 661 LINE SMOOTH",
"575 470 OFFCURVE",
"503 201 OFFCURVE",
"369 72 CURVE",
"290 111 OFFCURVE",
"225 162 OFFCURVE",
"137 162 CURVE SMOOTH",
"57 162 OFFCURVE",
"11 113 OFFCURVE",
"11 64 CURVE SMOOTH",
"11 -20 OFFCURVE",
"119 -39 OFFCURVE",
"178 -39 CURVE SMOOTH"
);
},
{
closed = 1;
nodes = (
"99 -5 OFFCURVE",
"70 32 OFFCURVE",
"70 67 CURVE SMOOTH",
"70 100 OFFCURVE",
"95 131 OFFCURVE",
"145 131 CURVE SMOOTH",
"201 131 OFFCURVE",
"298 76 OFFCURVE",
"347 52 CURVE",
"293 12 OFFCURVE",
"232 -12 OFFCURVE",
"158 -8 CURVE SMOOTH"
);
},
{
closed = 1;
nodes = (
"590 -10 OFFCURVE",
"491 18 OFFCURVE",
"411 52 CURVE",
"427 66 OFFCURVE",
"433 71 OFFCURVE",
"449 89 CURVE SMOOTH",
"586 237 OFFCURVE",
"718 531 OFFCURVE",
"852 716 CURVE",
"985 681 OFFCURVE",
"1028 639 OFFCURVE",
"1028 582 CURVE SMOOTH",
"1028 505 OFFCURVE",
"947 414 OFFCURVE",
"818 414 CURVE SMOOTH",
"783 414 OFFCURVE",
"753 420 OFFCURVE",
"726 420 CURVE SMOOTH",
"708 420 OFFCURVE",
"693 411 OFFCURVE",
"693 398 CURVE SMOOTH",
"693 395 OFFCURVE",
"695 393 OFFCURVE",
"709 387 CURVE SMOOTH",
"743 373 OFFCURVE",
"803 363 OFFCURVE",
"881 325 CURVE SMOOTH",
"941 296 OFFCURVE",
"968 250 OFFCURVE",
"968 203 CURVE SMOOTH",
"968 103 OFFCURVE",
"852 -10 OFFCURVE",
"688 -10 CURVE SMOOTH"
);
}
);
userData = {
com.hugojourdan.ColorFlow = {
"0" = 0;
"1" = 0;
"10" = 0;
"11" = 0;
"2" = 0;
"3" = 0;
"4" = 0;
"5" = 0;
"6" = 0;
"7" = 0;
"8" = 0;
"9" = 0;
};
};
width = 1047;
}
);
note = B;
unicode = 0042;
userData = {
KernOnName = B;
};
},
{
color = 0;
glyphname = "Beta-latin";
lastChange = "2024-03-16 00:22:21 +0000";
layers = (
{
layerId = "61E7180A-0B32-4047-B910-001D8BB62225";
paths = (
{
closed = 1;
nodes = (
"174 -316 OFFCURVE",
"297 -200 OFFCURVE",
"429 16 CURVE",
"515 -19 OFFCURVE",
"595 -39 OFFCURVE",
"702 -39 CURVE SMOOTH",
"859 -39 OFFCURVE",
"1043 53 OFFCURVE",
"1043 194 CURVE SMOOTH",
"1043 210 OFFCURVE",
"1041 226 OFFCURVE",
"1036 243 CURVE SMOOTH",
"1013 318 OFFCURVE",
"911 365 OFFCURVE",
"846 386 CURVE",
"974 391 OFFCURVE",
"1093 459 OFFCURVE",
"1093 561 CURVE SMOOTH",
"1093 643 OFFCURVE",
"1000 705 OFFCURVE",
"864 740 CURVE",
"867 745 OFFCURVE",
"880 759 OFFCURVE",
"894 768 CURVE SMOOTH",
"904 775 OFFCURVE",
"909 781 OFFCURVE",
"909 784 CURVE SMOOTH",
"909 787 OFFCURVE",
"907 788 OFFCURVE",
"903 788 CURVE SMOOTH",
"899 788 OFFCURVE",
"892 787 OFFCURVE",
"883 783 CURVE SMOOTH",
"867 776 OFFCURVE",
"846 764 OFFCURVE",
"828 748 CURVE",
"762 762 OFFCURVE",
"687 770 OFFCURVE",
"610 770 CURVE SMOOTH",
"401 770 OFFCURVE",
"82 689 OFFCURVE",
"82 488 CURVE SMOOTH",
"82 387 OFFCURVE",
"167 336 OFFCURVE",
"238 336 CURVE SMOOTH",
"313 336 OFFCURVE",
"401 387 OFFCURVE",
"401 469 CURVE SMOOTH",
"401 470 LINE SMOOTH",
"401 481 OFFCURVE",
"396 485 OFFCURVE",
"391 485 CURVE SMOOTH",
"386 485 OFFCURVE",
"381 481 OFFCURVE",
"381 478 CURVE SMOOTH",
"381 436 OFFCURVE",
"333 362 OFFCURVE",
"243 362 CURVE SMOOTH",
"189 362 OFFCURVE",
"128 390 OFFCURVE",
"128 468 CURVE SMOOTH",
"128 657 OFFCURVE",
"447 739 OFFCURVE",
"644 739 CURVE SMOOTH",
"701 739 OFFCURVE",
"755 734 OFFCURVE",
"804 726 CURVE",
"785 704 OFFCURVE",
"764 684 OFFCURVE",
"746 661 CURVE SMOOTH",
"641 525 OFFCURVE",
"534 312 OFFCURVE",
"447 158 CURVE SMOOTH",
"391 67 LINE SMOOTH",
"280 -119 OFFCURVE",
"152 -301 OFFCURVE",
"12 -301 CURVE",
"6 -327 LINE"
);
},
{
closed = 1;
nodes = (
"594 -10 OFFCURVE",
"525 16 OFFCURVE",
"449 48 CURVE",
"479 100 OFFCURVE",
"532 190 OFFCURVE",
"554 232 CURVE SMOOTH",
"642 389 LINE SMOOTH",
"707 496 OFFCURVE",
"779 606 OFFCURVE",
"852 716 CURVE",
"928 699 OFFCURVE",
"1029 662 OFFCURVE",
"1029 582 CURVE SMOOTH",
"1029 500 OFFCURVE",
"924 414 OFFCURVE",
"839 414 CURVE SMOOTH",
"797 414 OFFCURVE",
"759 420 OFFCURVE",
"732 420 CURVE SMOOTH",
"709 420 OFFCURVE",
"694 415 OFFCURVE",
"694 399 CURVE",
"704 378 OFFCURVE",
"803 364 OFFCURVE",
"881 326 CURVE SMOOTH",
"941 297 OFFCURVE",
"968 250 OFFCURVE",
"968 203 CURVE SMOOTH",
"968 103 OFFCURVE",
"852 -10 OFFCURVE",
"688 -10 CURVE SMOOTH"
);
}
);
userData = {
com.hugojourdan.ColorFlow = {
"0" = 0;
"1" = 0;
"10" = 0;
"11" = 0;
"2" = 0;
"3" = 0;
"4" = 0;
"5" = 0;
"6" = 0;
"7" = 0;
"8" = 0;
"9" = 0;
};
};
width = 1047;
}
);
widthMetricsKey = B;
rightMetricsKey = B;
unicode = A7B4;
},
{
glyphname = Bhook;
lastChange = "2024-03-16 00:22:21 +0000";
layers = (
{
anchors = (
{
name = bottom;
position = "{524, 0}";
},
{
name = top;
position = "{493, -226}";
}
);
layerId = "61E7180A-0B32-4047-B910-001D8BB62225";
paths = (
{
closed = 1;
nodes = (
"253 -39 OFFCURVE",
"325 -14 OFFCURVE",
"389 34 CURVE",
"452 5 OFFCURVE",
"529 -20 OFFCURVE",
"657 -36 CURVE SMOOTH",
"672 -38 OFFCURVE",
"687 -39 OFFCURVE",
"702 -39 CURVE SMOOTH",
"859 -39 OFFCURVE",
"1043 53 OFFCURVE",
"1043 194 CURVE SMOOTH",
"1043 210 OFFCURVE",
"1041 226 OFFCURVE",
"1036 243 CURVE SMOOTH",
"1013 318 OFFCURVE",
"911 365 OFFCURVE",
"846 386 CURVE",
"921 389 OFFCURVE",
"1028 417 OFFCURVE",
"1072 491 CURVE SMOOTH",
"1086 516 OFFCURVE",
"1093 539 OFFCURVE",
"1093 561 CURVE SMOOTH",
"1093 643 OFFCURVE",
"1000 705 OFFCURVE",
"864 740 CURVE",
"867 745 OFFCURVE",
"880 759 OFFCURVE",
"894 768 CURVE SMOOTH",
"904 775 OFFCURVE",
"909 781 OFFCURVE",
"909 784 CURVE SMOOTH",
"909 787 OFFCURVE",
"907 788 OFFCURVE",
"903 788 CURVE SMOOTH",
"899 788 OFFCURVE",
"892 788 OFFCURVE",
"883 783 CURVE SMOOTH",
"852 766 OFFCURVE",
"773 691 OFFCURVE",
"746 661 CURVE SMOOTH",
"575 470 OFFCURVE",
"503 201 OFFCURVE",
"369 72 CURVE",
"306 103 OFFCURVE",
"258 134 OFFCURVE",
"224 146 CURVE SMOOTH",
"192 157 OFFCURVE",
"163 162 OFFCURVE",
"137 162 CURVE SMOOTH",
"57 162 OFFCURVE",
"11 113 OFFCURVE",
"11 64 CURVE SMOOTH",
"11 19 OFFCURVE",
"49 -26 OFFCURVE",
"133 -36 CURVE SMOOTH",
"148 -38 OFFCURVE",
"163 -39 OFFCURVE",
"178 -39 CURVE SMOOTH"
);
},
{
closed = 1;
nodes = (
"99 -5 OFFCURVE",
"70 32 OFFCURVE",
"70 67 CURVE SMOOTH",
"70 100 OFFCURVE",
"95 131 OFFCURVE",
"145 131 CURVE SMOOTH",
"160 131 OFFCURVE",
"178 128 OFFCURVE",
"198 121 CURVE SMOOTH",
"253 101 OFFCURVE",
"300 75 OFFCURVE",
"347 52 CURVE",
"293 12 OFFCURVE",
"232 -12 OFFCURVE",
"158 -8 CURVE SMOOTH"
);
},
{
closed = 1;
nodes = (
"677 -10 OFFCURVE",
"666 -9 OFFCURVE",
"655 -8 CURVE SMOOTH",
"552 1 OFFCURVE",
"473 26 OFFCURVE",
"411 52 CURVE",
"427 66 OFFCURVE",
"433 71 OFFCURVE",
"449 89 CURVE SMOOTH",
"586 237 OFFCURVE",
"718 531 OFFCURVE",
"852 716 CURVE",
"887 708 OFFCURVE",
"919 697 OFFCURVE",
"947 684 CURVE SMOOTH",
"1006 657 OFFCURVE",
"1029 619 OFFCURVE",
"1029 582 CURVE SMOOTH",
"1029 500 OFFCURVE",
"924 414 OFFCURVE",
"839 414 CURVE SMOOTH",
"797 414 OFFCURVE",
"759 420 OFFCURVE",
"732 420 CURVE SMOOTH",
"709 420 OFFCURVE",
"694 415 OFFCURVE",
"694 399 CURVE",
"704 378 OFFCURVE",
"803 364 OFFCURVE",
"881 326 CURVE SMOOTH",
"941 297 OFFCURVE",
"968 250 OFFCURVE",
"968 203 CURVE SMOOTH",
"968 103 OFFCURVE",
"852 -10 OFFCURVE",
"688 -10 CURVE SMOOTH"
);
},
{
closed = 1;
nodes = (
"406 452 OFFCURVE",
"446 511 OFFCURVE",
"446 543 CURVE SMOOTH",
"446 548 OFFCURVE",
"445 553 OFFCURVE",
"444 556 CURVE SMOOTH",
"440 564 OFFCURVE",
"429 557 OFFCURVE",
"425 553 CURVE",
"413 529 OFFCURVE",
"394 497 OFFCURVE",
"365 489 CURVE SMOOTH",
"357 487 OFFCURVE",
"350 486 OFFCURVE",
"343 486 CURVE SMOOTH",
"314 486 OFFCURVE",
"299 503 OFFCURVE",
"288 523 CURVE SMOOTH",
"279 538 OFFCURVE",
"275 556 OFFCURVE",
"275 577 CURVE SMOOTH",
"275 615 OFFCURVE",
"288 659 OFFCURVE",
"306 702 CURVE SMOOTH",
"312 717 OFFCURVE",
"324 751 OFFCURVE",
"329 786 CURVE",
"453 738 OFFCURVE",
"714 741 OFFCURVE",
"820 721 CURVE",
"843 744 LINE",
"765 764 OFFCURVE",
"456 775 OFFCURVE",
"330 822 CURVE",
"329 858 OFFCURVE",
"314 887 OFFCURVE",
"285 887 CURVE SMOOTH",
"263 887 OFFCURVE",
"260 867 OFFCURVE",
"260 856 CURVE SMOOTH",
"260 830 OFFCURVE",
"278 810 OFFCURVE",
"309 795 CURVE",
"303 766 OFFCURVE",
"287 735 OFFCURVE",
"275 715 CURVE SMOOTH",
"238 653 OFFCURVE",
"205 579 OFFCURVE",
"205 521 CURVE SMOOTH",
"205 504 OFFCURVE",
"208 488 OFFCURVE",
"215 475 CURVE SMOOTH",
"233 442 OFFCURVE",
"265 430 OFFCURVE",
"296 430 CURVE SMOOTH",
"307 430 OFFCURVE",
"317 431 OFFCURVE",
"327 433 CURVE SMOOTH"
);
}
);
userData = {
com.hugojourdan.ColorFlow = {
"0" = 0;
"1" = 0;
"10" = 0;
"11" = 0;
"2" = 0;
"3" = 0;
"4" = 0;
"5" = 0;
"6" = 0;
"7" = 0;
"8" = 0;
"9" = 0;
};
};
width = 1047;
}
);
unicode = 0181;
},
{
glyphname = C;
lastChange = "2024-03-16 00:22:21 +0000";
layers = (
{
anchors = (
{
name = bottom;
position = "{357, -96}";
},
{
name = top;
position = "{629, 800}";
}
);
layerId = "61E7180A-0B32-4047-B910-001D8BB62225";
paths = (
{
closed = 1;
nodes = (
"554 -107 OFFCURVE",
"702 -13 OFFCURVE",
"785 184 CURVE",
"785 190 OFFCURVE",
"782 193 OFFCURVE",
"773 193 CURVE",
"687 10 OFFCURVE",
"555 -75 OFFCURVE",
"382 -75 CURVE SMOOTH",
"235 -75 OFFCURVE",
"132 6 OFFCURVE",
"132 198 CURVE SMOOTH",
"132 306 OFFCURVE",
"170 434 OFFCURVE",
"253 548 CURVE SMOOTH",
"335 661 OFFCURVE",
"467 747 OFFCURVE",
"592 747 CURVE SMOOTH",
"716 747 OFFCURVE",
"809 675 OFFCURVE",
"809 569 CURVE SMOOTH",
"809 454 OFFCURVE",
"700 329 OFFCURVE",
"516 329 CURVE SMOOTH",
"296 329 OFFCURVE",
"192 495 OFFCURVE",
"192 700 CURVE SMOOTH",
"192 741 OFFCURVE",
"195 769 OFFCURVE",
"199 796 CURVE SMOOTH",
"200 803 OFFCURVE",
"196 806 OFFCURVE",
"192 806 CURVE SMOOTH",
"187 806 OFFCURVE",
"180 800 OFFCURVE",
"178 792 CURVE SMOOTH",
"170 760 OFFCURVE",
"166 726 OFFCURVE",
"166 691 CURVE SMOOTH",
"166 426 OFFCURVE",
"326 303 OFFCURVE",
"522 303 CURVE SMOOTH",
"725 303 OFFCURVE",
"855 446 OFFCURVE",
"855 564 CURVE SMOOTH",
"855 704 OFFCURVE",
"733 786 OFFCURVE",
"590 786 CURVE SMOOTH",
"435 786 OFFCURVE",
"304 704 OFFCURVE",
"223 614 CURVE SMOOTH",
"136 517 OFFCURVE",
"60 361 OFFCURVE",
"60 213 CURVE SMOOTH",
"60 5 OFFCURVE",
"188 -107 OFFCURVE",
"371 -107 CURVE SMOOTH"
);
}
);
userData = {
com.hugojourdan.ColorFlow = {
"0" = 0;
"1" = 0;
"10" = 0;
"11" = 0;
"2" = 0;
"3" = 0;
"4" = 0;
"5" = 0;
"6" = 0;
"7" = 0;
"8" = 0;
"9" = 0;
};
};
width = 714;
}
);
note = C;
unicode = 0043;
},
{
glyphname = "Chi-latin";
lastChange = "2024-03-16 00:22:21 +0000";
layers = (
{
layerId = "61E7180A-0B32-4047-B910-001D8BB62225";
paths = (
{
closed = 1;
nodes = (
"-158 -320 OFFCURVE",
"-131 -313 OFFCURVE",
"-86 -262 CURVE SMOOTH",
"2 -163 OFFCURVE",
"252 117 OFFCURVE",
"417 305 CURVE",
"415 239 OFFCURVE",
"417 209 OFFCURVE",
"417 148 CURVE SMOOTH",
"417 82 OFFCURVE",
"419 40 OFFCURVE",
"425 15 CURVE SMOOTH",
"440 -53 OFFCURVE",
"479 -90 OFFCURVE",
"528 -90 CURVE SMOOTH",
"606 -90 OFFCURVE",
"727 0 OFFCURVE",
"802 184 CURVE",
"802 192 OFFCURVE",
"797 193 OFFCURVE",
"790 193 CURVE",
"738 67 OFFCURVE",
"648 -26 OFFCURVE",
"585 -26 CURVE SMOOTH",
"551 -26 OFFCURVE",
"522 0 OFFCURVE",
"506 60 CURVE SMOOTH",
"495 101 OFFCURVE",
"492 181 OFFCURVE",
"492 271 CURVE SMOOTH",
"492 316 OFFCURVE",
"493 349 OFFCURVE",
"495 374 CURVE",
"634 510 OFFCURVE",
"806 698 OFFCURVE",
"872 778 CURVE SMOOTH",
"897 809 OFFCURVE",
"907 828 OFFCURVE",
"906 836 CURVE SMOOTH",
"905 841 OFFCURVE",
"902 843 OFFCURVE",
"897 842 CURVE SMOOTH",
"883 841 OFFCURVE",
"851 818 OFFCURVE",
"820 776 CURVE SMOOTH",
"775 713 OFFCURVE",
"599 522 OFFCURVE",
"493 413 CURVE",
"494 573 OFFCURVE",
"481 717 OFFCURVE",
"448 748 CURVE SMOOTH",
"422 772 OFFCURVE",
"390 782 OFFCURVE",
"356 782 CURVE SMOOTH",
"219 782 OFFCURVE",
"40 626 OFFCURVE",
"29 608 CURVE SMOOTH",
"24 601 OFFCURVE",
"21 595 OFFCURVE",
"21 590 CURVE SMOOTH",
"21 579 OFFCURVE",
"33 575 OFFCURVE",
"40 575 CURVE SMOOTH",
"42 575 OFFCURVE",
"44 575 OFFCURVE",
"45 576 CURVE SMOOTH",
"92 623 OFFCURVE",
"144 682 OFFCURVE",
"200 708 CURVE SMOOTH",
"234 724 OFFCURVE",
"270 734 OFFCURVE",
"302 734 CURVE SMOOTH",
"351 734 OFFCURVE",
"391 711 OFFCURVE",
"405 649 CURVE SMOOTH",
"415 605 OFFCURVE",
"416 500 OFFCURVE",
"416 392 CURVE SMOOTH",
"416 344 LINE",
"252 159 OFFCURVE",
"-6 -110 OFFCURVE",
"-79 -184 CURVE SMOOTH",
"-140 -246 OFFCURVE",
"-183 -284 OFFCURVE",
"-186 -296 CURVE SMOOTH",
"-188 -307 OFFCURVE",
"-185 -314 OFFCURVE",
"-175 -317 CURVE SMOOTH"
);
}
);
userData = {
com.hugojourdan.ColorFlow = {
"0" = 0;
"1" = 0;
"10" = 0;
"11" = 0;
"2" = 0;
"3" = 0;
"4" = 0;
"5" = 0;
"6" = 0;
"7" = 0;
"8" = 0;
"9" = 0;
};
};
width = 731;
}
);
unicode = A7B3;
},
{
glyphname = Chook;
lastChange = "2024-03-16 00:22:21 +0000";
layers = (
{
anchors = (
{
name = bottom;
position = "{357, -96}";
},
{
name = top;
position = "{629, 800}";
}
);
layerId = "61E7180A-0B32-4047-B910-001D8BB62225";
paths = (
{
closed = 1;
nodes = (
"567 -103 OFFCURVE",
"698 -4 OFFCURVE",
"785 184 CURVE",
"785 190 OFFCURVE",
"782 193 OFFCURVE",
"773 193 CURVE",
"687 10 OFFCURVE",
"568 -71 OFFCURVE",
"386 -71 CURVE SMOOTH",
"246 -71 OFFCURVE",
"132 -11 OFFCURVE",
"132 198 CURVE SMOOTH",
"132 468 OFFCURVE",
"351 744 OFFCURVE",
"590 744 CURVE SMOOTH",
"700 744 OFFCURVE",
"751 693 OFFCURVE",
"751 646 CURVE SMOOTH",
"751 604 OFFCURVE",
"713 565 OFFCURVE",
"653 565 CURVE SMOOTH",
"588 565 OFFCURVE",
"533 604 OFFCURVE",
"533 709 CURVE SMOOTH",
"533 767 OFFCURVE",
"586 903 OFFCURVE",
"663 903 CURVE SMOOTH",
"687 903 OFFCURVE",
"705 882 OFFCURVE",
"705 857 CURVE SMOOTH",
"705 840 OFFCURVE",
"699 820 OFFCURVE",
"694 805 CURVE",
"694 798 OFFCURVE",
"698 795 OFFCURVE",
"702 795 CURVE SMOOTH",
"707 795 OFFCURVE",
"711 797 OFFCURVE",
"715 803 CURVE SMOOTH",
"725 816 OFFCURVE",
"733 839 OFFCURVE",
"733 867 CURVE SMOOTH",
"733 918 OFFCURVE",
"704 974 OFFCURVE",
"653 974 CURVE SMOOTH",
"605 974 OFFCURVE",
"569 930 OFFCURVE",
"543 874 CURVE SMOOTH",
"515 816 OFFCURVE",
"498 745 OFFCURVE",
"498 700 CURVE SMOOTH",
"498 579 OFFCURVE",
"573 534 OFFCURVE",
"656 534 CURVE SMOOTH",
"747 534 OFFCURVE",
"800 589 OFFCURVE",
"800 648 CURVE SMOOTH",
"800 713 OFFCURVE",
"729 783 OFFCURVE",
"572 783 CURVE SMOOTH",
"270 783 OFFCURVE",
"60 466 OFFCURVE",
"60 213 CURVE SMOOTH",
"60 -13 OFFCURVE",
"205 -103 OFFCURVE",
"375 -103 CURVE SMOOTH"
);
}
);
userData = {
com.hugojourdan.ColorFlow = {
"0" = 0;
"1" = 0;
"10" = 0;
"11" = 0;
"2" = 0;
"3" = 0;
"4" = 0;
"5" = 0;
"6" = 0;
"7" = 0;
"8" = 0;
"9" = 0;
};
};
width = 714;
}
);
unicode = 0187;
},
{
glyphname = D;
lastChange = "2024-03-16 00:22:21 +0000";
layers = (
{
anchors = (
{
name = bottom;
position = "{549, -17}";
},
{
name = center;
position = "{540, 209}";
},
{
name = top;
position = "{799, 800}";
}
);
layerId = "61E7180A-0B32-4047-B910-001D8BB62225";
paths = (
{
closed = 1;
nodes = (
"279 -43 OFFCURVE",
"350 -14 OFFCURVE",
"419 44 CURVE SMOOTH",
"547 152 OFFCURVE",
"715 448 OFFCURVE",
"786 563 CURVE SMOOTH",
"814 608 OFFCURVE",
"887 728 OFFCURVE",
"922 760 CURVE SMOOTH",
"937 773 OFFCURVE",
"945 781 OFFCURVE",
"945 785 CURVE SMOOTH",
"945 787 OFFCURVE",
"943 788 OFFCURVE",
"939 788 CURVE SMOOTH",
"934 788 OFFCURVE",
"928 787 OFFCURVE",
"918 783 CURVE SMOOTH",
"856 758 OFFCURVE",
"799 690 OFFCURVE",
"744 621 CURVE SMOOTH",
"605 446 OFFCURVE",
"535 196 OFFCURVE",
"388 63 CURVE SMOOTH",
"349 28 OFFCURVE",
"271 -16 OFFCURVE",
"196 -12 CURVE SMOOTH",
"135 -9 OFFCURVE",
"99 21 OFFCURVE",
"99 64 CURVE SMOOTH",
"99 97 OFFCURVE",
"125 130 OFFCURVE",
"172 130 CURVE SMOOTH",
"293 130 OFFCURVE",
"456 -39 OFFCURVE",
"701 -39 CURVE SMOOTH",
"893 -39 OFFCURVE",
"1061 68 OFFCURVE",
"1061 293 CURVE SMOOTH",
"1061 598 OFFCURVE",
"786 763 OFFCURVE",
"540 763 CURVE SMOOTH",
"305 763 OFFCURVE",
"102 659 OFFCURVE",
"102 485 CURVE SMOOTH",
"102 386 OFFCURVE",
"173 336 OFFCURVE",
"261 336 CURVE SMOOTH",
"335 336 OFFCURVE",
"412 388 OFFCURVE",
"423 468 CURVE SMOOTH",
"425 480 OFFCURVE",
"419 485 OFFCURVE",
"412 485 CURVE SMOOTH",
"408 485 OFFCURVE",
"403 482 OFFCURVE",
"403 478 CURVE SMOOTH",
"401 447 OFFCURVE",
"362 361 OFFCURVE",
"269 361 CURVE SMOOTH",
"216 361 OFFCURVE",
"154 399 OFFCURVE",
"154 484 CURVE SMOOTH",
"154 609 OFFCURVE",
"318 733 OFFCURVE",
"537 733 CURVE SMOOTH",
"781 733 OFFCURVE",
"998 547 OFFCURVE",
"998 285 CURVE SMOOTH",
"998 117 OFFCURVE",
"877 -9 OFFCURVE",
"694 -9 CURVE SMOOTH",
"435 -9 OFFCURVE",
"321 162 OFFCURVE",
"159 162 CURVE SMOOTH",
"79 162 OFFCURVE",
"34 114 OFFCURVE",
"34 65 CURVE SMOOTH",
"34 -8 OFFCURVE",
"114 -43 OFFCURVE",
"196 -43 CURVE SMOOTH"
);
}
);
userData = {
com.hugojourdan.ColorFlow = {
"0" = 0;
"1" = 0;
"10" = 0;
"11" = 0;
"2" = 0;
"3" = 0;
"4" = 0;
"5" = 0;
"6" = 0;
"7" = 0;
"8" = 0;
"9" = 0;
};
};
width = 1050;
}
);
note = D;
unicode = 0044;
userData = {
KernOnName = D;
};
},
{
glyphname = DZcaron;
lastChange = "2024-03-16 00:45:24 +0000";
layers = (
{
anchors = (
{
name = bottom;
position = "{549, -17}";
},
{
name = center;
position = "{540, 209}";
},
{
name = top;
position = "{799, 800}";
}
);
background = {
paths = (
{
closed = 1;
nodes = (
"279 -43 OFFCURVE",
"350 -14 OFFCURVE",
"419 44 CURVE SMOOTH",
"547 152 OFFCURVE",
"715 448 OFFCURVE",
"786 563 CURVE SMOOTH",
"814 608 OFFCURVE",
"887 728 OFFCURVE",
"922 760 CURVE SMOOTH",
"937 773 OFFCURVE",
"945 781 OFFCURVE",
"945 785 CURVE SMOOTH",
"945 787 OFFCURVE",
"943 788 OFFCURVE",
"939 788 CURVE SMOOTH",
"934 788 OFFCURVE",
"928 787 OFFCURVE",
"918 783 CURVE SMOOTH",
"856 758 OFFCURVE",
"799 690 OFFCURVE",
"744 621 CURVE SMOOTH",
"605 446 OFFCURVE",
"535 196 OFFCURVE",
"388 63 CURVE SMOOTH",
"349 28 OFFCURVE",
"271 -16 OFFCURVE",
"196 -12 CURVE SMOOTH",
"135 -9 OFFCURVE",
"99 21 OFFCURVE",
"99 64 CURVE SMOOTH",
"99 97 OFFCURVE",
"125 130 OFFCURVE",
"172 130 CURVE SMOOTH",
"293 130 OFFCURVE",
"456 -39 OFFCURVE",
"701 -39 CURVE SMOOTH",
"893 -39 OFFCURVE",
"1061 68 OFFCURVE",
"1061 293 CURVE SMOOTH",
"1061 598 OFFCURVE",
"786 763 OFFCURVE",
"540 763 CURVE SMOOTH",
"305 763 OFFCURVE",
"102 659 OFFCURVE",
"102 485 CURVE SMOOTH",
"102 386 OFFCURVE",
"173 336 OFFCURVE",
"261 336 CURVE SMOOTH",
"335 336 OFFCURVE",
"412 388 OFFCURVE",
"423 468 CURVE SMOOTH",
"425 480 OFFCURVE",
"419 485 OFFCURVE",
"412 485 CURVE SMOOTH",
"408 485 OFFCURVE",
"403 482 OFFCURVE",
"403 478 CURVE SMOOTH",
"401 447 OFFCURVE",
"362 361 OFFCURVE",
"269 361 CURVE SMOOTH",
"216 361 OFFCURVE",
"154 399 OFFCURVE",
"154 484 CURVE SMOOTH",
"154 609 OFFCURVE",
"318 733 OFFCURVE",
"537 733 CURVE SMOOTH",
"781 733 OFFCURVE",
"998 547 OFFCURVE",
"998 285 CURVE SMOOTH",
"998 117 OFFCURVE",
"877 -9 OFFCURVE",
"694 -9 CURVE SMOOTH",
"435 -9 OFFCURVE",
"321 162 OFFCURVE",
"159 162 CURVE SMOOTH",
"79 162 OFFCURVE",
"34 114 OFFCURVE",
"34 65 CURVE SMOOTH",
"34 -8 OFFCURVE",
"114 -43 OFFCURVE",
"196 -43 CURVE SMOOTH"
);
},
{
closed = 1;
nodes = (
"1075 -230 OFFCURVE",
"1141 -215 OFFCURVE",
"1212 -164 CURVE",
"1299 -214 OFFCURVE",
"1484 -402 OFFCURVE",
"1686 -402 CURVE SMOOTH",
"1873 -402 OFFCURVE",
"1910 -295 OFFCURVE",
"1914 -256 CURVE SMOOTH",
"1917 -227 OFFCURVE",
"1910 -219 OFFCURVE",
"1903 -219 CURVE SMOOTH",
"1897 -219 OFFCURVE",
"1892 -226 OFFCURVE",
"1890 -242 CURVE SMOOTH",
"1878 -324 OFFCURVE",
"1778 -345 OFFCURVE",
"1681 -345 CURVE SMOOTH",
"1542 -345 OFFCURVE",
"1346 -209 OFFCURVE",
"1232 -146 CURVE",
"1298 -89 OFFCURVE",
"1448 100 OFFCURVE",
"1571 266 CURVE SMOOTH",
"1657 382 OFFCURVE",
"1756 566 OFFCURVE",
"1828 643 CURVE",
"1868 634 OFFCURVE",
"1904 627 OFFCURVE",
"1933 627 CURVE SMOOTH",
"1981 627 OFFCURVE",
"2022 654 OFFCURVE",
"2022 696 CURVE SMOOTH",
"2022 723 OFFCURVE",
"1999 743 OFFCURVE",
"1963 743 CURVE SMOOTH",
"1899 743 OFFCURVE",
"1844 693 OFFCURVE",
"1811 668 CURVE",
"1710 699 OFFCURVE",
"1580 749 OFFCURVE",
"1454 749 CURVE SMOOTH",
"1327 749 OFFCURVE",
"1213 691 OFFCURVE",
"1213 589 CURVE SMOOTH",
"1213 537 OFFCURVE",
"1253 482 OFFCURVE",
"1295 482 CURVE SMOOTH",
"1301 482 OFFCURVE",
"1307 485 OFFCURVE",
"1307 489 CURVE SMOOTH",
"1307 493 OFFCURVE",
"1303 496 OFFCURVE",
"1295 501 CURVE SMOOTH",
"1277 513 OFFCURVE",
"1247 531 OFFCURVE",
"1247 568 CURVE SMOOTH",
"1247 629 OFFCURVE",
"1333 695 OFFCURVE",
"1472 695 CURVE SMOOTH",
"1607 695 OFFCURVE",
"1711 676 OFFCURVE",
"1792 653 CURVE",
"1717 579 OFFCURVE",
"1627 455 OFFCURVE",
"1500 294 CURVE SMOOTH",
"1409 179 OFFCURVE",
"1280 -54 OFFCURVE",
"1209 -130 CURVE",
"1137 -84 OFFCURVE",
"1072 -50 OFFCURVE",
"1017 -50 CURVE SMOOTH",
"959 -50 OFFCURVE",
"921 -83 OFFCURVE",
"921 -135 CURVE SMOOTH",
"921 -200 OFFCURVE",
"984 -230 OFFCURVE",
"1030 -230 CURVE SMOOTH"
);
},
{
closed = 1;
nodes = (
"1006 -198 OFFCURVE",
"977 -168 OFFCURVE",
"977 -138 CURVE SMOOTH",
"977 -111 OFFCURVE",
"1002 -84 OFFCURVE",
"1052 -84 CURVE SMOOTH",
"1078 -84 OFFCURVE",
"1119 -96 OFFCURVE",
"1169 -126 CURVE SMOOTH",
"1180 -132 OFFCURVE",
"1197 -144 OFFCURVE",
"1197 -144 CURVE",
"1168 -169 OFFCURVE",
"1112 -198 OFFCURVE",
"1065 -198 CURVE SMOOTH"
);
},
{
closed = 1;
nodes = (
"1920 642 OFFCURVE",
"1889 649 OFFCURVE",
"1853 659 CURVE",
"1900 698 OFFCURVE",
"1935 721 OFFCURVE",
"1965 721 CURVE SMOOTH",
"1986 721 OFFCURVE",
"2003 707 OFFCURVE",
"2003 689 CURVE SMOOTH",
"2003 656 OFFCURVE",
"1976 642 OFFCURVE",
"1945 642 CURVE SMOOTH"
);
},
{
closed = 1;
nodes = (
"1773 824 OFFCURVE",
"1784 828 OFFCURVE",
"1793 834 CURVE SMOOTH",
"1926 927 LINE SMOOTH",
"1929 929 OFFCURVE",
"1935 933 OFFCURVE",
"1935 935 CURVE SMOOTH",
"1935 937 OFFCURVE",
"1930 939 OFFCURVE",
"1924 939 CURVE SMOOTH",
"1914 939 OFFCURVE",
"1904 936 OFFCURVE",
"1894 931 CURVE SMOOTH",
"1768 869 LINE",
"1782 867 LINE",
"1721 932 LINE SMOOTH",
"1717 936 OFFCURVE",
"1710 939 OFFCURVE",
"1703 939 CURVE SMOOTH",
"1698 939 OFFCURVE",
"1695 937 OFFCURVE",
"1695 935 CURVE SMOOTH",
"1695 934 OFFCURVE",
"1699 926 OFFCURVE",
"1700 923 CURVE SMOOTH",
"1736 838 LINE SMOOTH",
"1740 828 OFFCURVE",
"1748 824 OFFCURVE",
"1759 824 CURVE SMOOTH"
);
}
);
};
layerId = "61E7180A-0B32-4047-B910-001D8BB62225";
paths = (
{
closed = 1;
nodes = (
"279 -43 OFFCURVE",
"350 -14 OFFCURVE",
"419 44 CURVE SMOOTH",
"547 152 OFFCURVE",
"715 448 OFFCURVE",
"786 563 CURVE SMOOTH",
"814 608 OFFCURVE",
"887 728 OFFCURVE",
"922 760 CURVE SMOOTH",
"937 773 OFFCURVE",
"945 781 OFFCURVE",
"945 785 CURVE SMOOTH",
"945 787 OFFCURVE",
"943 788 OFFCURVE",
"939 788 CURVE SMOOTH",
"934 788 OFFCURVE",
"928 787 OFFCURVE",
"918 783 CURVE SMOOTH",
"856 758 OFFCURVE",
"799 690 OFFCURVE",
"744 621 CURVE SMOOTH",
"605 446 OFFCURVE",
"535 196 OFFCURVE",
"388 63 CURVE SMOOTH",
"349 28 OFFCURVE",
"271 -16 OFFCURVE",
"196 -12 CURVE SMOOTH",
"135 -9 OFFCURVE",
"99 21 OFFCURVE",
"99 64 CURVE SMOOTH",
"99 97 OFFCURVE",
"125 130 OFFCURVE",
"172 130 CURVE SMOOTH",
"293 130 OFFCURVE",
"456 -39 OFFCURVE",
"701 -39 CURVE SMOOTH",
"893 -39 OFFCURVE",
"1061 68 OFFCURVE",
"1061 293 CURVE SMOOTH",
"1061 598 OFFCURVE",
"786 763 OFFCURVE",
"540 763 CURVE SMOOTH",
"305 763 OFFCURVE",
"102 659 OFFCURVE",
"102 485 CURVE SMOOTH",
"102 386 OFFCURVE",
"173 336 OFFCURVE",
"261 336 CURVE SMOOTH",
"335 336 OFFCURVE",
"412 388 OFFCURVE",
"423 468 CURVE SMOOTH",
"425 480 OFFCURVE",
"419 485 OFFCURVE",
"412 485 CURVE SMOOTH",
"408 485 OFFCURVE",
"403 482 OFFCURVE",
"403 478 CURVE SMOOTH",
"401 447 OFFCURVE",
"362 361 OFFCURVE",
"269 361 CURVE SMOOTH",
"216 361 OFFCURVE",
"154 399 OFFCURVE",
"154 484 CURVE SMOOTH",
"154 609 OFFCURVE",
"318 733 OFFCURVE",
"537 733 CURVE SMOOTH",
"781 733 OFFCURVE",
"998 547 OFFCURVE",
"998 285 CURVE SMOOTH",
"998 117 OFFCURVE",
"877 -9 OFFCURVE",
"694 -9 CURVE SMOOTH",
"435 -9 OFFCURVE",
"321 162 OFFCURVE",
"159 162 CURVE SMOOTH",
"79 162 OFFCURVE",
"34 114 OFFCURVE",
"34 65 CURVE SMOOTH",
"34 -8 OFFCURVE",
"114 -43 OFFCURVE",
"196 -43 CURVE SMOOTH"
);
},
{
closed = 1;
nodes = (
"1075 -230 OFFCURVE",
"1141 -215 OFFCURVE",
"1212 -164 CURVE",
"1299 -214 OFFCURVE",
"1484 -402 OFFCURVE",
"1686 -402 CURVE SMOOTH",
"1873 -402 OFFCURVE",
"1910 -295 OFFCURVE",
"1914 -256 CURVE SMOOTH",
"1917 -227 OFFCURVE",
"1910 -219 OFFCURVE",
"1903 -219 CURVE SMOOTH",
"1897 -219 OFFCURVE",
"1892 -226 OFFCURVE",
"1890 -242 CURVE SMOOTH",
"1878 -324 OFFCURVE",
"1778 -345 OFFCURVE",
"1681 -345 CURVE SMOOTH",
"1542 -345 OFFCURVE",
"1346 -209 OFFCURVE",
"1232 -146 CURVE",
"1298 -89 OFFCURVE",
"1444 77 OFFCURVE",
"1564 245 CURVE SMOOTH",
"1647 361 OFFCURVE",
"1756 566 OFFCURVE",
"1828 643 CURVE",
"1868 634 OFFCURVE",
"1904 627 OFFCURVE",
"1933 627 CURVE SMOOTH",
"1981 627 OFFCURVE",
"2022 654 OFFCURVE",
"2022 696 CURVE SMOOTH",
"2022 723 OFFCURVE",
"1999 743 OFFCURVE",
"1963 743 CURVE SMOOTH",
"1899 743 OFFCURVE",
"1844 693 OFFCURVE",
"1811 668 CURVE",
"1710 699 OFFCURVE",
"1580 749 OFFCURVE",
"1454 749 CURVE SMOOTH",
"1327 749 OFFCURVE",
"1213 691 OFFCURVE",
"1213 589 CURVE SMOOTH",
"1213 537 OFFCURVE",
"1253 482 OFFCURVE",
"1295 482 CURVE SMOOTH",
"1301 482 OFFCURVE",
"1307 485 OFFCURVE",
"1307 489 CURVE SMOOTH",
"1307 493 OFFCURVE",
"1303 496 OFFCURVE",
"1295 501 CURVE SMOOTH",
"1277 513 OFFCURVE",
"1247 531 OFFCURVE",
"1247 568 CURVE SMOOTH",
"1247 629 OFFCURVE",
"1333 695 OFFCURVE",
"1472 695 CURVE SMOOTH",
"1607 695 OFFCURVE",
"1711 676 OFFCURVE",
"1792 653 CURVE",
"1717 579 OFFCURVE",
"1606 426 OFFCURVE",
"1504 288 CURVE SMOOTH",
"1406 155 OFFCURVE",
"1280 -54 OFFCURVE",
"1209 -130 CURVE",
"1137 -84 OFFCURVE",
"1072 -50 OFFCURVE",
"1017 -50 CURVE SMOOTH",
"959 -50 OFFCURVE",
"921 -83 OFFCURVE",
"921 -135 CURVE SMOOTH",
"921 -200 OFFCURVE",
"984 -230 OFFCURVE",
"1030 -230 CURVE SMOOTH"
);
},
{
closed = 1;
nodes = (
"1006 -198 OFFCURVE",
"977 -168 OFFCURVE",
"977 -138 CURVE SMOOTH",
"977 -111 OFFCURVE",
"1002 -84 OFFCURVE",
"1052 -84 CURVE SMOOTH",
"1078 -84 OFFCURVE",
"1119 -96 OFFCURVE",
"1169 -126 CURVE SMOOTH",
"1180 -132 OFFCURVE",
"1197 -144 OFFCURVE",
"1197 -144 CURVE",
"1168 -169 OFFCURVE",
"1112 -198 OFFCURVE",
"1065 -198 CURVE SMOOTH"
);
},
{
closed = 1;
nodes = (
"1920 642 OFFCURVE",
"1889 649 OFFCURVE",
"1853 659 CURVE",
"1900 698 OFFCURVE",
"1935 721 OFFCURVE",
"1965 721 CURVE SMOOTH",
"1986 721 OFFCURVE",
"2003 707 OFFCURVE",
"2003 689 CURVE SMOOTH",
"2003 656 OFFCURVE",
"1976 642 OFFCURVE",
"1945 642 CURVE SMOOTH"
);
},
{
closed = 1;
nodes = (
"1773 824 OFFCURVE",
"1784 828 OFFCURVE",
"1793 834 CURVE SMOOTH",
"1926 927 LINE SMOOTH",
"1929 929 OFFCURVE",
"1935 933 OFFCURVE",
"1935 935 CURVE SMOOTH",
"1935 937 OFFCURVE",
"1930 939 OFFCURVE",
"1924 939 CURVE SMOOTH",
"1914 939 OFFCURVE",
"1904 936 OFFCURVE",
"1894 931 CURVE SMOOTH",
"1768 869 LINE",
"1782 867 LINE",
"1721 932 LINE SMOOTH",
"1717 936 OFFCURVE",
"1710 939 OFFCURVE",
"1703 939 CURVE SMOOTH",
"1698 939 OFFCURVE",
"1695 937 OFFCURVE",
"1695 935 CURVE SMOOTH",
"1695 934 OFFCURVE",
"1699 926 OFFCURVE",
"1700 923 CURVE SMOOTH",
"1736 838 LINE SMOOTH",
"1740 828 OFFCURVE",
"1748 824 OFFCURVE",
"1759 824 CURVE SMOOTH"
);
}
);
width = 1621;
}
);
leftMetricsKey = D;
rightMetricsKey = Z;
unicode = 01C4;
},
{
glyphname = Dhook;
lastChange = "2024-03-16 00:22:21 +0000";
layers = (
{
anchors = (
{
name = bottom;
position = "{549, -20}";
},
{
name = center;
position = "{540, 209}";
},
{
name = top;
position = "{686, 800}";
}
);
layerId = "61E7180A-0B32-4047-B910-001D8BB62225";
paths = (
{
closed = 1;
nodes = (
"312 350 OFFCURVE",
"352 409 OFFCURVE",
"352 441 CURVE SMOOTH",
"352 446 OFFCURVE",
"351 451 OFFCURVE",
"350 454 CURVE SMOOTH",
"346 462 OFFCURVE",
"335 455 OFFCURVE",
"331 451 CURVE",
"319 427 OFFCURVE",
"300 395 OFFCURVE",
"271 387 CURVE SMOOTH",
"263 385 OFFCURVE",
"256 384 OFFCURVE",
"249 384 CURVE SMOOTH",
"220 384 OFFCURVE",
"205 401 OFFCURVE",
"194 421 CURVE SMOOTH",
"185 436 OFFCURVE",
"181 454 OFFCURVE",
"181 475 CURVE SMOOTH",
"181 513 OFFCURVE",
"194 557 OFFCURVE",
"212 600 CURVE SMOOTH",
"218 615 OFFCURVE",
"230 649 OFFCURVE",
"235 684 CURVE",
"359 636 OFFCURVE",
"620 639 OFFCURVE",
"722 594 CURVE",
"753 634 LINE",
"675 654 OFFCURVE",
"362 673 OFFCURVE",
"236 720 CURVE",
"235 756 OFFCURVE",
"220 785 OFFCURVE",
"191 785 CURVE SMOOTH",
"169 785 OFFCURVE",
"166 765 OFFCURVE",
"166 754 CURVE SMOOTH",
"166 728 OFFCURVE",
"184 708 OFFCURVE",
"215 693 CURVE",
"209 664 OFFCURVE",
"193 633 OFFCURVE",
"181 613 CURVE SMOOTH",
"144 551 OFFCURVE",
"111 477 OFFCURVE",
"111 419 CURVE SMOOTH",
"111 402 OFFCURVE",
"114 386 OFFCURVE",
"121 373 CURVE SMOOTH",
"139 340 OFFCURVE",
"171 328 OFFCURVE",
"202 328 CURVE SMOOTH",
"213 328 OFFCURVE",
"223 329 OFFCURVE",
"233 331 CURVE SMOOTH"
);
},
{
closed = 1;
nodes = (
"722 594 LINE",
"914 534 OFFCURVE",
"986 428 OFFCURVE",
"986 308 CURVE SMOOTH",
"986 106 OFFCURVE",
"836 -2 OFFCURVE",
"649 -2 CURVE SMOOTH",
"571 -2 OFFCURVE",
"486 16 OFFCURVE",
"401 54 CURVE",
"415 63 OFFCURVE",
"431 82 OFFCURVE",
"440 90 CURVE",
"545 203 OFFCURVE",
"682 450 OFFCURVE",
"799 634 CURVE SMOOTH",
"813 656 OFFCURVE",
"868 746 OFFCURVE",
"899 768 CURVE SMOOTH",
"910 775 OFFCURVE",
"915 781 OFFCURVE",
"915 785 CURVE SMOOTH",
"915 787 OFFCURVE",
"913 788 OFFCURVE",
"909 788 CURVE SMOOTH",
"904 788 OFFCURVE",
"898 787 OFFCURVE",
"888 783 CURVE SMOOTH",
"851 768 OFFCURVE",
"812 733 OFFCURVE",
"779 697 CURVE SMOOTH",
"750 666 LINE SMOOTH",
"590 495 OFFCURVE",
"517 215 OFFCURVE",
"369 72 CURVE",
"336 89 OFFCURVE",
"255 133 OFFCURVE",
"216 146 CURVE SMOOTH",
"184 157 OFFCURVE",
"155 162 OFFCURVE",
"129 162 CURVE SMOOTH",
"49 162 OFFCURVE",
"4 114 OFFCURVE",
"4 65 CURVE SMOOTH",
"4 20 OFFCURVE",
"42 -26 OFFCURVE",
"126 -36 CURVE SMOOTH",
"142 -38 OFFCURVE",
"158 -39 OFFCURVE",
"173 -39 CURVE SMOOTH",
"249 -39 OFFCURVE",
"316 -14 OFFCURVE",
"377 36 CURVE",
"479 -9 OFFCURVE",
"581 -31 OFFCURVE",
"672 -31 CURVE SMOOTH",
"884 -31 OFFCURVE",
"1043 88 OFFCURVE",
"1043 317 CURVE SMOOTH",
"1043 454 OFFCURVE",
"969 569 OFFCURVE",
"753 634 CURVE"
);
},
{
closed = 1;
nodes = (
"98 -6 OFFCURVE",
"69 28 OFFCURVE",
"69 64 CURVE SMOOTH",
"69 97 OFFCURVE",
"95 130 OFFCURVE",
"144 130 CURVE SMOOTH",
"158 130 OFFCURVE",
"174 127 OFFCURVE",
"192 121 CURVE SMOOTH",
"247 101 OFFCURVE",
"295 75 OFFCURVE",
"343 52 CURVE",
"288 12 OFFCURVE",
"224 -12 OFFCURVE",
"151 -8 CURVE SMOOTH"
);
}
);
userData = {
com.hugojourdan.ColorFlow = {
"0" = 0;
"1" = 0;
"10" = 0;
"11" = 0;
"2" = 0;
"3" = 0;
"4" = 0;
"5" = 0;
"6" = 0;
"7" = 0;
"8" = 0;
"9" = 0;
};
};
width = 1050;
}
);
unicode = 018A;
},
{
glyphname = Eth;
lastChange = "2024-03-16 00:22:21 +0000";
layers = (
{
anchors = (
{
name = top;
position = "{582.8, 289}";
}
);
color = 9;
layerId = "61E7180A-0B32-4047-B910-001D8BB62225";
paths = (
{
closed = 1;
nodes = (
"249 -39 OFFCURVE",
"316 -14 OFFCURVE",
"377 36 CURVE",
"441 8 OFFCURVE",
"519 -20 OFFCURVE",
"650 -36 CURVE SMOOTH",
"665 -38 OFFCURVE",
"681 -39 OFFCURVE",
"696 -39 CURVE SMOOTH",
"860 -39 OFFCURVE",
"1012 68 OFFCURVE",
"1028 240 CURVE SMOOTH",
"1030 258 OFFCURVE",
"1031 275 OFFCURVE",
"1031 293 CURVE SMOOTH",
"1031 458 OFFCURVE",
"946 590 OFFCURVE",
"823 671 CURVE",
"841 699 OFFCURVE",
"849 711 OFFCURVE",
"869 739 CURVE SMOOTH",
"874 746 OFFCURVE",
"886 759 OFFCURVE",
"899 768 CURVE SMOOTH",
"910 775 OFFCURVE",
"915 781 OFFCURVE",
"915 785 CURVE SMOOTH",
"915 787 OFFCURVE",
"913 788 OFFCURVE",
"909 788 CURVE SMOOTH",
"904 788 OFFCURVE",
"898 787 OFFCURVE",
"888 783 CURVE SMOOTH",
"871 776 OFFCURVE",
"821 741 OFFCURVE",
"804 726 CURVE",
"779 697 LINE",
"698 739 OFFCURVE",
"605 763 OFFCURVE",
"510 763 CURVE SMOOTH",
"482 763 OFFCURVE",
"453 761 OFFCURVE",
"425 757 CURVE SMOOTH",
"172 720 OFFCURVE",
"72 598 OFFCURVE",
"72 493 CURVE SMOOTH",
"72 421 OFFCURVE",
"119 365 OFFCURVE",
"181 344 CURVE SMOOTH",
"197 339 OFFCURVE",
"214 336 OFFCURVE",
"231 336 CURVE SMOOTH",
"305 336 OFFCURVE",
"382 388 OFFCURVE",
"393 468 CURVE SMOOTH",
"395 480 OFFCURVE",
"389 485 OFFCURVE",
"382 485 CURVE SMOOTH",
"378 485 OFFCURVE",
"373 482 OFFCURVE",
"373 478 CURVE SMOOTH",
"371 447 OFFCURVE",
"326 361 OFFCURVE",
"239 361 CURVE SMOOTH",
"225 361 OFFCURVE",
"209 364 OFFCURVE",
"192 369 CURVE SMOOTH",
"143 384 OFFCURVE",
"119 421 OFFCURVE",
"119 466 CURVE SMOOTH",
"119 557 OFFCURVE",
"218 682 OFFCURVE",
"405 722 CURVE SMOOTH",
"439 729 OFFCURVE",
"473 733 OFFCURVE",
"507 733 CURVE SMOOTH",
"595 733 OFFCURVE",
"680 709 OFFCURVE",
"750 666 CURVE",
"594 491 OFFCURVE",
"517 215 OFFCURVE",
"369 72 CURVE",
"336 89 OFFCURVE",
"255 133 OFFCURVE",
"216 146 CURVE SMOOTH",
"184 157 OFFCURVE",
"155 162 OFFCURVE",
"129 162 CURVE SMOOTH",
"49 162 OFFCURVE",
"4 114 OFFCURVE",
"4 65 CURVE SMOOTH",
"4 20 OFFCURVE",
"42 -26 OFFCURVE",
"126 -36 CURVE SMOOTH",
"142 -38 OFFCURVE",
"158 -39 OFFCURVE",
"173 -39 CURVE SMOOTH"
);
},
{
closed = 1;
nodes = (
"98 -6 OFFCURVE",
"69 28 OFFCURVE",
"69 64 CURVE SMOOTH",
"69 97 OFFCURVE",
"95 130 OFFCURVE",
"144 130 CURVE SMOOTH",
"158 130 OFFCURVE",
"174 127 OFFCURVE",
"192 121 CURVE SMOOTH",
"247 101 OFFCURVE",
"295 75 OFFCURVE",
"343 52 CURVE",
"288 12 OFFCURVE",
"224 -12 OFFCURVE",
"151 -8 CURVE SMOOTH"
);
},
{
closed = 1;
nodes = (
"668 -9 OFFCURVE",
"661 -9 OFFCURVE",
"649 -8 CURVE SMOOTH",
"541 1 OFFCURVE",
"464 26 OFFCURVE",
"401 54 CURVE",
"415 63 OFFCURVE",
"431 82 OFFCURVE",
"440 90 CURVE",
"545 203 OFFCURVE",
"682 450 OFFCURVE",
"799 634 CURVE",
"900 553 OFFCURVE",
"968 430 OFFCURVE",
"968 285 CURVE SMOOTH",
"968 270 OFFCURVE",
"967 253 OFFCURVE",
"965 237 CURVE SMOOTH",
"951 107 OFFCURVE",
"838 -9 OFFCURVE",
"679 -9 CURVE SMOOTH"
);
},
{
closed = 1;
nodes = (
"700 288 LINE SMOOTH",
"727 288 OFFCURVE",
"727 318 OFFCURVE",
"727 323 CURVE",
"455 323 LINE",
"433 323 OFFCURVE",
"427 296 OFFCURVE",
"427 288 CURVE"
);
}
);
userData = {
com.hugojourdan.ColorFlow = {
"0" = 0;
"1" = 0;
"10" = 0;
"11" = 0;
"2" = 0;
"3" = 0;
"4" = 0;
"5" = 0;
"6" = 0;
"7" = 0;
"8" = 0;
"9" = 1;
};
com.hugojourdan.ColorFlow_Color_9 = "9";
};
width = 1032;
}
);
note = Eth;
unicode = 00D0;
},
{
glyphname = E;
lastChange = "2024-03-16 00:22:21 +0000";
layers = (
{
anchors = (
{
name = bottom;
position = "{310, -50}";
},
{
name = ogonek;
position = "{617, 0}";
},
{
name = top;
position = "{714, 812}";
},
{
name = topleft;
position = "{186, 750}";
}
);
layerId = "61E7180A-0B32-4047-B910-001D8BB62225";
paths = (
{
closed = 1;
nodes = (
"490 -59 OFFCURVE",
"662 -3 OFFCURVE",
"761 75 CURVE SMOOTH",
"814 116 OFFCURVE",
"842 159 OFFCURVE",
"842 195 CURVE SMOOTH",
"842 233 OFFCURVE",
"806 263 OFFCURVE",
"768 263 CURVE SMOOTH",
"758 263 OFFCURVE",
"754 259 OFFCURVE",
"754 255 CURVE SMOOTH",
"754 251 OFFCURVE",
"757 250 OFFCURVE",
"764 249 CURVE SMOOTH",
"789 245 OFFCURVE",
"803 232 OFFCURVE",
"803 215 CURVE SMOOTH",
"803 186 OFFCURVE",
"770 142 OFFCURVE",
"722 104 CURVE SMOOTH",
"634 36 OFFCURVE",
"486 -33 OFFCURVE",
"330 -33 CURVE SMOOTH",
"160 -33 OFFCURVE",
"93 48 OFFCURVE",
"93 152 CURVE SMOOTH",
"93 231 OFFCURVE",
"159 325 OFFCURVE",
"264 358 CURVE SMOOTH",
"318 375 OFFCURVE",
"364 377 OFFCURVE",
"405 377 CURVE SMOOTH",
"434 377 OFFCURVE",
"461 376 OFFCURVE",
"482 376 CURVE SMOOTH",
"516 376 OFFCURVE",
"537 389 OFFCURVE",
"537 407 CURVE SMOOTH",
"537 414 OFFCURVE",
"534 421 OFFCURVE",
"521 425 CURVE SMOOTH",
"447 448 OFFCURVE",
"324 458 OFFCURVE",
"324 550 CURVE SMOOTH",
"324 674 OFFCURVE",
"510 773 OFFCURVE",
"670 773 CURVE SMOOTH",
"759 773 OFFCURVE",
"804 742 OFFCURVE",
"804 695 CURVE SMOOTH",
"804 640 OFFCURVE",
"754 587 OFFCURVE",
"675 561 CURVE SMOOTH",
"659 556 OFFCURVE",
"656 555 OFFCURVE",
"656 551 CURVE SMOOTH",
"656 544 OFFCURVE",
"661 542 OFFCURVE",
"667 542 CURVE SMOOTH",
"671 542 OFFCURVE",
"677 543 OFFCURVE",
"688 545 CURVE SMOOTH",
"797 569 OFFCURVE",
"863 633 OFFCURVE",
"863 690 CURVE SMOOTH",
"863 753 OFFCURVE",
"786 797 OFFCURVE",
"668 797 CURVE SMOOTH",
"483 797 OFFCURVE",
"249 685 OFFCURVE",
"249 547 CURVE SMOOTH",
"249 486 OFFCURVE",
"313 431 OFFCURVE",
"400 412 CURVE",
"400 422 LINE",
"235 427 OFFCURVE",
"22 317 OFFCURVE",
"22 146 CURVE SMOOTH",
"22 39 OFFCURVE",
"118 -59 OFFCURVE",
"326 -59 CURVE SMOOTH"
);
}
);
userData = {
com.hugojourdan.ColorFlow = {
"0" = 0;
"1" = 0;
"10" = 0;
"11" = 0;
"2" = 0;
"3" = 0;
"4" = 0;
"5" = 0;
"6" = 0;
"7" = 0;
"8" = 0;
"9" = 0;
};
};
width = 819;
}
);
note = E;
unicode = 0045;
userData = {
KernOnName = E;
};
},
{
color = 0;
glyphname = Eopen;
lastChange = "2024-03-16 00:22:21 +0000";
layers = (
{
anchors = (
{
name = bottom;
position = "{298, -16}";
},
{
name = ogonek;
position = "{307, -17}";
},
{
name = top;
position = "{547, 794}";
}
);
layerId = "61E7180A-0B32-4047-B910-001D8BB62225";
paths = (
{
closed = 1;
nodes = (
"498 -30 OFFCURVE",
"650 110 OFFCURVE",
"650 253 CURVE SMOOTH",
"650 273 OFFCURVE",
"634 283 OFFCURVE",
"624 283 CURVE SMOOTH",
"618 283 OFFCURVE",
"612 280 OFFCURVE",
"612 273 CURVE SMOOTH",
"612 122 OFFCURVE",
"463 -8 OFFCURVE",
"307 -8 CURVE SMOOTH",
"-33 -8 OFFCURVE",
"75 400 OFFCURVE",
"330 400 CURVE SMOOTH",
"354 400 OFFCURVE",
"375 398 OFFCURVE",
"392 398 CURVE SMOOTH",
"428 398 OFFCURVE",
"460 422 OFFCURVE",
"460 438 CURVE SMOOTH",
"460 445 OFFCURVE",
"451 453 OFFCURVE",
"431 454 CURVE SMOOTH",
"316 460 OFFCURVE",
"271 513 OFFCURVE",
"271 577 CURVE SMOOTH",
"271 667 OFFCURVE",
"363 768 OFFCURVE",
"488 768 CURVE SMOOTH",
"559 768 OFFCURVE",
"597 723 OFFCURVE",
"597 659 CURVE SMOOTH",
"597 630 OFFCURVE",
"611 615 OFFCURVE",
"623 615 CURVE SMOOTH",
"633 615 OFFCURVE",
"654 633 OFFCURVE",
"654 659 CURVE SMOOTH",
"654 780 OFFCURVE",
"537 788 OFFCURVE",
"487 788 CURVE SMOOTH",
"336 788 OFFCURVE",
"213 676 OFFCURVE",
"213 566 CURVE SMOOTH",
"213 513 OFFCURVE",
"242 465 OFFCURVE",
"312 434 CURVE",
"-5 426 OFFCURVE",
"-157 -30 OFFCURVE",
"302 -30 CURVE SMOOTH"
);
}
);
userData = {
com.hugojourdan.ColorFlow = {
"0" = 0;
"1" = 0;
"10" = 0;
"11" = 0;
"2" = 0;
"3" = 0;
"4" = 0;
"5" = 0;
"6" = 0;
"7" = 0;
"8" = 0;
"9" = 0;
};
};
width = 634;
}
);
unicode = 0190;
},
{
glyphname = Ereversed;
lastChange = "2024-03-16 00:22:21 +0000";
layers = (
{
anchors = (
{
name = bottom;
position = "{313, -43}";
},
{
name = top;
position = "{710, 799}";
}
);
layerId = "61E7180A-0B32-4047-B910-001D8BB62225";
paths = (
{
closed = 1;
nodes = (
"12 -3 OFFCURVE",
"136 -57 OFFCURVE",
"286 -57 CURVE SMOOTH",
"519 -57 OFFCURVE",
"816 74 OFFCURVE",
"816 288 CURVE SMOOTH",
"816 374 OFFCURVE",
"729 419 OFFCURVE",
"638 422 CURVE",
"758 455 OFFCURVE",
"903 531 OFFCURVE",
"903 646 CURVE SMOOTH",
"903 741 OFFCURVE",
"780 797 OFFCURVE",
"655 797 CURVE SMOOTH",
"532 797 OFFCURVE",
"342 730 OFFCURVE",
"342 625 CURVE SMOOTH",
"342 590 OFFCURVE",
"368 560 OFFCURVE",
"423 545 CURVE SMOOTH",
"433 543 OFFCURVE",
"440 542 OFFCURVE",
"446 542 CURVE SMOOTH",
"456 542 OFFCURVE",
"462 544 OFFCURVE",
"466 548 CURVE SMOOTH",
"469 552 OFFCURVE",
"465 562 OFFCURVE",
"443 564 CURVE SMOOTH",
"415 567 OFFCURVE",
"401 588 OFFCURVE",
"401 616 CURVE SMOOTH",
"401 711 OFFCURVE",
"521 773 OFFCURVE",
"633 773 CURVE SMOOTH",
"748 773 OFFCURVE",
"834 722 OFFCURVE",
"834 647 CURVE SMOOTH",
"834 504 OFFCURVE",
"650 465 OFFCURVE",
"516 432 CURVE SMOOTH",
"449 415 OFFCURVE",
"451 376 OFFCURVE",
"487 376 CURVE SMOOTH",
"547 376 LINE SMOOTH",
"688 376 OFFCURVE",
"747 323 OFFCURVE",
"747 255 CURVE SMOOTH",
"747 135 OFFCURVE",
"562 -30 OFFCURVE",
"311 -30 CURVE SMOOTH",
"177 -30 OFFCURVE",
"64 26 OFFCURVE",
"64 151 CURVE SMOOTH",
"64 198 OFFCURVE",
"90 228 OFFCURVE",
"108 237 CURVE SMOOTH",
"131 248 OFFCURVE",
"150 255 OFFCURVE",
"150 259 CURVE SMOOTH",
"150 262 OFFCURVE",
"147 263 OFFCURVE",
"141 263 CURVE SMOOTH",
"134 263 OFFCURVE",
"126 262 OFFCURVE",
"105 253 CURVE SMOOTH",
"59 233 OFFCURVE",
"12 184 OFFCURVE",
"12 119 CURVE SMOOTH"
);
}
);
userData = {
com.hugojourdan.ColorFlow = {
"0" = 0;
"1" = 0;
"10" = 0;
"11" = 0;
"2" = 0;
"3" = 0;
"4" = 0;
"5" = 0;
"6" = 0;
"7" = 0;
"8" = 0;
"9" = 0;
};
};
width = 783;
}
);
unicode = 018E;
},
{
glyphname = Esh;
lastChange = "2024-03-16 00:22:21 +0000";
layers = (
{
color = 1;
layerId = "61E7180A-0B32-4047-B910-001D8BB62225";
paths = (
{
closed = 1;
nodes = (
"178 448 OFFCURVE",
"133 323 OFFCURVE",
"103 247 CURVE SMOOTH",
"65 150 OFFCURVE",
"37 49 OFFCURVE",
"-24 49 CURVE SMOOTH",
"-48 49 OFFCURVE",
"-72 79 OFFCURVE",
"-78 140 CURVE SMOOTH",
"-79 149 OFFCURVE",
"-80 154 OFFCURVE",
"-85 154 CURVE SMOOTH",
"-87 154 OFFCURVE",
"-91 150 OFFCURVE",
"-92 142 CURVE SMOOTH",
"-94 126 OFFCURVE",
"-94 111 OFFCURVE",
"-93 97 CURVE SMOOTH",
"-86 36 OFFCURVE",
"-55 -5 OFFCURVE",
"-12 -5 CURVE SMOOTH",
"82 -5 OFFCURVE",
"142 181 OFFCURVE",
"167 247 CURVE SMOOTH",
"271 526 LINE SMOOTH",
"307 623 OFFCURVE",
"346 724 OFFCURVE",
"407 724 CURVE SMOOTH",
"436 724 OFFCURVE",
"455 694 OFFCURVE",
"461 633 CURVE SMOOTH",
"462 624 OFFCURVE",
"463 619 OFFCURVE",
"468 619 CURVE SMOOTH",
"473 619 OFFCURVE",
"474 623 OFFCURVE",
"475 631 CURVE SMOOTH",
"477 647 OFFCURVE",
"477 662 OFFCURVE",
"476 676 CURVE SMOOTH",
"469 737 OFFCURVE",
"438 778 OFFCURVE",
"395 778 CURVE SMOOTH",
"301 778 OFFCURVE",
"235 601 OFFCURVE",
"207 526 CURVE SMOOTH"
);
}
);
userData = {
com.hugojourdan.ColorFlow = {
"0" = 0;
"1" = 0;
"10" = 0;
"11" = 0;
"2" = 0;
"3" = 0;
"4" = 0;
"5" = 0;
"6" = 0;
"7" = 0;
"8" = 0;
"9" = 0;
};
};
width = 180;
}
);
unicode = 01A9;
},
{
glyphname = Schwa;
lastChange = "2024-03-16 00:22:22 +0000";
layers = (
{
anchors = (
{
name = bottom;
position = "{273, -43}";
},
{
name = ogonek;
position = "{291, -38}";
},
{
name = top;
position = "{524, 803}";
}
);
layerId = "61E7180A-0B32-4047-B910-001D8BB62225";
paths = (
{
closed = 1;
nodes = (
"329 800 OFFCURVE",
"213 698 OFFCURVE",
"129 520 CURVE SMOOTH",
"127 515 OFFCURVE",
"126 511 OFFCURVE",
"126 508 CURVE SMOOTH",
"126 504 OFFCURVE",
"130 502 OFFCURVE",
"132 502 CURVE SMOOTH",
"139 502 OFFCURVE",
"144 505 OFFCURVE",
"147 511 CURVE",
"218 658 OFFCURVE",
"319 766 OFFCURVE",
"486 766 CURVE SMOOTH",
"629 766 OFFCURVE",
"711 694 OFFCURVE",
"705 530 CURVE SMOOTH",
"701 398 OFFCURVE",
"686 385 OFFCURVE",
"674 348 CURVE",
"593 402 OFFCURVE",
"493 428 OFFCURVE",
"398 428 CURVE SMOOTH",
"174 428 OFFCURVE",
"52 276 OFFCURVE",
"52 141 CURVE SMOOTH",
"52 33 OFFCURVE",
"130 -64 OFFCURVE",
"296 -64 CURVE SMOOTH",
"537 -64 OFFCURVE",
"767 193 OFFCURVE",
"767 492 CURVE SMOOTH",
"767 716 OFFCURVE",
"655 800 OFFCURVE",
"489 800 CURVE SMOOTH"
);
},
{
closed = 1;
nodes = (
"115 50 OFFCURVE",
"115 138 CURVE SMOOTH",
"115 257 OFFCURVE",
"218 397 OFFCURVE",
"431 397 CURVE SMOOTH",
"513 397 OFFCURVE",
"603 364 OFFCURVE",
"664 317 CURVE",
"593 145 OFFCURVE",
"441 -26 OFFCURVE",
"281 -26 CURVE SMOOTH",
"171 -26 OFFCURVE"
);
}
);
userData = {
com.hugojourdan.ColorFlow = {
"0" = 0;
"1" = 0;
"10" = 0;
"11" = 0;
"2" = 0;
"3" = 0;
"4" = 0;
"5" = 0;
"6" = 0;
"7" = 0;
"8" = 0;
"9" = 0;
};
};
width = 765;
}
);
unicode = 018F;
},
{
glyphname = Ezh;
lastChange = "2024-03-16 00:22:22 +0000";
layers = (
{
anchors = (
{
name = bottom;
position = "{239, -25}";
},
{
name = top;
position = "{691, 744}";
}
);
layerId = "61E7180A-0B32-4047-B910-001D8BB62225";
paths = (
{
closed = 1;
nodes = (
"385 -44 OFFCURVE",
"658 61 OFFCURVE",
"658 260 CURVE SMOOTH",
"658 362 OFFCURVE",
"542 422 OFFCURVE",
"444 422 CURVE",
"551 517 OFFCURVE",
"660 612 OFFCURVE",
"721 659 CURVE",
"752 651 OFFCURVE",
"779 646 OFFCURVE",
"796 646 CURVE SMOOTH",
"830 646 OFFCURVE",
"855 669 OFFCURVE",
"855 690 CURVE SMOOTH",
"855 710 OFFCURVE",
"839 730 OFFCURVE",
"802 730 CURVE SMOOTH",
"769 730 OFFCURVE",
"732 703 OFFCURVE",
"711 686 CURVE",
"626 716 OFFCURVE",
"516 764 OFFCURVE",
"418 764 CURVE SMOOTH",
"318 764 OFFCURVE",
"206 717 OFFCURVE",
"206 609 CURVE SMOOTH",
"206 543 OFFCURVE",
"251 506 OFFCURVE",
"275 506 CURVE SMOOTH",
"280 506 OFFCURVE",
"286 507 OFFCURVE",
"286 511 CURVE SMOOTH",
"286 515 OFFCURVE",
"282 519 OFFCURVE",
"273 526 CURVE SMOOTH",
"245 546 OFFCURVE",
"235 569 OFFCURVE",
"235 590 CURVE SMOOTH",
"235 674 OFFCURVE",
"355 712 OFFCURVE",
"449 712 CURVE SMOOTH",
"519 712 OFFCURVE",
"614 686 OFFCURVE",
"690 667 CURVE",
"652 636 OFFCURVE",
"566 558 OFFCURVE",
"549 543 CURVE SMOOTH",
"505 505 OFFCURVE",
"384 404 OFFCURVE",
"378 397 CURVE",
"378 388 OFFCURVE",
"380 380 OFFCURVE",
"384 380 CURVE SMOOTH",
"391 380 OFFCURVE",
"400 383 OFFCURVE",
"421 383 CURVE SMOOTH",
"493 383 OFFCURVE",
"575 333 OFFCURVE",
"575 253 CURVE SMOOTH",
"575 87 OFFCURVE",
"345 -13 OFFCURVE",
"202 -13 CURVE SMOOTH",
"128 -13 OFFCURVE",
"72 14 OFFCURVE",
"72 72 CURVE SMOOTH",
"72 135 OFFCURVE",
"182 240 OFFCURVE",
"299 240 CURVE SMOOTH",
"348 239 OFFCURVE",
"357 251 OFFCURVE",
"357 262 CURVE SMOOTH",
"357 269 OFFCURVE",
"351 273 OFFCURVE",
"336 273 CURVE SMOOTH",
"320 273 OFFCURVE",
"286 270 OFFCURVE",
"233 249 CURVE SMOOTH",
"114 201 OFFCURVE",
"19 142 OFFCURVE",
"19 58 CURVE SMOOTH",
"19 -11 OFFCURVE",
"99 -44 OFFCURVE",
"202 -44 CURVE SMOOTH"
);
},
{
closed = 1;
nodes = (
"778 662 OFFCURVE",
"759 665 OFFCURVE",
"735 674 CURVE",
"750 686 OFFCURVE",
"778 707 OFFCURVE",
"802 707 CURVE SMOOTH",
"817 707 OFFCURVE",
"829 697 OFFCURVE",
"829 686 CURVE SMOOTH",
"829 672 OFFCURVE",
"815 662 OFFCURVE",
"793 662 CURVE SMOOTH"
);
}
);
userData = {
com.hugojourdan.ColorFlow = {
"0" = 0;
"1" = 0;
"10" = 0;
"11" = 0;
"2" = 0;
"3" = 0;
"4" = 0;
"5" = 0;
"6" = 0;
"7" = 0;
"8" = 0;
"9" = 0;
};
};
width = 670;
}
);
unicode = 01B7;
},
{
glyphname = Ezhreversed;
lastChange = "2024-03-16 00:22:22 +0000";
layers = (
{
layerId = "61E7180A-0B32-4047-B910-001D8BB62225";
paths = (
{
closed = 1;
nodes = (
"269 753 OFFCURVE",
"262 747 OFFCURVE",
"260 740 CURVE",
"260 719 OFFCURVE",
"296 690 OFFCURVE",
"305 680 CURVE SMOOTH",
"338 647 OFFCURVE",
"396 553 OFFCURVE",
"452 460 CURVE SMOOTH",
"459 449 OFFCURVE",
"468 429 OFFCURVE",
"479 412 CURVE",
"449 412 LINE SMOOTH",
"295 412 OFFCURVE",
"56 291 OFFCURVE",
"56 135 CURVE SMOOTH",
"56 42 OFFCURVE",
"139 -22 OFFCURVE",
"339 -23 CURVE SMOOTH",
"474 -23 OFFCURVE",
"663 37 OFFCURVE",
"663 151 CURVE SMOOTH",
"663 214 OFFCURVE",
"588 254 OFFCURVE",
"557 254 CURVE SMOOTH",
"548 254 OFFCURVE",
"544 250 OFFCURVE",
"544 247 CURVE SMOOTH",
"544 241 OFFCURVE",
"551 233 OFFCURVE",
"569 233 CURVE SMOOTH",
"596 233 OFFCURVE",
"627 200 OFFCURVE",
"627 164 CURVE SMOOTH",
"627 64 OFFCURVE",
"464 2 OFFCURVE",
"338 2 CURVE SMOOTH",
"212 2 OFFCURVE",
"134 64 OFFCURVE",
"134 137 CURVE SMOOTH",
"134 297 OFFCURVE",
"373 368 OFFCURVE",
"562 365 CURVE",
"562 365 OFFCURVE",
"552 399 OFFCURVE",
"529 409 CURVE",
"479 466 OFFCURVE",
"356 674 OFFCURVE",
"348 682 CURVE",
"374 692 OFFCURVE",
"576 699 OFFCURVE",
"595 699 CURVE SMOOTH",
"612 699 OFFCURVE",
"652 699 OFFCURVE",
"667 695 CURVE SMOOTH",
"697 686 OFFCURVE",
"702 665 OFFCURVE",
"702 635 CURVE SMOOTH",
"702 617 OFFCURVE",
"700 596 OFFCURVE",
"700 574 CURVE SMOOTH",
"700 571 OFFCURVE",
"703 568 OFFCURVE",
"706 568 CURVE SMOOTH",
"712 568 OFFCURVE",
"716 573 OFFCURVE",
"716 579 CURVE SMOOTH",
"719 610 OFFCURVE",
"722 639 OFFCURVE",
"722 664 CURVE SMOOTH",
"722 715 OFFCURVE",
"710 749 OFFCURVE",
"665 749 CURVE SMOOTH",
"594 749 OFFCURVE",
"369 735 OFFCURVE",
"342 735 CURVE SMOOTH",
"319 735 OFFCURVE",
"305 753 OFFCURVE",
"281 753 CURVE SMOOTH"
);
}
);
userData = {
com.hugojourdan.ColorFlow = {
"0" = 0;
"1" = 0;
"10" = 0;
"11" = 0;
"2" = 0;
"3" = 0;
"4" = 0;
"5" = 0;
"6" = 0;
"7" = 0;
"8" = 0;
"9" = 0;
};
};
width = 680;
}
);
unicode = 01B8;
},
{
glyphname = F;
lastChange = "2024-03-16 00:22:22 +0000";
layers = (
{
anchors = (
{
name = bottom;
position = "{527, 0}";
},
{
name = top;
position = "{1052, 714}";
}
);
layerId = "61E7180A-0B32-4047-B910-001D8BB62225";
paths = (
{
closed = 1;
nodes = (
"538 -101 OFFCURVE",
"766 -52 OFFCURVE",
"879 212 CURVE SMOOTH",
"995 482 OFFCURVE",
"1031 685 OFFCURVE",
"1124 685 CURVE SMOOTH",
"1135 685 OFFCURVE",
"1138 693 OFFCURVE",
"1138 699 CURVE SMOOTH",
"1138 703 OFFCURVE",
"1135 709 OFFCURVE",
"1124 709 CURVE SMOOTH",
"1046 709 OFFCURVE",
"964 516 OFFCURVE",
"834 253 CURVE SMOOTH",
"750 82 OFFCURVE",
"589 -73 OFFCURVE",
"388 -73 CURVE SMOOTH",
"213 -73 OFFCURVE",
"82 19 OFFCURVE",
"82 174 CURVE SMOOTH",
"82 269 OFFCURVE",
"120 351 OFFCURVE",
"189 392 CURVE SMOOTH",
"192 394 OFFCURVE",
"194 397 OFFCURVE",
"194 400 CURVE SMOOTH",
"194 403 OFFCURVE",
"192 406 OFFCURVE",
"187 405 CURVE SMOOTH",
"99 383 OFFCURVE",
"26 285 OFFCURVE",
"26 162 CURVE SMOOTH",
"26 10 OFFCURVE",
"168 -101 OFFCURVE",
"388 -101 CURVE SMOOTH"
);
},
{
closed = 1;
nodes = (
"625 250 OFFCURVE",
"625 255 OFFCURVE",
"634 265 CURVE SMOOTH",
"668 306 OFFCURVE",
"737 313 OFFCURVE",
"792 313 CURVE SMOOTH",
"813 313 OFFCURVE",
"929 306 OFFCURVE",
"964 306 CURVE SMOOTH",
"1014 306 OFFCURVE",
"1068 309 OFFCURVE",
"1088 314 CURVE SMOOTH",
"1103 318 OFFCURVE",
"1111 323 OFFCURVE",
"1111 328 CURVE SMOOTH",
"1111 332 OFFCURVE",
"1108 334 OFFCURVE",
"1101 334 CURVE SMOOTH",
"1049 334 OFFCURVE",
"947 340 OFFCURVE",
"887 347 CURVE SMOOTH",
"835 353 OFFCURVE",
"788 359 OFFCURVE",
"774 359 CURVE SMOOTH",
"705 359 OFFCURVE",
"646 339 OFFCURVE",
"615 271 CURVE SMOOTH",
"610 260 OFFCURVE",
"615 250 OFFCURVE",
"621 250 CURVE SMOOTH"
);
},
{
closed = 1;
nodes = (
"595 325 OFFCURVE",
"671 377 OFFCURVE",
"684 466 CURVE SMOOTH",
"685 475 OFFCURVE",
"680 480 OFFCURVE",
"674 480 CURVE SMOOTH",
"668 480 OFFCURVE",
"665 476 OFFCURVE",
"662 464 CURVE SMOOTH",
"653 430 OFFCURVE",
"603 352 OFFCURVE",
"518 352 CURVE SMOOTH",
"459 352 OFFCURVE",
"400 383 OFFCURVE",
"400 471 CURVE SMOOTH",
"400 576 OFFCURVE",
"517 690 OFFCURVE",
"702 690 CURVE SMOOTH",
"964 690 OFFCURVE",
"1151 558 OFFCURVE",
"1317 558 CURVE SMOOTH",
"1379 558 OFFCURVE",
"1417 580 OFFCURVE",
"1417 612 CURVE SMOOTH",
"1417 624 OFFCURVE",
"1410 634 OFFCURVE",
"1403 634 CURVE SMOOTH",
"1399 634 OFFCURVE",
"1396 631 OFFCURVE",
"1396 623 CURVE SMOOTH",
"1396 600 OFFCURVE",
"1383 587 OFFCURVE",
"1324 587 CURVE SMOOTH",
"1147 587 OFFCURVE",
"887 743 OFFCURVE",
"674 743 CURVE SMOOTH",
"453 743 OFFCURVE",
"351 611 OFFCURVE",
"351 495 CURVE SMOOTH",
"351 387 OFFCURVE",
"434 325 OFFCURVE",
"516 325 CURVE SMOOTH"
);
}
);
userData = {
com.hugojourdan.ColorFlow = {
"0" = 0;
"1" = 0;
"10" = 0;
"11" = 0;
"2" = 0;
"3" = 0;
"4" = 0;
"5" = 0;
"6" = 0;
"7" = 0;
"8" = 0;
"9" = 0;
};
};
width = 1053;
}
);
note = F;
unicode = 0046;
userData = {
KernOnName = F;
};
},
{
color = 4;
glyphname = Fhook;
lastChange = "2024-03-16 00:22:22 +0000";
layers = (
{
layerId = "61E7180A-0B32-4047-B910-001D8BB62225";
paths = (
{
closed = 1;
nodes = (
"167 -380 OFFCURVE",
"355 -231 OFFCURVE",
"478 10 CURVE SMOOTH",
"572 194 OFFCURVE",
"689 536 OFFCURVE",
"738 619 CURVE SMOOTH",
"771 675 OFFCURVE",
"790 685 OFFCURVE",
"817 685 CURVE SMOOTH",
"827 685 OFFCURVE",
"831 690 OFFCURVE",
"831 697 CURVE SMOOTH",
"831 706 OFFCURVE",
"824 709 OFFCURVE",
"811 709 CURVE SMOOTH",
"777 709 OFFCURVE",
"752 676 OFFCURVE",
"722 635 CURVE SMOOTH",
"693 596 OFFCURVE",
"599 389 OFFCURVE",
"469 126 CURVE SMOOTH",
"321 -173 OFFCURVE",
"154 -354 OFFCURVE",
"-49 -354 CURVE SMOOTH",
"-108 -354 OFFCURVE",
"-136 -331 OFFCURVE",
"-136 -303 CURVE SMOOTH",
"-136 -212 OFFCURVE",
"66 -133 OFFCURVE",
"159 -126 CURVE SMOOTH",
"169 -125 OFFCURVE",
"173 -121 OFFCURVE",
"173 -116 CURVE SMOOTH",
"173 -112 OFFCURVE",
"166 -109 OFFCURVE",
"157 -108 CURVE SMOOTH",
"93 -99 OFFCURVE",
"-215 -165 OFFCURVE",
"-215 -295 CURVE SMOOTH",
"-215 -347 OFFCURVE",
"-164 -380 OFFCURVE",
"-54 -380 CURVE SMOOTH"
);
},
{
closed = 1;
nodes = (
"349 252 OFFCURVE",
"353 258 OFFCURVE",
"357 264 CURVE SMOOTH",
"386 305 OFFCURVE",
"461 315 OFFCURVE",
"496 315 CURVE SMOOTH",
"537 315 OFFCURVE",
"653 304 OFFCURVE",
"688 304 CURVE SMOOTH",
"738 304 OFFCURVE",
"792 309 OFFCURVE",
"812 314 CURVE SMOOTH",
"827 318 OFFCURVE",
"835 323 OFFCURVE",
"835 327 CURVE SMOOTH",
"835 331 OFFCURVE",
"829 334 OFFCURVE",
"815 334 CURVE SMOOTH",
"649 334 OFFCURVE",
"576 357 OFFCURVE",
"498 357 CURVE SMOOTH",
"429 357 OFFCURVE",
"370 339 OFFCURVE",
"339 271 CURVE SMOOTH",
"334 260 OFFCURVE",
"341 252 OFFCURVE",
"346 252 CURVE SMOOTH"
);
},
{
closed = 1;
nodes = (
"291 325 OFFCURVE",
"369 379 OFFCURVE",
"380 466 CURVE",
"380 475 OFFCURVE",
"376 480 OFFCURVE",
"370 480 CURVE SMOOTH",
"367 480 OFFCURVE",
"363 478 OFFCURVE",
"360 474 CURVE",
"360 473 LINE SMOOTH",
"360 449 OFFCURVE",
"309 352 OFFCURVE",
"214 352 CURVE SMOOTH",
"155 352 OFFCURVE",
"96 383 OFFCURVE",
"96 474 CURVE SMOOTH",
"96 594 OFFCURVE",
"226 690 OFFCURVE",
"391 690 CURVE SMOOTH",
"618 690 OFFCURVE",
"866 558 OFFCURVE",
"1024 558 CURVE SMOOTH",
"1075 558 OFFCURVE",
"1113 580 OFFCURVE",
"1113 612 CURVE SMOOTH",
"1113 618 OFFCURVE",
"1110 634 OFFCURVE",
"1104 634 CURVE SMOOTH",
"1094 634 OFFCURVE",
"1092 627 OFFCURVE",
"1092 619 CURVE SMOOTH",
"1092 597 OFFCURVE",
"1068 589 OFFCURVE",
"1008 589 CURVE SMOOTH",
"839 589 OFFCURVE",
"599 743 OFFCURVE",
"360 743 CURVE SMOOTH",
"149 743 OFFCURVE",
"47 611 OFFCURVE",
"47 495 CURVE SMOOTH",
"47 387 OFFCURVE",
"130 325 OFFCURVE",
"212 325 CURVE SMOOTH"
);
}
);
userData = {
com.hugojourdan.ColorFlow = {
"0" = 0;
"1" = 0;
"10" = 0;
"11" = 0;
"2" = 0;
"3" = 0;
"4" = 0;
"5" = 0;
"6" = 0;
"7" = 0;
"8" = 0;
"9" = 0;
};
};
width = 757;
}
);
unicode = 0191;
},
{
glyphname = G;
lastChange = "2024-03-16 00:22:22 +0000";
layers = (
{
anchors = (
{
name = bottom;
position = "{86, -352}";
},
{
name = top;
position = "{605, 830}";
}
);
layerId = "61E7180A-0B32-4047-B910-001D8BB62225";
paths = (
{
closed = 1;
nodes = (
"213 -376 OFFCURVE",
"429 -272 OFFCURVE",
"540 -112 CURVE",
"620 -112 OFFCURVE",
"720 -119 OFFCURVE",
"766 -131 CURVE SMOOTH",
"773 -133 OFFCURVE",
"779 -134 OFFCURVE",
"783 -134 CURVE SMOOTH",
"791 -134 OFFCURVE",
"795 -131 OFFCURVE",
"795 -127 CURVE SMOOTH",
"795 -123 OFFCURVE",
"790 -116 OFFCURVE",
"774 -112 CURVE SMOOTH",
"715 -98 OFFCURVE",
"643 -88 OFFCURVE",
"553 -87 CURVE",
"627 34 OFFCURVE",
"676 132 OFFCURVE",
"690 243 CURVE SMOOTH",
"694 274 OFFCURVE",
"677 293 OFFCURVE",
"657 293 CURVE SMOOTH",
"633 293 OFFCURVE",
"601 269 OFFCURVE",
"571 200 CURVE SMOOTH",
"547 143 OFFCURVE",
"413 59 OFFCURVE",
"293 59 CURVE SMOOTH",
"182 59 OFFCURVE",
"111 131 OFFCURVE",
"111 266 CURVE SMOOTH",
"111 325 OFFCURVE",
"126 393 OFFCURVE",
"159 464 CURVE",
"224 421 OFFCURVE",
"326 393 OFFCURVE",
"423 394 CURVE SMOOTH",
"672 398 OFFCURVE",
"799 526 OFFCURVE",
"799 641 CURVE SMOOTH",
"799 762 OFFCURVE",
"712 822 OFFCURVE",
"574 822 CURVE SMOOTH",
"365 822 OFFCURVE",
"181 678 OFFCURVE",
"113 531 CURVE",
"80 570 OFFCURVE",
"61 616 OFFCURVE",
"61 663 CURVE SMOOTH",
"61 704 OFFCURVE",
"75 746 OFFCURVE",
"106 784 CURVE SMOOTH",
"111 790 OFFCURVE",
"113 795 OFFCURVE",
"113 798 CURVE SMOOTH",
"113 801 OFFCURVE",
"111 802 OFFCURVE",
"109 802 CURVE SMOOTH",
"105 802 OFFCURVE",
"98 799 OFFCURVE",
"92 792 CURVE SMOOTH",
"49 748 OFFCURVE",
"30 700 OFFCURVE",
"30 652 CURVE SMOOTH",
"30 597 OFFCURVE",
"55 544 OFFCURVE",
"96 501 CURVE",
"60 426 OFFCURVE",
"45 354 OFFCURVE",
"45 291 CURVE SMOOTH",
"45 133 OFFCURVE",
"132 23 OFFCURVE",
"274 23 CURVE SMOOTH",
"417 23 OFFCURVE",
"559 130 OFFCURVE",
"610 177 CURVE",
"606 161 LINE SMOOTH",
"582 64 OFFCURVE",
"553 -3 OFFCURVE",
"504 -87 CURVE",
"441 -88 OFFCURVE",
"351 -94 OFFCURVE",
"290 -103 CURVE SMOOTH",
"181 -118 OFFCURVE",
"-46 -191 OFFCURVE",
"-46 -298 CURVE SMOOTH",
"-46 -343 OFFCURVE",
"3 -376 OFFCURVE",
"82 -376 CURVE SMOOTH"
);
},
{
closed = 1;
nodes = (
"32 -350 OFFCURVE",
"13 -329 OFFCURVE",
"13 -305 CURVE SMOOTH",
"13 -221 OFFCURVE",
"218 -143 OFFCURVE",
"301 -130 CURVE SMOOTH",
"362 -120 OFFCURVE",
"424 -116 OFFCURVE",
"488 -114 CURVE",
"382 -266 OFFCURVE",
"184 -350 OFFCURVE",
"80 -350 CURVE SMOOTH"
);
},
{
closed = 1;
nodes = (
"308 424 OFFCURVE",
"226 449 OFFCURVE",
"172 491 CURVE",
"253 646 OFFCURVE",
"406 798 OFFCURVE",
"587 798 CURVE SMOOTH",
"672 798 OFFCURVE",
"755 745 OFFCURVE",
"755 657 CURVE SMOOTH",
"755 528 OFFCURVE",
"576 424 OFFCURVE",
"396 424 CURVE SMOOTH"
);
}
);
userData = {
com.hugojourdan.ColorFlow = {
"0" = 0;
"1" = 0;
"10" = 0;
"11" = 0;
"2" = 0;
"3" = 0;
"4" = 0;
"5" = 0;
"6" = 0;
"7" = 0;
"8" = 0;
"9" = 0;
};
};
width = 702;
}
);
note = G;
unicode = 0047;
userData = {
KernOnName = G;
};
},
{
glyphname = Ghook;
lastChange = "2024-03-16 00:22:22 +0000";
layers = (
{
anchors = (
{
name = bottom;
position = "{86, -352}";
},
{
name = top;
position = "{605, 825}";
}
);
layerId = "61E7180A-0B32-4047-B910-001D8BB62225";
paths = (
{
closed = 1;
nodes = (
"213 -376 OFFCURVE",
"429 -272 OFFCURVE",
"540 -112 CURVE",
"620 -112 OFFCURVE",
"718 -119 OFFCURVE",
"755 -128 CURVE SMOOTH",
"774 -133 OFFCURVE",
"781 -135 OFFCURVE",
"786 -135 CURVE SMOOTH",
"791 -135 OFFCURVE",
"795 -131 OFFCURVE",
"795 -127 CURVE SMOOTH",
"795 -123 OFFCURVE",
"790 -116 OFFCURVE",
"764 -110 CURVE SMOOTH",
"715 -98 OFFCURVE",
"643 -88 OFFCURVE",
"553 -87 CURVE",
"627 34 OFFCURVE",
"676 132 OFFCURVE",
"690 243 CURVE SMOOTH",
"694 274 OFFCURVE",
"677 293 OFFCURVE",
"657 293 CURVE SMOOTH",
"633 293 OFFCURVE",
"601 269 OFFCURVE",
"571 200 CURVE SMOOTH",
"547 143 OFFCURVE",
"413 59 OFFCURVE",
"293 59 CURVE SMOOTH",
"182 59 OFFCURVE",
"111 131 OFFCURVE",
"111 266 CURVE SMOOTH",
"111 446 OFFCURVE",
"233 678 OFFCURVE",
"431 732 CURVE",
"429 719 OFFCURVE",
"428 706 OFFCURVE",
"428 694 CURVE SMOOTH",
"428 582 OFFCURVE",
"503 538 OFFCURVE",
"585 538 CURVE SMOOTH",
"677 538 OFFCURVE",
"730 592 OFFCURVE",
"730 648 CURVE SMOOTH",
"730 713 OFFCURVE",
"658 783 OFFCURVE",
"502 783 CURVE SMOOTH",
"238 783 OFFCURVE",
"45 548 OFFCURVE",
"45 291 CURVE SMOOTH",
"45 133 OFFCURVE",
"132 23 OFFCURVE",
"274 23 CURVE SMOOTH",
"417 23 OFFCURVE",
"559 130 OFFCURVE",
"610 177 CURVE",
"606 161 LINE SMOOTH",
"582 64 OFFCURVE",
"553 -3 OFFCURVE",
"504 -87 CURVE",
"441 -88 OFFCURVE",
"351 -94 OFFCURVE",
"290 -103 CURVE SMOOTH",
"106 -129 OFFCURVE",
"-48 -222 OFFCURVE",
"-48 -295 CURVE SMOOTH",
"-48 -340 OFFCURVE",
"13 -376 OFFCURVE",
"83 -376 CURVE SMOOTH"
);
},
{
closed = 1;
nodes = (
"38 -345 OFFCURVE",
"3 -332 OFFCURVE",
"3 -304 CURVE SMOOTH",
"3 -246 OFFCURVE",
"169 -151 OFFCURVE",
"301 -130 CURVE SMOOTH",
"362 -120 OFFCURVE",
"424 -116 OFFCURVE",
"488 -114 CURVE",
"382 -266 OFFCURVE",
"186 -345 OFFCURVE",
"89 -345 CURVE SMOOTH"
);
},
{
closed = 1;
nodes = (
"517 568 OFFCURVE",
"462 602 OFFCURVE",
"462 700 CURVE SMOOTH",
"462 712 OFFCURVE",
"463 725 OFFCURVE",
"465 739 CURVE",
"484 742 OFFCURVE",
"500 744 OFFCURVE",
"520 744 CURVE SMOOTH",
"635 744 OFFCURVE",
"681 693 OFFCURVE",
"681 646 CURVE SMOOTH",
"681 606 OFFCURVE",
"643 568 OFFCURVE",
"583 568 CURVE SMOOTH"
);
},
{
closed = 1;
nodes = (
"467 749 LINE",
"486 817 OFFCURVE",
"532 903 OFFCURVE",
"593 903 CURVE SMOOTH",
"617 903 OFFCURVE",
"635 882 OFFCURVE",
"635 857 CURVE SMOOTH",
"635 840 OFFCURVE",
"630 821 OFFCURVE",
"625 808 CURVE SMOOTH",
"622 800 OFFCURVE",
"626 795 OFFCURVE",
"631 795 CURVE SMOOTH",
"636 795 OFFCURVE",
"641 797 OFFCURVE",
"645 803 CURVE SMOOTH",
"655 816 OFFCURVE",
"663 839 OFFCURVE",
"663 867 CURVE SMOOTH",
"663 918 OFFCURVE",
"634 974 OFFCURVE",
"583 974 CURVE SMOOTH",
"502 974 OFFCURVE",
"452 840 OFFCURVE",
"431 746 CURVE"
);
}
);
userData = {
com.hugojourdan.ColorFlow = {
"0" = 0;
"1" = 0;
"10" = 0;
"11" = 0;
"2" = 0;
"3" = 0;
"4" = 0;
"5" = 0;
"6" = 0;
"7" = 0;
"8" = 0;
"9" = 0;
};
};
width = 702;
}
);
unicode = 0193;
},
{
glyphname = Glottalstop;
lastChange = "2024-03-16 00:22:22 +0000";
layers = (
{
layerId = "61E7180A-0B32-4047-B910-001D8BB62225";
paths = (
{
closed = 1;
nodes = (
"139 250 OFFCURVE",
"574 409 OFFCURVE",
"574 653 CURVE SMOOTH",
"574 756 OFFCURVE",
"496 800 OFFCURVE",
"404 800 CURVE SMOOTH",
"265 800 OFFCURVE",
"92 701 OFFCURVE",
"88 546 CURVE SMOOTH",
"88 529 OFFCURVE",
"93 522 OFFCURVE",
"99 522 CURVE SMOOTH",
"106 522 OFFCURVE",
"114 532 OFFCURVE",
"114 545 CURVE SMOOTH",
"114 656 OFFCURVE",
"261 754 OFFCURVE",
"376 754 CURVE SMOOTH",
"442 754 OFFCURVE",
"499 724 OFFCURVE",
"499 641 CURVE SMOOTH",
"499 437 OFFCURVE",
"118 250 OFFCURVE",
"118 11 CURVE SMOOTH",
"118 1 OFFCURVE",
"119 -9 OFFCURVE",
"127 -9 CURVE",
"127 -9 OFFCURVE",
"139 -7 OFFCURVE",
"139 0 CURVE SMOOTH"
);
}
);
userData = {
com.hugojourdan.ColorFlow = {
"0" = 0;
"1" = 0;
"10" = 0;
"11" = 0;
"2" = 0;
"3" = 0;
"4" = 0;
"5" = 0;
"6" = 0;
"7" = 0;
"8" = 0;
"9" = 0;
};
};
width = 425;
}
);
unicode = 0241;
},
{
glyphname = H;
lastChange = "2024-03-16 00:22:22 +0000";
layers = (
{
anchors = (
{
name = bottom;
position = "{989, 0}";
},
{
name = cedilla;
position = "{332, -148}";
},
{
name = center;
position = "{694, 209}";
},
{
name = top;
position = "{1322, 800}";
},
{
name = topleft;
position = "{20, 706}";
}
);
layerId = "61E7180A-0B32-4047-B910-001D8BB62225";
paths = (
{
closed = 1;
nodes = (
"613 -173 OFFCURVE",
"818 60 OFFCURVE",
"899 294 CURVE SMOOTH",
"929 380 OFFCURVE",
"1016 627 OFFCURVE",
"1053 701 CURVE",
"1107 708 OFFCURVE",
"1173 728 OFFCURVE",
"1173 776 CURVE SMOOTH",
"1173 797 OFFCURVE",
"1156 807 OFFCURVE",
"1136 807 CURVE SMOOTH",
"1095 807 OFFCURVE",
"1057 759 OFFCURVE",
"1037 724 CURVE",
"931 713 OFFCURVE",
"786 716 OFFCURVE",
"665 680 CURVE SMOOTH",
"538 643 OFFCURVE",
"443 556 OFFCURVE",
"443 429 CURVE SMOOTH",
"443 338 OFFCURVE",
"512 267 OFFCURVE",
"596 267 CURVE SMOOTH",
"690 267 OFFCURVE",
"761 355 OFFCURVE",
"761 436 CURVE SMOOTH",
"761 460 OFFCURVE",
"756 491 OFFCURVE",
"739 491 CURVE SMOOTH",
"736 491 OFFCURVE",
"733 489 OFFCURVE",
"733 484 CURVE",
"736 478 OFFCURVE",
"740 465 OFFCURVE",
"740 449 CURVE SMOOTH",
"740 374 OFFCURVE",
"684 288 OFFCURVE",
"605 288 CURVE SMOOTH",
"546 288 OFFCURVE",
"507 336 OFFCURVE",
"507 401 CURVE SMOOTH",
"507 505 OFFCURVE",
"561 593 OFFCURVE",
"686 645 CURVE SMOOTH",
"787 687 OFFCURVE",
"914 687 OFFCURVE",
"1024 700 CURVE",
"1002 657 OFFCURVE",
"914 465 OFFCURVE",
"862 332 CURVE SMOOTH",
"767 90 OFFCURVE",
"569 -109 OFFCURVE",
"277 -109 CURVE SMOOTH",
"174 -109 OFFCURVE",
"24 -67 OFFCURVE",
"24 108 CURVE SMOOTH",
"24 217 OFFCURVE",
"76 285 OFFCURVE",
"126 298 CURVE SMOOTH",
"136 301 OFFCURVE",
"139 305 OFFCURVE",
"139 308 CURVE SMOOTH",
"139 312 OFFCURVE",
"136 314 OFFCURVE",
"127 314 CURVE SMOOTH",
"57 314 OFFCURVE",
"-8 211 OFFCURVE",
"-8 99 CURVE SMOOTH",
"-8 -109 OFFCURVE",
"152 -173 OFFCURVE",
"308 -173 CURVE SMOOTH"
);
},
{
closed = 1;
nodes = (
"1342 -42 OFFCURVE",
"1417 73 OFFCURVE",
"1466 184 CURVE",
"1466 190 OFFCURVE",
"1463 193 OFFCURVE",
"1454 193 CURVE",
"1413 93 OFFCURVE",
"1337 -4 OFFCURVE",
"1286 -4 CURVE SMOOTH",
"1257 -4 OFFCURVE",
"1248 29 OFFCURVE",
"1248 58 CURVE SMOOTH",
"1248 138 OFFCURVE",
"1281 237 OFFCURVE",
"1312 326 CURVE SMOOTH",
"1393 559 OFFCURVE",
"1510 743 OFFCURVE",
"1530 753 CURVE SMOOTH",
"1540 758 OFFCURVE",
"1544 761 OFFCURVE",
"1544 763 CURVE SMOOTH",
"1544 764 OFFCURVE",
"1542 765 OFFCURVE",
"1538 765 CURVE SMOOTH",
"1528 765 OFFCURVE",
"1511 761 OFFCURVE",
"1483 752 CURVE SMOOTH",
"1441 738 OFFCURVE",
"1368 618 OFFCURVE",
"1286 417 CURVE SMOOTH",
"1229 276 OFFCURVE",
"1184 132 OFFCURVE",
"1184 53 CURVE SMOOTH",
"1184 -10 OFFCURVE",
"1214 -42 OFFCURVE",
"1258 -42 CURVE SMOOTH"
);
},
{
closed = 1;
nodes = (
"1348 321 OFFCURVE",
"1386 335 OFFCURVE",
"1412 354 CURVE SMOOTH",
"1418 359 OFFCURVE",
"1420 362 OFFCURVE",
"1420 364 CURVE SMOOTH",
"1420 366 OFFCURVE",
"1419 369 OFFCURVE",
"1415 369 CURVE SMOOTH",
"1410 369 OFFCURVE",
"1400 363 OFFCURVE",
"1385 361 CURVE SMOOTH",
"1367 358 OFFCURVE",
"1311 358 OFFCURVE",
"1290 358 CURVE SMOOTH",
"1237 358 OFFCURVE",
"1016 370 OFFCURVE",
"918 375 CURVE SMOOTH",
"885 377 OFFCURVE",
"845 376 OFFCURVE",
"827 375 CURVE SMOOTH",
"799 373 OFFCURVE",
"777 348 OFFCURVE",
"777 329 CURVE SMOOTH",
"777 324 OFFCURVE",
"779 321 OFFCURVE",
"783 321 CURVE SMOOTH",
"791 321 OFFCURVE",
"802 324 OFFCURVE",
"816 329 CURVE SMOOTH",
"832 335 OFFCURVE",
"850 338 OFFCURVE",
"881 338 CURVE SMOOTH",
"936 338 OFFCURVE",
"1240 321 OFFCURVE",
"1283 321 CURVE SMOOTH"
);
},
{
closed = 1;
nodes = (
"1076 732 OFFCURVE",
"1080 740 OFFCURVE",
"1086 748 CURVE SMOOTH",
"1099 767 OFFCURVE",
"1113 774 OFFCURVE",
"1123 774 CURVE SMOOTH",
"1131 774 OFFCURVE",
"1137 769 OFFCURVE",
"1137 762 CURVE SMOOTH",
"1137 754 OFFCURVE",
"1128 742 OFFCURVE",
"1104 734 CURVE SMOOTH",
"1095 731 OFFCURVE",
"1085 728 OFFCURVE",
"1072 726 CURVE"
);
}
);
userData = {
com.hugojourdan.ColorFlow = {
"0" = 0;
"1" = 0;
"10" = 0;
"11" = 0;
"2" = 0;
"3" = 0;
"4" = 0;
"5" = 0;
"6" = 0;
"7" = 0;
"8" = 0;
"9" = 0;
};
};
width = 1395;
}
);
note = H;
unicode = 0048;
userData = {
KernOnName = H;
};
},
{
glyphname = Hbar;
lastChange = "2024-03-16 00:22:22 +0000";
layers = (
{
anchors = (
{
name = bottom;
position = "{989, 0}";
},
{
name = cedilla;
position = "{332, -148}";
},
{
name = center;
position = "{694, 209}";
},
{
name = top;
position = "{1322, 800}";
},
{
name = topleft;
position = "{20, 706}";
}
);
color = 9;
layerId = "61E7180A-0B32-4047-B910-001D8BB62225";
paths = (
{
closed = 1;
nodes = (
"613 -173 OFFCURVE",
"818 60 OFFCURVE",
"899 294 CURVE SMOOTH",
"929 380 OFFCURVE",
"1016 627 OFFCURVE",
"1053 701 CURVE",
"1107 708 OFFCURVE",
"1173 728 OFFCURVE",
"1173 776 CURVE SMOOTH",
"1173 797 OFFCURVE",
"1156 807 OFFCURVE",
"1136 807 CURVE SMOOTH",
"1095 807 OFFCURVE",
"1057 759 OFFCURVE",
"1037 724 CURVE",
"931 713 OFFCURVE",
"786 716 OFFCURVE",
"665 680 CURVE SMOOTH",
"538 643 OFFCURVE",
"443 556 OFFCURVE",
"443 429 CURVE SMOOTH",
"443 338 OFFCURVE",
"512 267 OFFCURVE",
"596 267 CURVE SMOOTH",
"690 267 OFFCURVE",
"761 355 OFFCURVE",
"761 436 CURVE SMOOTH",
"761 460 OFFCURVE",
"756 491 OFFCURVE",
"739 491 CURVE SMOOTH",
"736 491 OFFCURVE",
"733 489 OFFCURVE",
"733 484 CURVE",
"736 478 OFFCURVE",
"740 465 OFFCURVE",
"740 449 CURVE SMOOTH",
"740 374 OFFCURVE",
"684 288 OFFCURVE",
"605 288 CURVE SMOOTH",
"546 288 OFFCURVE",
"507 336 OFFCURVE",
"507 401 CURVE SMOOTH",
"507 505 OFFCURVE",
"561 593 OFFCURVE",
"686 645 CURVE SMOOTH",
"787 687 OFFCURVE",
"914 687 OFFCURVE",
"1024 700 CURVE",
"1002 657 OFFCURVE",
"914 465 OFFCURVE",
"862 332 CURVE SMOOTH",
"767 90 OFFCURVE",
"569 -109 OFFCURVE",
"277 -109 CURVE SMOOTH",
"174 -109 OFFCURVE",
"24 -67 OFFCURVE",
"24 108 CURVE SMOOTH",
"24 222 OFFCURVE",
"90 293 OFFCURVE",
"129 299 CURVE SMOOTH",
"136 300 OFFCURVE",
"139 305 OFFCURVE",
"139 309 CURVE SMOOTH",
"139 312 OFFCURVE",
"136 314 OFFCURVE",
"127 314 CURVE SMOOTH",
"57 314 OFFCURVE",
"-8 211 OFFCURVE",
"-8 99 CURVE SMOOTH",
"-8 -109 OFFCURVE",
"152 -173 OFFCURVE",
"308 -173 CURVE SMOOTH"
);
},
{
closed = 1;
nodes = (
"1509 489 LINE SMOOTH",
"1531 489 OFFCURVE",
"1541 501 OFFCURVE",
"1541 519 CURVE",
"858 519 LINE SMOOTH",
"835 519 OFFCURVE",
"825 507 OFFCURVE",
"822 489 CURVE"
);
},
{
closed = 1;
nodes = (
"1342 -42 OFFCURVE",
"1417 73 OFFCURVE",
"1466 184 CURVE",
"1466 190 OFFCURVE",
"1463 193 OFFCURVE",
"1454 193 CURVE",
"1413 93 OFFCURVE",
"1337 -4 OFFCURVE",
"1286 -4 CURVE SMOOTH",
"1257 -4 OFFCURVE",
"1248 29 OFFCURVE",
"1248 58 CURVE SMOOTH",
"1248 138 OFFCURVE",
"1281 237 OFFCURVE",
"1312 326 CURVE SMOOTH",
"1393 559 OFFCURVE",
"1510 743 OFFCURVE",
"1530 753 CURVE SMOOTH",
"1540 758 OFFCURVE",
"1544 761 OFFCURVE",
"1544 763 CURVE SMOOTH",
"1544 764 OFFCURVE",
"1542 765 OFFCURVE",
"1538 765 CURVE SMOOTH",
"1528 765 OFFCURVE",
"1511 761 OFFCURVE",
"1483 752 CURVE SMOOTH",
"1441 738 OFFCURVE",
"1368 618 OFFCURVE",
"1286 417 CURVE SMOOTH",
"1229 276 OFFCURVE",
"1184 132 OFFCURVE",
"1184 53 CURVE SMOOTH",
"1184 -10 OFFCURVE",
"1214 -42 OFFCURVE",
"1258 -42 CURVE SMOOTH"
);
},
{
closed = 1;
nodes = (
"1091 762 OFFCURVE",
"1110 774 OFFCURVE",
"1123 774 CURVE SMOOTH",
"1131 774 OFFCURVE",
"1137 769 OFFCURVE",
"1137 762 CURVE SMOOTH",
"1137 746 OFFCURVE",
"1107 731 OFFCURVE",
"1072 726 CURVE"
);
},
{
closed = 1;
nodes = (
"1332 279 OFFCURVE",
"1370 293 OFFCURVE",
"1396 312 CURVE SMOOTH",
"1402 317 OFFCURVE",
"1404 320 OFFCURVE",
"1404 322 CURVE SMOOTH",
"1404 324 OFFCURVE",
"1403 327 OFFCURVE",
"1399 327 CURVE SMOOTH",
"1394 327 OFFCURVE",
"1384 321 OFFCURVE",
"1369 319 CURVE SMOOTH",
"1351 316 OFFCURVE",
"1295 316 OFFCURVE",
"1274 316 CURVE SMOOTH",
"1221 316 OFFCURVE",
"1000 328 OFFCURVE",
"902 333 CURVE SMOOTH",
"869 335 OFFCURVE",
"829 334 OFFCURVE",
"811 333 CURVE SMOOTH",
"783 331 OFFCURVE",
"761 306 OFFCURVE",
"761 287 CURVE SMOOTH",
"761 282 OFFCURVE",
"763 279 OFFCURVE",
"767 279 CURVE SMOOTH",
"775 279 OFFCURVE",
"786 282 OFFCURVE",
"800 287 CURVE SMOOTH",
"816 293 OFFCURVE",
"834 296 OFFCURVE",
"865 296 CURVE SMOOTH",
"920 296 OFFCURVE",
"1224 279 OFFCURVE",
"1267 279 CURVE SMOOTH"
);
}
);
userData = {
com.hugojourdan.ColorFlow = {
"0" = 0;
"1" = 0;
"10" = 0;
"11" = 0;
"2" = 0;
"3" = 0;
"4" = 0;
"5" = 0;
"6" = 0;
"7" = 0;
"8" = 0;
"9" = 1;
};
com.hugojourdan.ColorFlow_Color_9 = "9";
};
width = 1395;
}
);
note = Hbar;
unicode = 0126;
},
{
color = 4;
glyphname = Heng;
lastChange = "2024-03-16 00:22:22 +0000";
layers = (
{
anchors = (
{
name = bottom;
position = "{195, 0}";
},
{
name = cedilla;
position = "{-462, -148}";
},
{
name = center;
position = "{-100, 209}";
},
{
name = top;
position = "{528, 800}";
},
{
name = topleft;
position = "{-774, 706}";
}
);
color = 0;
layerId = "61E7180A-0B32-4047-B910-001D8BB62225";
paths = (
{
closed = 1;
nodes = (
"493 -378 OFFCURVE",
"657 -209 OFFCURVE",
"756 39 CURVE SMOOTH",
"835 237 OFFCURVE",
"925 541 OFFCURVE",
"1041 722 CURVE SMOOTH",
"1053 743 OFFCURVE",
"1068 752 OFFCURVE",
"1073 754 CURVE SMOOTH",
"1081 757 OFFCURVE",
"1083 759 OFFCURVE",
"1083 761 CURVE SMOOTH",
"1083 764 OFFCURVE",
"1081 765 OFFCURVE",
"1077 765 CURVE SMOOTH",
"1067 765 OFFCURVE",
"1050 761 OFFCURVE",
"1022 752 CURVE SMOOTH",
"980 738 OFFCURVE",
"918 617 OFFCURVE",
"837 417 CURVE SMOOTH",
"807 342 OFFCURVE",
"782 266 OFFCURVE",
"748 179 CURVE SMOOTH",
"619 -158 OFFCURVE",
"464 -354 OFFCURVE",
"261 -354 CURVE SMOOTH",
"217 -354 OFFCURVE",
"186 -334 OFFCURVE",
"186 -295 CURVE SMOOTH",
"186 -211 OFFCURVE",
"330 -138 OFFCURVE",
"469 -120 CURVE SMOOTH",
"479 -119 OFFCURVE",
"482 -115 OFFCURVE",
"482 -110 CURVE SMOOTH",
"482 -106 OFFCURVE",
"475 -103 OFFCURVE",
"466 -102 CURVE SMOOTH",
"403 -97 OFFCURVE",
"117 -172 OFFCURVE",
"117 -295 CURVE SMOOTH",
"117 -354 OFFCURVE",
"168 -378 OFFCURVE",
"246 -378 CURVE SMOOTH"
);
},
{
closed = 1;
nodes = (
"265 -9 OFFCURVE",
"312 21 OFFCURVE",
"349 80 CURVE SMOOTH",
"391 149 OFFCURVE",
"434 257 OFFCURVE",
"469 354 CURVE SMOOTH",
"478 380 OFFCURVE",
"565 627 OFFCURVE",
"602 701 CURVE",
"656 708 OFFCURVE",
"722 728 OFFCURVE",
"722 776 CURVE SMOOTH",
"722 797 OFFCURVE",
"705 807 OFFCURVE",
"685 807 CURVE SMOOTH",
"644 807 OFFCURVE",
"606 759 OFFCURVE",
"586 724 CURVE",
"480 713 OFFCURVE",
"335 716 OFFCURVE",
"214 680 CURVE SMOOTH",
"87 643 OFFCURVE",
"-8 556 OFFCURVE",
"-8 429 CURVE SMOOTH",
"-8 338 OFFCURVE",
"61 267 OFFCURVE",
"145 267 CURVE SMOOTH",
"239 267 OFFCURVE",
"310 355 OFFCURVE",
"310 436 CURVE SMOOTH",
"310 460 OFFCURVE",
"305 491 OFFCURVE",
"288 491 CURVE SMOOTH",
"285 491 OFFCURVE",
"282 489 OFFCURVE",
"282 484 CURVE",
"285 478 OFFCURVE",
"289 465 OFFCURVE",
"289 449 CURVE SMOOTH",
"289 374 OFFCURVE",
"233 288 OFFCURVE",
"154 288 CURVE SMOOTH",
"95 288 OFFCURVE",
"56 336 OFFCURVE",
"56 401 CURVE SMOOTH",
"56 505 OFFCURVE",
"110 593 OFFCURVE",
"235 645 CURVE SMOOTH",
"336 687 OFFCURVE",
"463 687 OFFCURVE",
"573 700 CURVE",
"551 657 OFFCURVE",
"463 465 OFFCURVE",
"411 332 CURVE SMOOTH",
"394 289 OFFCURVE",
"340 172 OFFCURVE",
"312 122 CURVE SMOOTH",
"273 53 OFFCURVE",
"239 15 OFFCURVE",
"200 15 CURVE SMOOTH",
"172 15 OFFCURVE",
"150 33 OFFCURVE",
"150 72 CURVE SMOOTH",
"150 80 OFFCURVE",
"152 93 OFFCURVE",
"154 101 CURVE SMOOTH",
"155 104 OFFCURVE",
"154 106 OFFCURVE",
"149 106 CURVE SMOOTH",
"143 106 OFFCURVE",
"138 100 OFFCURVE",
"136 91 CURVE SMOOTH",
"134 83 OFFCURVE",
"133 74 OFFCURVE",
"133 65 CURVE SMOOTH",
"133 17 OFFCURVE",
"166 -9 OFFCURVE",
"207 -9 CURVE SMOOTH"
);
},
{
closed = 1;
nodes = (
"340 321 OFFCURVE",
"351 324 OFFCURVE",
"365 329 CURVE SMOOTH",
"381 335 OFFCURVE",
"399 338 OFFCURVE",
"430 338 CURVE SMOOTH",
"485 338 OFFCURVE",
"789 321 OFFCURVE",
"832 321 CURVE SMOOTH",
"897 321 OFFCURVE",
"935 335 OFFCURVE",
"961 354 CURVE SMOOTH",
"967 359 OFFCURVE",
"969 362 OFFCURVE",
"969 364 CURVE SMOOTH",
"969 366 OFFCURVE",
"968 369 OFFCURVE",
"964 369 CURVE SMOOTH",
"959 369 OFFCURVE",
"949 363 OFFCURVE",
"934 361 CURVE SMOOTH",
"916 358 OFFCURVE",
"860 358 OFFCURVE",
"839 358 CURVE SMOOTH",
"786 358 OFFCURVE",
"565 370 OFFCURVE",
"467 375 CURVE SMOOTH",
"434 377 OFFCURVE",
"394 376 OFFCURVE",
"376 375 CURVE SMOOTH",
"348 373 OFFCURVE",
"326 348 OFFCURVE",
"326 329 CURVE SMOOTH",
"326 324 OFFCURVE",
"328 321 OFFCURVE",
"332 321 CURVE SMOOTH"
);
},
{
closed = 1;
nodes = (
"625 732 OFFCURVE",
"629 740 OFFCURVE",
"635 748 CURVE SMOOTH",
"648 767 OFFCURVE",
"662 774 OFFCURVE",
"672 774 CURVE SMOOTH",
"680 774 OFFCURVE",
"686 769 OFFCURVE",
"686 762 CURVE SMOOTH",
"686 754 OFFCURVE",
"677 742 OFFCURVE",
"653 734 CURVE SMOOTH",
"644 731 OFFCURVE",
"634 728 OFFCURVE",
"621 726 CURVE"
);
}
);
userData = {
com.hugojourdan.ColorFlow = {
"0" = 0;
"1" = 0;
"10" = 0;
"11" = 0;
"2" = 0;
"3" = 0;
"4" = 0;
"5" = 0;
"6" = 0;
"7" = 0;
"8" = 0;
"9" = 0;
};
};
width = 934;
}
);
leftMetricsKey = H;
rightMetricsKey = H;
unicode = A726;
},
{
glyphname = Hhook;
lastChange = "2024-03-16 00:22:22 +0000";
layers = (
{
anchors = (
{
name = bottom;
position = "{915, -106}";
},
{
name = center;
position = "{694, 209}";
},
{
name = top;
position = "{1312, 796}";
},
{
name = topleft;
position = "{20, 706}";
}
);
layerId = "61E7180A-0B32-4047-B910-001D8BB62225";
paths = (
{
closed = 1;
nodes = (
"349 -173 OFFCURVE",
"379 -171 OFFCURVE",
"393 -169 CURVE SMOOTH",
"646 -136 OFFCURVE",
"833 96 OFFCURVE",
"915 338 CURVE",
"1006 334 OFFCURVE",
"1210 326 OFFCURVE",
"1256 326 CURVE",
"1239 277 OFFCURVE",
"1184 144 OFFCURVE",
"1184 53 CURVE SMOOTH",
"1184 13 OFFCURVE",
"1195 -19 OFFCURVE",
"1222 -33 CURVE SMOOTH",
"1233 -39 OFFCURVE",
"1246 -42 OFFCURVE",
"1258 -42 CURVE SMOOTH",
"1287 -42 OFFCURVE",
"1316 -26 OFFCURVE",
"1336 -7 CURVE SMOOTH",
"1394 48 OFFCURVE",
"1415 94 OFFCURVE",
"1458 182 CURVE SMOOTH",
"1461 188 OFFCURVE",
"1462 193 OFFCURVE",
"1462 196 CURVE SMOOTH",
"1462 201 OFFCURVE",
"1460 203 OFFCURVE",
"1457 203 CURVE SMOOTH",
"1453 203 OFFCURVE",
"1448 199 OFFCURVE",
"1443 189 CURVE SMOOTH",
"1411 125 OFFCURVE",
"1369 46 OFFCURVE",
"1317 8 CURVE SMOOTH",
"1307 0 OFFCURVE",
"1296 -4 OFFCURVE",
"1286 -4 CURVE SMOOTH",
"1277 -4 OFFCURVE",
"1268 0 OFFCURVE",
"1261 8 CURVE SMOOTH",
"1252 18 OFFCURVE",
"1248 36 OFFCURVE",
"1248 58 CURVE SMOOTH",
"1248 138 OFFCURVE",
"1300 278 OFFCURVE",
"1313 326 CURVE",
"1343 327 OFFCURVE",
"1386 334 OFFCURVE",
"1411 353 CURVE SMOOTH",
"1418 358 OFFCURVE",
"1421 362 OFFCURVE",
"1421 364 CURVE SMOOTH",
"1421 366 OFFCURVE",
"1419 367 OFFCURVE",
"1415 367 CURVE SMOOTH",
"1412 367 OFFCURVE",
"1408 367 OFFCURVE",
"1403 365 CURVE SMOOTH",
"1387 358 OFFCURVE",
"1344 358 OFFCURVE",
"1323 358 CURVE",
"1403 591 OFFCURVE",
"1512 744 OFFCURVE",
"1530 753 CURVE SMOOTH",
"1540 758 OFFCURVE",
"1544 761 OFFCURVE",
"1544 763 CURVE SMOOTH",
"1544 764 OFFCURVE",
"1542 765 OFFCURVE",
"1538 765 CURVE SMOOTH",
"1528 765 OFFCURVE",
"1511 762 OFFCURVE",
"1483 752 CURVE SMOOTH",
"1405 725 OFFCURVE",
"1281 403 OFFCURVE",
"1265 357 CURVE",
"1194 357 OFFCURVE",
"1059 374 OFFCURVE",
"923 374 CURVE",
"941 417 OFFCURVE",
"1016 627 OFFCURVE",
"1053 701 CURVE",
"1102 713 OFFCURVE",
"1173 728 OFFCURVE",
"1173 776 CURVE SMOOTH",
"1173 797 OFFCURVE",
"1156 807 OFFCURVE",
"1136 807 CURVE SMOOTH",
"1095 807 OFFCURVE",
"1056 760 OFFCURVE",
"1037 724 CURVE SMOOTH",
"1023 698 LINE SMOOTH",
"1001 658 OFFCURVE",
"927 499 OFFCURVE",
"876 374 CURVE",
"838 374 LINE",
"811 370 OFFCURVE",
"784 350 OFFCURVE",
"775 335 CURVE SMOOTH",
"772 330 OFFCURVE",
"771 327 OFFCURVE",
"771 324 CURVE SMOOTH",
"771 320 OFFCURVE",
"775 318 OFFCURVE",
"780 318 CURVE SMOOTH",
"785 318 OFFCURVE",
"799 322 OFFCURVE",
"803 324 CURVE SMOOTH",
"823 334 OFFCURVE",
"839 340 OFFCURVE",
"863 340 CURVE",
"796 165 OFFCURVE",
"665 -37 OFFCURVE",
"383 -100 CURVE SMOOTH",
"358 -106 OFFCURVE",
"331 -109 OFFCURVE",
"301 -109 CURVE SMOOTH",
"174 -109 OFFCURVE",
"24 -50 OFFCURVE",
"24 105 CURVE SMOOTH",
"24 115 OFFCURVE",
"25 129 OFFCURVE",
"27 142 CURVE SMOOTH",
"38 223 OFFCURVE",
"95 286 OFFCURVE",
"129 299 CURVE SMOOTH",
"134 301 OFFCURVE",
"139 305 OFFCURVE",
"139 309 CURVE SMOOTH",
"139 312 OFFCURVE",
"136 314 OFFCURVE",
"127 314 CURVE SMOOTH",
"95 312 OFFCURVE",
"21 251 OFFCURVE",
"4 185 CURVE SMOOTH",
"-4 155 OFFCURVE",
"-8 126 OFFCURVE",
"-8 99 CURVE SMOOTH",
"-8 -76 OFFCURVE",
"152 -173 OFFCURVE",
"332 -173 CURVE SMOOTH"
);
},
{
closed = 1;
nodes = (
"1076 747 OFFCURVE",
"1101 775 OFFCURVE",
"1124 775 CURVE SMOOTH",
"1129 775 OFFCURVE",
"1135 772 OFFCURVE",
"1135 765 CURVE SMOOTH",
"1135 750 OFFCURVE",
"1113 733 OFFCURVE",
"1063 725 CURVE"
);
},
{
closed = 1;
nodes = (
"1037 724 LINE",
"992 718 OFFCURVE",
"921 713 OFFCURVE",
"829 713 CURVE SMOOTH",
"723 713 OFFCURVE",
"602 736 OFFCURVE",
"614 790 CURVE SMOOTH",
"616 801 OFFCURVE",
"615 812 OFFCURVE",
"603 812 CURVE",
"586 788 LINE",
"585 784 OFFCURVE",
"585 781 OFFCURVE",
"585 777 CURVE SMOOTH",
"585 702 OFFCURVE",
"693 680 OFFCURVE",
"815 680 CURVE SMOOTH",
"891 680 OFFCURVE",
"959 688 OFFCURVE",
"1024 698 CURVE"
);
},
{
closed = 1;
nodes = (
"667 454 OFFCURVE",
"707 513 OFFCURVE",
"707 545 CURVE SMOOTH",
"707 550 OFFCURVE",
"706 555 OFFCURVE",
"704 558 CURVE",
"701 566 OFFCURVE",
"690 559 OFFCURVE",
"686 555 CURVE",
"674 531 OFFCURVE",
"655 499 OFFCURVE",
"626 491 CURVE SMOOTH",
"618 489 OFFCURVE",
"611 488 OFFCURVE",
"604 488 CURVE SMOOTH",
"575 488 OFFCURVE",
"560 505 OFFCURVE",
"549 525 CURVE SMOOTH",
"540 540 OFFCURVE",
"536 558 OFFCURVE",
"536 579 CURVE SMOOTH",
"536 647 OFFCURVE",
"577 738 OFFCURVE",
"620 799 CURVE",
"615 814 OFFCURVE",
"611 809 OFFCURVE",
"603 812 CURVE",
"556 759 OFFCURVE",
"466 618 OFFCURVE",
"466 523 CURVE SMOOTH",
"466 506 OFFCURVE",
"469 490 OFFCURVE",
"476 477 CURVE SMOOTH",
"494 444 OFFCURVE",
"526 432 OFFCURVE",
"557 432 CURVE SMOOTH",
"568 432 OFFCURVE",
"578 433 OFFCURVE",
"588 436 CURVE SMOOTH"
);
}
);
userData = {
com.hugojourdan.ColorFlow = {
"0" = 0;
"1" = 0;
"10" = 0;
"11" = 0;
"2" = 0;
"3" = 0;
"4" = 0;
"5" = 0;
"6" = 0;
"7" = 0;
"8" = 0;
"9" = 0;
};
};
width = 1388;
}
);
unicode = A7AA;
},
{
glyphname = I;
lastChange = "2024-03-16 00:22:22 +0000";
layers = (
{
anchors = (
{
name = bottom;
position = "{276, -177}";
},
{
name = ogonek;
position = "{310, -178}";
},
{
name = top;
position = "{1173, 833}";
},
{
name = topleft;
position = "{20, 706}";
}
);
layerId = "61E7180A-0B32-4047-B910-001D8BB62225";
paths = (
{
closed = 1;
nodes = (
"622 -194 OFFCURVE",
"800 13 OFFCURVE",
"914 283 CURVE SMOOTH",
"974 427 OFFCURVE",
"996 571 OFFCURVE",
"1083 729 CURVE",
"1119 735 OFFCURVE",
"1202 758 OFFCURVE",
"1202 807 CURVE SMOOTH",
"1202 827 OFFCURVE",
"1189 836 OFFCURVE",
"1170 836 CURVE SMOOTH",
"1124 836 OFFCURVE",
"1088 792 OFFCURVE",
"1068 751 CURVE",
"888 729 OFFCURVE",
"632 655 OFFCURVE",
"632 488 CURVE SMOOTH",
"632 419 OFFCURVE",
"684 374 OFFCURVE",
"750 374 CURVE SMOOTH",
"840 374 OFFCURVE",
"887 442 OFFCURVE",
"887 514 CURVE SMOOTH",
"887 529 OFFCURVE",
"881 560 OFFCURVE",
"869 560 CURVE SMOOTH",
"863 560 OFFCURVE",
"860 553 OFFCURVE",
"860 548 CURVE",
"863 543 OFFCURVE",
"868 532 OFFCURVE",
"868 512 CURVE SMOOTH",
"868 440 OFFCURVE",
"810 397 OFFCURVE",
"765 397 CURVE SMOOTH",
"716 397 OFFCURVE",
"686 430 OFFCURVE",
"686 484 CURVE SMOOTH",
"686 648 OFFCURVE",
"900 698 OFFCURVE",
"1052 724 CURVE",
"958 570 OFFCURVE",
"918 402 OFFCURVE",
"822 233 CURVE SMOOTH",
"737 84 OFFCURVE",
"561 -164 OFFCURVE",
"351 -164 CURVE SMOOTH",
"124 -164 OFFCURVE",
"37 -33 OFFCURVE",
"37 94 CURVE SMOOTH",
"37 178 OFFCURVE",
"74 259 OFFCURVE",
"144 301 CURVE SMOOTH",
"147 303 OFFCURVE",
"149 306 OFFCURVE",
"149 309 CURVE SMOOTH",
"149 312 OFFCURVE",
"147 314 OFFCURVE",
"143 314 CURVE SMOOTH",
"137 314 OFFCURVE",
"109 306 OFFCURVE",
"77 284 CURVE SMOOTH",
"35 254 OFFCURVE",
"-19 185 OFFCURVE",
"-19 71 CURVE SMOOTH",
"-19 -75 OFFCURVE",
"147 -194 OFFCURVE",
"336 -194 CURVE SMOOTH"
);
},
{
closed = 1;
nodes = (
"1115 785 OFFCURVE",
"1138 804 OFFCURVE",
"1155 804 CURVE SMOOTH",
"1162 804 OFFCURVE",
"1166 799 OFFCURVE",
"1166 791 CURVE SMOOTH",
"1166 780 OFFCURVE",
"1152 765 OFFCURVE",
"1100 755 CURVE"
);
}
);
userData = {
com.hugojourdan.ColorFlow = {
"0" = 0;
"1" = 0;
"10" = 0;
"11" = 0;
"2" = 0;
"3" = 0;
"4" = 0;
"5" = 0;
"6" = 0;
"7" = 0;
"8" = 0;
"9" = 0;
};
};
width = 917;
}
);
note = I;
unicode = 0049;
userData = {
KernOnName = I;
};
},
{
color = 0;
glyphname = "Iota-latin";
lastChange = "2024-03-16 00:22:22 +0000";
layers = (
{
anchors = (
{
name = top;
position = "{397, 804}";
}
);
layerId = "61E7180A-0B32-4047-B910-001D8BB62225";
paths = (
{
closed = 1;
nodes = (
"145 -70 OFFCURVE",
"222 105 OFFCURVE",
"251 184 CURVE",
"251 190 OFFCURVE",
"246 193 OFFCURVE",
"239 193 CURVE",
"216 130 OFFCURVE",
"137 -48 OFFCURVE",
"79 -48 CURVE SMOOTH",
"58 -48 OFFCURVE",
"50 -35 OFFCURVE",
"50 5 CURVE SMOOTH",
"50 47 OFFCURVE",
"104 221 OFFCURVE",
"178 389 CURVE SMOOTH",
"252 558 OFFCURVE",
"336 723 OFFCURVE",
"370 771 CURVE SMOOTH",
"378 783 OFFCURVE",
"384 788 OFFCURVE",
"392 788 CURVE SMOOTH",
"401 788 OFFCURVE",
"406 781 OFFCURVE",
"406 770 CURVE SMOOTH",
"406 712 OFFCURVE",
"290 447 OFFCURVE",
"155 418 CURVE",
"132 422 LINE",
"83 422 OFFCURVE",
"47 445 OFFCURVE",
"36 484 CURVE SMOOTH",
"31 502 OFFCURVE",
"23 505 OFFCURVE",
"16 505 CURVE SMOOTH",
"12 505 OFFCURVE",
"8 501 OFFCURVE",
"8 495 CURVE SMOOTH",
"8 443 OFFCURVE",
"65 406 OFFCURVE",
"136 406 CURVE",
"155 402 LINE",
"297 424 OFFCURVE",
"426 700 OFFCURVE",
"426 773 CURVE SMOOTH",
"426 804 OFFCURVE",
"411 818 OFFCURVE",
"382 818 CURVE SMOOTH",
"343 818 OFFCURVE",
"301 794 OFFCURVE",
"241 680 CURVE SMOOTH",
"194 592 OFFCURVE",
"67 320 OFFCURVE",
"17 148 CURVE SMOOTH",
"3 100 OFFCURVE",
"-6 58 OFFCURVE",
"-6 27 CURVE SMOOTH",
"-6 -36 OFFCURVE",
"14 -70 OFFCURVE",
"71 -70 CURVE SMOOTH"
);
}
);
userData = {
com.hugojourdan.ColorFlow = {
"0" = 0;
"1" = 0;
"10" = 0;
"11" = 0;
"2" = 0;
"3" = 0;
"4" = 0;
"5" = 0;
"6" = 0;
"7" = 0;
"8" = 0;
"9" = 0;
};
};
width = 180;
}
);
unicode = 0196;
},
{
glyphname = J;
lastChange = "2024-03-16 00:22:22 +0000";
layers = (
{
anchors = (
{
name = bottom;
position = "{486, 0}";
},
{
name = center;
position = "{1015, 428}";
},
{
name = top;
position = "{1167, 789}";
}
);
layerId = "61E7180A-0B32-4047-B910-001D8BB62225";
paths = (
{
closed = 1;
nodes = (
"552 -382 OFFCURVE",
"774 -182 OFFCURVE",
"924 137 CURVE SMOOTH",
"1020 341 OFFCURVE",
"1052 531 OFFCURVE",
"1152 701 CURVE",
"1210 710 OFFCURVE",
"1277 729 OFFCURVE",
"1277 775 CURVE SMOOTH",
"1277 796 OFFCURVE",
"1263 807 OFFCURVE",
"1242 807 CURVE SMOOTH",
"1204 807 OFFCURVE",
"1176 776 OFFCURVE",
"1139 724 CURVE",
"780 673 OFFCURVE",
"523 594 OFFCURVE",
"523 412 CURVE SMOOTH",
"523 307 OFFCURVE",
"599 256 OFFCURVE",
"677 256 CURVE SMOOTH",
"778 256 OFFCURVE",
"888 338 OFFCURVE",
"888 472 CURVE SMOOTH",
"888 508 OFFCURVE",
"873 535 OFFCURVE",
"857 535 CURVE SMOOTH",
"850 535 OFFCURVE",
"847 531 OFFCURVE",
"847 525 CURVE",
"858 514 OFFCURVE",
"865 496 OFFCURVE",
"865 478 CURVE SMOOTH",
"865 360 OFFCURVE",
"772 280 OFFCURVE",
"694 280 CURVE SMOOTH",
"641 280 OFFCURVE",
"592 319 OFFCURVE",
"592 399 CURVE SMOOTH",
"592 554 OFFCURVE",
"785 651 OFFCURVE",
"1122 697 CURVE",
"1100 662 OFFCURVE",
"1032 547 OFFCURVE",
"961 391 CURVE SMOOTH",
"913 284 OFFCURVE",
"860 173 OFFCURVE",
"800 70 CURVE SMOOTH",
"640 -197 OFFCURVE",
"469 -354 OFFCURVE",
"280 -354 CURVE SMOOTH",
"112 -354 OFFCURVE",
"-4 -256 OFFCURVE",
"-4 -99 CURVE SMOOTH",
"-4 -9 OFFCURVE",
"34 73 OFFCURVE",
"103 114 CURVE SMOOTH",
"106 116 OFFCURVE",
"108 119 OFFCURVE",
"108 122 CURVE SMOOTH",
"108 125 OFFCURVE",
"106 127 OFFCURVE",
"102 127 CURVE SMOOTH",
"94 127 OFFCURVE",
"67 119 OFFCURVE",
"39 99 CURVE SMOOTH",
"-10 64 OFFCURVE",
"-60 -4 OFFCURVE",
"-60 -110 CURVE SMOOTH",
"-60 -283 OFFCURVE",
"86 -382 OFFCURVE",
"277 -382 CURVE SMOOTH"
);
},
{
closed = 1;
nodes = (
"1190 747 OFFCURVE",
"1212 775 OFFCURVE",
"1227 775 CURVE SMOOTH",
"1233 775 OFFCURVE",
"1239 770 OFFCURVE",
"1239 763 CURVE SMOOTH",
"1239 751 OFFCURVE",
"1225 735 OFFCURVE",
"1170 726 CURVE"
);
}
);
userData = {
com.hugojourdan.ColorFlow = {
"0" = 0;
"1" = 0;
"10" = 0;
"11" = 0;
"2" = 0;
"3" = 0;
"4" = 0;
"5" = 0;
"6" = 0;
"7" = 0;
"8" = 0;
"9" = 0;
};
};
width = 972;
}
);
note = J;
unicode = 004A;
userData = {
KernOnName = J;
};
},
{
glyphname = Jcrossedtail;
lastChange = "2024-03-16 00:22:22 +0000";
layers = (
{
layerId = "61E7180A-0B32-4047-B910-001D8BB62225";
paths = (
{
closed = 1;
nodes = (
"166 -516 OFFCURVE",
"360 -304 OFFCURVE",
"471 -109 CURVE SMOOTH",
"550 30 OFFCURVE",
"613 222 OFFCURVE",
"663 369 CURVE SMOOTH",
"707 495 OFFCURVE",
"750 613 OFFCURVE",
"802 701 CURVE",
"815 703 OFFCURVE",
"833 706 OFFCURVE",
"845 709 CURVE SMOOTH",
"892 721 OFFCURVE",
"927 736 OFFCURVE",
"927 777 CURVE SMOOTH",
"927 797 OFFCURVE",
"912 807 OFFCURVE",
"892 807 CURVE SMOOTH",
"885 807 OFFCURVE",
"878 806 OFFCURVE",
"871 804 CURVE SMOOTH",
"837 793 OFFCURVE",
"798 738 OFFCURVE",
"789 724 CURVE",
"550 693 OFFCURVE",
"227 568 OFFCURVE",
"227 343 CURVE SMOOTH",
"227 262 OFFCURVE",
"283 209 OFFCURVE",
"356 209 CURVE SMOOTH",
"440 209 OFFCURVE",
"535 285 OFFCURVE",
"535 379 CURVE SMOOTH",
"535 400 OFFCURVE",
"529 434 OFFCURVE",
"510 434 CURVE SMOOTH",
"504 434 OFFCURVE",
"499 430 OFFCURVE",
"499 425 CURVE",
"508 415 OFFCURVE",
"513 400 OFFCURVE",
"513 384 CURVE SMOOTH",
"513 289 OFFCURVE",
"429 235 OFFCURVE",
"372 235 CURVE SMOOTH",
"323 235 OFFCURVE",
"295 277 OFFCURVE",
"295 336 CURVE SMOOTH",
"295 536 OFFCURVE",
"574 665 OFFCURVE",
"772 697 CURVE",
"718 611 OFFCURVE",
"644 465 OFFCURVE",
"601 369 CURVE SMOOTH",
"534 217 OFFCURVE",
"412 -60 OFFCURVE",
"329 -185 CURVE SMOOTH",
"203 -377 OFFCURVE",
"72 -484 OFFCURVE",
"-44 -484 CURVE SMOOTH",
"-125 -484 OFFCURVE",
"-137 -452 OFFCURVE",
"-137 -415 CURVE SMOOTH",
"-137 -382 OFFCURVE",
"-103 -264 OFFCURVE",
"125 -190 CURVE SMOOTH",
"226 -157 OFFCURVE",
"348 -122 OFFCURVE",
"423 -122 CURVE SMOOTH",
"546 -122 OFFCURVE",
"664 -131 OFFCURVE",
"664 -199 CURVE SMOOTH",
"664 -226 OFFCURVE",
"644 -253 OFFCURVE",
"621 -264 CURVE",
"621 -268 OFFCURVE",
"625 -270 OFFCURVE",
"634 -270 CURVE SMOOTH",
"655 -270 OFFCURVE",
"704 -233 OFFCURVE",
"704 -191 CURVE SMOOTH",
"705 -118 OFFCURVE",
"617 -90 OFFCURVE",
"443 -90 CURVE SMOOTH",
"409 -90 OFFCURVE",
"267 -112 OFFCURVE",
"173 -131 CURVE SMOOTH",
"84 -150 OFFCURVE",
"-174 -236 OFFCURVE",
"-174 -422 CURVE SMOOTH",
"-174 -503 OFFCURVE",
"-102 -516 OFFCURVE",
"-51 -516 CURVE SMOOTH"
);
},
{
closed = 1;
nodes = (
"837 744 OFFCURVE",
"856 775 OFFCURVE",
"879 775 CURVE SMOOTH",
"883 775 OFFCURVE",
"889 773 OFFCURVE",
"889 763 CURVE SMOOTH",
"889 751 OFFCURVE",
"875 735 OFFCURVE",
"820 726 CURVE"
);
}
);
userData = {
com.hugojourdan.ColorFlow = {
"0" = 0;
"1" = 0;
"10" = 0;
"11" = 0;
"2" = 0;
"3" = 0;
"4" = 0;
"5" = 0;
"6" = 0;
"7" = 0;
"8" = 0;
"9" = 0;
};
};
width = 622;
}
);
unicode = A7B2;
},
{
color = 4;
glyphname = Jstroke;
lastChange = "2024-03-16 00:22:22 +0000";
layers = (
{
anchors = (
{
name = _top;
position = "{969.532, 327}";
},
{
name = bottom;
position = "{289, -374}";
},
{
name = center;
position = "{1015, 428}";
},
{
name = top;
position = "{1221, 804}";
}
);
color = 9;
layerId = "61E7180A-0B32-4047-B910-001D8BB62225";
paths = (
{
closed = 1;
nodes = (
"552 -382 OFFCURVE",
"774 -182 OFFCURVE",
"924 137 CURVE SMOOTH",
"1020 341 OFFCURVE",
"1052 531 OFFCURVE",
"1152 701 CURVE",
"1210 710 OFFCURVE",
"1277 729 OFFCURVE",
"1277 775 CURVE SMOOTH",
"1277 796 OFFCURVE",
"1263 807 OFFCURVE",
"1242 807 CURVE SMOOTH",
"1204 807 OFFCURVE",
"1176 776 OFFCURVE",
"1139 724 CURVE",
"980 695 OFFCURVE",
"840 671 OFFCURVE",
"730 638 CURVE SMOOTH",
"603 600 OFFCURVE",
"483 541 OFFCURVE",
"483 410 CURVE SMOOTH",
"483 314 OFFCURVE",
"559 259 OFFCURVE",
"639 259 CURVE SMOOTH",
"754 259 OFFCURVE",
"836 368 OFFCURVE",
"836 462 CURVE SMOOTH",
"836 491 OFFCURVE",
"825 512 OFFCURVE",
"811 512 CURVE SMOOTH",
"806 512 OFFCURVE",
"803 508 OFFCURVE",
"802 504 CURVE",
"809 494 OFFCURVE",
"814 479 OFFCURVE",
"814 465 CURVE SMOOTH",
"814 391 OFFCURVE",
"743 282 OFFCURVE",
"650 282 CURVE SMOOTH",
"597 282 OFFCURVE",
"550 320 OFFCURVE",
"550 389 CURVE SMOOTH",
"550 509 OFFCURVE",
"662 575 OFFCURVE",
"786 618 CURVE SMOOTH",
"876 649 OFFCURVE",
"989 673 OFFCURVE",
"1122 697 CURVE",
"1100 662 OFFCURVE",
"1032 547 OFFCURVE",
"961 391 CURVE SMOOTH",
"913 284 OFFCURVE",
"860 173 OFFCURVE",
"800 70 CURVE SMOOTH",
"640 -197 OFFCURVE",
"469 -354 OFFCURVE",
"280 -354 CURVE SMOOTH",
"112 -354 OFFCURVE",
"-4 -256 OFFCURVE",
"-4 -99 CURVE SMOOTH",
"-4 -9 OFFCURVE",
"34 73 OFFCURVE",
"103 114 CURVE SMOOTH",
"106 116 OFFCURVE",
"108 119 OFFCURVE",
"108 122 CURVE SMOOTH",
"108 125 OFFCURVE",
"106 127 OFFCURVE",
"102 127 CURVE SMOOTH",
"94 127 OFFCURVE",
"67 119 OFFCURVE",
"39 99 CURVE SMOOTH",
"-10 64 OFFCURVE",
"-60 -4 OFFCURVE",
"-60 -110 CURVE SMOOTH",
"-60 -283 OFFCURVE",
"86 -382 OFFCURVE",
"277 -382 CURVE SMOOTH"
);
},
{
closed = 1;
nodes = (
"1190 747 OFFCURVE",
"1212 775 OFFCURVE",
"1227 775 CURVE SMOOTH",
"1233 775 OFFCURVE",
"1239 770 OFFCURVE",
"1239 763 CURVE SMOOTH",
"1239 751 OFFCURVE",
"1225 735 OFFCURVE",
"1170 726 CURVE"
);
},
{
closed = 1;
nodes = (
"1090 415 LINE SMOOTH",
"1113 415 OFFCURVE",
"1122 431 OFFCURVE",
"1122 446 CURVE",
"933 446 LINE SMOOTH",
"917 446 OFFCURVE",
"902 431 OFFCURVE",
"902 415 CURVE"
);
}
);
userData = {
com.hugojourdan.ColorFlow = {
"0" = 0;
"1" = 0;
"10" = 0;
"11" = 0;
"2" = 0;
"3" = 0;
"4" = 0;
"5" = 0;
"6" = 0;
"7" = 0;
"8" = 0;
"9" = 0;
};
};
width = 972;
}
);
unicode = 0248;
},
{
glyphname = K;
lastChange = "2024-03-16 00:22:22 +0000";
layers = (
{
anchors = (
{
name = bottom;
position = "{830, -132}";
},
{
name = top;
position = "{1371, 767}";
}
);
layerId = "61E7180A-0B32-4047-B910-001D8BB62225";
paths = (
{
closed = 1;
nodes = (
"643 -172 OFFCURVE",
"806 1 OFFCURVE",
"914 261 CURVE SMOOTH",
"978 417 OFFCURVE",
"1021 583 OFFCURVE",
"1086 701 CURVE",
"1173 710 OFFCURVE",
"1206 746 OFFCURVE",
"1206 773 CURVE SMOOTH",
"1206 792 OFFCURVE",
"1191 807 OFFCURVE",
"1167 807 CURVE SMOOTH",
"1143 807 OFFCURVE",
"1116 796 OFFCURVE",
"1070 724 CURVE",
"983 716 OFFCURVE",
"862 713 OFFCURVE",
"753 689 CURVE SMOOTH",
"556 645 OFFCURVE",
"481 531 OFFCURVE",
"481 434 CURVE SMOOTH",
"481 347 OFFCURVE",
"541 272 OFFCURVE",
"635 272 CURVE SMOOTH",
"714 272 OFFCURVE",
"793 344 OFFCURVE",
"793 438 CURVE SMOOTH",
"793 453 OFFCURVE",
"789 469 OFFCURVE",
"783 483 CURVE SMOOTH",
"779 491 OFFCURVE",
"773 495 OFFCURVE",
"770 495 CURVE SMOOTH",
"767 495 OFFCURVE",
"765 493 OFFCURVE",
"765 488 CURVE SMOOTH",
"765 480 OFFCURVE",
"771 465 OFFCURVE",
"771 444 CURVE SMOOTH",
"771 365 OFFCURVE",
"715 293 OFFCURVE",
"642 293 CURVE SMOOTH",
"576 293 OFFCURVE",
"541 343 OFFCURVE",
"541 412 CURVE SMOOTH",
"541 498 OFFCURVE",
"608 615 OFFCURVE",
"765 659 CURVE SMOOTH",
"858 685 OFFCURVE",
"967 689 OFFCURVE",
"1057 700 CURVE",
"1025 636 OFFCURVE",
"925 415 OFFCURVE",
"883 320 CURVE SMOOTH",
"789 106 OFFCURVE",
"592 -119 OFFCURVE",
"331 -119 CURVE SMOOTH",
"213 -119 OFFCURVE",
"57 -55 OFFCURVE",
"57 105 CURVE SMOOTH",
"57 214 OFFCURVE",
"114 267 OFFCURVE",
"160 292 CURVE SMOOTH",
"163 294 OFFCURVE",
"165 297 OFFCURVE",
"165 300 CURVE SMOOTH",
"165 303 OFFCURVE",
"162 306 OFFCURVE",
"155 306 CURVE SMOOTH",
"118 306 OFFCURVE",
"26 236 OFFCURVE",
"26 107 CURVE SMOOTH",
"26 -70 OFFCURVE",
"200 -172 OFFCURVE",
"381 -172 CURVE SMOOTH"
);
},
{
closed = 1;
nodes = (
"1334 -185 OFFCURVE",
"1421 -108 OFFCURVE",
"1450 -51 CURVE SMOOTH",
"1457 -37 OFFCURVE",
"1458 -34 OFFCURVE",
"1458 -30 CURVE SMOOTH",
"1458 -26 OFFCURVE",
"1454 -22 OFFCURVE",
"1451 -22 CURVE SMOOTH",
"1448 -22 OFFCURVE",
"1446 -25 OFFCURVE",
"1442 -32 CURVE SMOOTH",
"1407 -98 OFFCURVE",
"1324 -142 OFFCURVE",
"1254 -142 CURVE SMOOTH",
"1180 -142 OFFCURVE",
"1109 -105 OFFCURVE",
"1058 14 CURVE SMOOTH",
"1016 111 OFFCURVE",
"994 216 OFFCURVE",
"994 250 CURVE SMOOTH",
"994 257 OFFCURVE",
"995 261 OFFCURVE",
"997 260 CURVE",
"1170 304 OFFCURVE",
"1502 552 OFFCURVE",
"1662 820 CURVE SMOOTH",
"1667 828 OFFCURVE",
"1669 833 OFFCURVE",
"1669 839 CURVE SMOOTH",
"1669 846 OFFCURVE",
"1662 853 OFFCURVE",
"1656 853 CURVE SMOOTH",
"1650 853 OFFCURVE",
"1646 846 OFFCURVE",
"1637 832 CURVE SMOOTH",
"1431 515 OFFCURVE",
"1007 275 OFFCURVE",
"933 282 CURVE",
"928 279 OFFCURVE",
"926 266 OFFCURVE",
"926 246 CURVE SMOOTH",
"926 193 OFFCURVE",
"943 92 OFFCURVE",
"983 3 CURVE SMOOTH",
"1044 -132 OFFCURVE",
"1136 -185 OFFCURVE",
"1230 -185 CURVE SMOOTH"
);
},
{
closed = 1;
nodes = (
"1131 764 OFFCURVE",
"1154 778 OFFCURVE",
"1166 778 CURVE SMOOTH",
"1172 778 OFFCURVE",
"1176 774 OFFCURVE",
"1176 768 CURVE SMOOTH",
"1176 748 OFFCURVE",
"1138 728 OFFCURVE",
"1105 726 CURVE"
);
}
);
userData = {
com.hugojourdan.ColorFlow = {
"0" = 0;
"1" = 0;
"10" = 0;
"11" = 0;
"2" = 0;
"3" = 0;
"4" = 0;
"5" = 0;
"6" = 0;
"7" = 0;
"8" = 0;
"9" = 0;
};
};
width = 1203;
}
);
note = K;
unicode = 004B;
userData = {
KernOnName = K;
};
},
{
glyphname = Khook;
lastChange = "2024-03-16 00:22:22 +0000";
layers = (
{
anchors = (
{
name = bottom;
position = "{795, -142}";
},
{
name = top;
position = "{1324, 821}";
}
);
layerId = "61E7180A-0B32-4047-B910-001D8BB62225";
paths = (
{
closed = 1;
nodes = (
"371 -172 OFFCURVE",
"395 -170 OFFCURVE",
"418 -167 CURVE SMOOTH",
"872 -99 OFFCURVE",
"902 428 OFFCURVE",
"1053 701 CURVE",
"1140 710 OFFCURVE",
"1173 746 OFFCURVE",
"1173 773 CURVE SMOOTH",
"1173 792 OFFCURVE",
"1158 807 OFFCURVE",
"1134 807 CURVE SMOOTH",
"1128 807 OFFCURVE",
"1122 806 OFFCURVE",
"1115 804 CURVE SMOOTH",
"1083 793 OFFCURVE",
"1044 736 OFFCURVE",
"1037 724 CURVE",
"950 716 OFFCURVE",
"829 713 OFFCURVE",
"720 689 CURVE SMOOTH",
"523 645 OFFCURVE",
"448 531 OFFCURVE",
"448 434 CURVE SMOOTH",
"448 347 OFFCURVE",
"508 272 OFFCURVE",
"595 272 CURVE SMOOTH",
"614 272 OFFCURVE",
"634 275 OFFCURVE",
"655 283 CURVE SMOOTH",
"712 305 OFFCURVE",
"758 375 OFFCURVE",
"758 439 CURVE SMOOTH",
"758 454 OFFCURVE",
"756 469 OFFCURVE",
"750 483 CURVE SMOOTH",
"746 491 OFFCURVE",
"740 495 OFFCURVE",
"736 495 CURVE SMOOTH",
"734 495 OFFCURVE",
"732 494 OFFCURVE",
"732 491 CURVE SMOOTH",
"732 489 LINE SMOOTH",
"734 479 OFFCURVE",
"735 469 OFFCURVE",
"735 458 CURVE SMOOTH",
"735 397 OFFCURVE",
"706 322 OFFCURVE",
"649 302 CURVE SMOOTH",
"632 296 OFFCURVE",
"617 293 OFFCURVE",
"602 293 CURVE SMOOTH",
"543 293 OFFCURVE",
"508 343 OFFCURVE",
"508 408 CURVE SMOOTH",
"508 498 OFFCURVE",
"575 615 OFFCURVE",
"732 659 CURVE SMOOTH",
"825 685 OFFCURVE",
"934 689 OFFCURVE",
"1024 700 CURVE",
"992 636 OFFCURVE",
"892 415 OFFCURVE",
"871 366 CURVE SMOOTH",
"795 194 OFFCURVE",
"666 -47 OFFCURVE",
"379 -112 CURVE SMOOTH",
"357 -117 OFFCURVE",
"333 -119 OFFCURVE",
"308 -119 CURVE SMOOTH",
"180 -119 OFFCURVE",
"24 -55 OFFCURVE",
"24 105 CURVE SMOOTH",
"24 116 OFFCURVE",
"25 128 OFFCURVE",
"27 141 CURVE SMOOTH",
"39 231 OFFCURVE",
"109 284 OFFCURVE",
"127 292 CURVE",
"130 294 OFFCURVE",
"132 297 OFFCURVE",
"132 300 CURVE SMOOTH",
"132 303 OFFCURVE",
"129 306 OFFCURVE",
"122 306 CURVE SMOOTH",
"119 306 LINE SMOOTH",
"95 303 OFFCURVE",
"23 257 OFFCURVE",
"4 185 CURVE SMOOTH",
"-3 157 OFFCURVE",
"-7 131 OFFCURVE",
"-7 107 CURVE SMOOTH",
"-7 -70 OFFCURVE",
"167 -172 OFFCURVE",
"348 -172 CURVE SMOOTH"
);
},
{
closed = 1;
nodes = (
"1280 -185 OFFCURVE",
"1384 -118 OFFCURVE",
"1420 -44 CURVE SMOOTH",
"1424 -37 OFFCURVE",
"1425 -32 OFFCURVE",
"1425 -28 CURVE SMOOTH",
"1425 -24 OFFCURVE",
"1423 -22 OFFCURVE",
"1421 -22 CURVE SMOOTH",
"1417 -22 OFFCURVE",
"1411 -27 OFFCURVE",
"1407 -36 CURVE SMOOTH",
"1369 -108 OFFCURVE",
"1277 -142 OFFCURVE",
"1199 -142 CURVE SMOOTH",
"1127 -142 OFFCURVE",
"1068 -86 OFFCURVE",
"1025 14 CURVE SMOOTH",
"983 111 OFFCURVE",
"961 216 OFFCURVE",
"961 250 CURVE SMOOTH",
"961 257 OFFCURVE",
"962 261 OFFCURVE",
"962 262 CURVE",
"894 278 LINE",
"895 279 OFFCURVE",
"893 266 OFFCURVE",
"893 246 CURVE SMOOTH",
"893 193 OFFCURVE",
"910 92 OFFCURVE",
"950 3 CURVE SMOOTH",
"998 -103 OFFCURVE",
"1084 -185 OFFCURVE",
"1194 -185 CURVE SMOOTH"
);
},
{
closed = 1;
nodes = (
"1081 738 OFFCURVE",
"1097 759 OFFCURVE",
"1111 768 CURVE SMOOTH",
"1120 775 OFFCURVE",
"1127 778 OFFCURVE",
"1133 778 CURVE SMOOTH",
"1139 778 OFFCURVE",
"1143 774 OFFCURVE",
"1143 768 CURVE SMOOTH",
"1143 760 OFFCURVE",
"1135 748 OFFCURVE",
"1116 738 CURVE SMOOTH",
"1109 734 OFFCURVE",
"1092 729 OFFCURVE",
"1072 726 CURVE"
);
},
{
closed = 1;
nodes = (
"1735 620 OFFCURVE",
"1735 677 CURVE SMOOTH",
"1735 746 OFFCURVE",
"1657 760 OFFCURVE",
"1589 760 CURVE SMOOTH",
"1543 760 OFFCURVE",
"1497 751 OFFCURVE",
"1460 751 CURVE SMOOTH",
"1449 751 OFFCURVE",
"1438 751 OFFCURVE",
"1428 753 CURVE",
"1427 792 OFFCURVE",
"1405 815 OFFCURVE",
"1380 815 CURVE SMOOTH",
"1367 815 OFFCURVE",
"1359 803 OFFCURVE",
"1359 790 CURVE SMOOTH",
"1359 771 OFFCURVE",
"1375 756 OFFCURVE",
"1399 745 CURVE",
"1394 631 OFFCURVE",
"1139 345 OFFCURVE",
"894 278 CURVE",
"962 262 LINE",
"1215 392 OFFCURVE",
"1422 598 OFFCURVE",
"1429 735 CURVE",
"1445 729 OFFCURVE",
"1498 726 OFFCURVE",
"1532 726 CURVE SMOOTH",
"1592 726 OFFCURVE",
"1670 702 OFFCURVE",
"1670 645 CURVE SMOOTH",
"1670 608 OFFCURVE",
"1631 586 OFFCURVE",
"1583 584 CURVE",
"1579 582 OFFCURVE",
"1573 578 OFFCURVE",
"1573 573 CURVE SMOOTH",
"1573 564 OFFCURVE",
"1592 560 OFFCURVE",
"1603 560 CURVE SMOOTH",
"1662 560 OFFCURVE"
);
}
);
userData = {
com.hugojourdan.ColorFlow = {
"0" = 0;
"1" = 0;
"10" = 0;
"11" = 0;
"2" = 0;
"3" = 0;
"4" = 0;
"5" = 0;
"6" = 0;
"7" = 0;
"8" = 0;
"9" = 0;
};
};
width = 1150;
}
);
unicode = 0198;
},
{
glyphname = L;
lastChange = "2024-03-16 00:22:22 +0000";
layers = (
{
anchors = (
{
name = bottom;
position = "{507, -8}";
},
{
name = center;
position = "{668, 229}";
},
{
name = top;
position = "{832, 802}";
},
{
name = topright;
position = "{1018, 790}";
}
);
layerId = "61E7180A-0B32-4047-B910-001D8BB62225";
paths = (
{
closed = 1;
nodes = (
"836 -311 OFFCURVE",
"871 -266 OFFCURVE",
"871 -207 CURVE SMOOTH",
"871 -42 OFFCURVE",
"561 136 OFFCURVE",
"261 136 CURVE SMOOTH",
"80 136 OFFCURVE",
"-3 53 OFFCURVE",
"-3 -17 CURVE SMOOTH",
"-3 -68 OFFCURVE",
"42 -113 OFFCURVE",
"126 -113 CURVE SMOOTH",
"360 -113 OFFCURVE",
"491 200 OFFCURVE",
"540 307 CURVE SMOOTH",
"631 509 OFFCURVE",
"715 740 OFFCURVE",
"832 740 CURVE SMOOTH",
"866 740 OFFCURVE",
"882 716 OFFCURVE",
"882 679 CURVE SMOOTH",
"882 555 OFFCURVE",
"721 315 OFFCURVE",
"505 315 CURVE SMOOTH",
"327 315 OFFCURVE",
"276 393 OFFCURVE",
"276 468 CURVE SMOOTH",
"276 566 OFFCURVE",
"373 666 OFFCURVE",
"474 666 CURVE",
"474 671 OFFCURVE",
"472 682 OFFCURVE",
"462 682 CURVE SMOOTH",
"326 682 OFFCURVE",
"220 579 OFFCURVE",
"220 474 CURVE SMOOTH",
"220 387 OFFCURVE",
"288 295 OFFCURVE",
"505 295 CURVE SMOOTH",
"731 295 OFFCURVE",
"925 546 OFFCURVE",
"925 697 CURVE SMOOTH",
"925 755 OFFCURVE",
"890 791 OFFCURVE",
"832 791 CURVE SMOOTH",
"650 791 OFFCURVE",
"581 583 OFFCURVE",
"516 391 CURVE SMOOTH",
"477 276 OFFCURVE",
"349 -93 OFFCURVE",
"126 -93 CURVE SMOOTH",
"59 -93 OFFCURVE",
"22 -64 OFFCURVE",
"22 -31 CURVE SMOOTH",
"22 17 OFFCURVE",
"96 75 OFFCURVE",
"261 75 CURVE SMOOTH",
"575 75 OFFCURVE",
"835 -63 OFFCURVE",
"835 -219 CURVE SMOOTH",
"835 -260 OFFCURVE",
"807 -296 OFFCURVE",
"783 -300 CURVE",
"783 -305 OFFCURVE",
"785 -311 OFFCURVE",
"799 -311 CURVE SMOOTH"
);
}
);
userData = {
com.hugojourdan.ColorFlow = {
"0" = 0;
"1" = 0;
"10" = 0;
"11" = 0;
"2" = 0;
"3" = 0;
"4" = 0;
"5" = 0;
"6" = 0;
"7" = 0;
"8" = 0;
"9" = 0;
};
};
width = 716;
}
);
note = L;
unicode = 004C;
userData = {
KernOnName = L;
};
},
{
glyphname = LJ;
lastChange = "2024-03-16 00:22:22 +0000";
layers = (
{
anchors = (
{
name = bottom;
position = "{774, -374}";
},
{
name = center;
position = "{668, 229}";
},
{
name = top;
position = "{1706, 804}";
},
{
name = topright;
position = "{978, 740}";
}
);
layerId = "61E7180A-0B32-4047-B910-001D8BB62225";
paths = (
{
closed = 1;
nodes = (
"821 -311 OFFCURVE",
"868 -286 OFFCURVE",
"868 -203 CURVE SMOOTH",
"868 -42 OFFCURVE",
"561 136 OFFCURVE",
"261 136 CURVE SMOOTH",
"80 136 OFFCURVE",
"-3 53 OFFCURVE",
"-3 -17 CURVE SMOOTH",
"-3 -68 OFFCURVE",
"43 -113 OFFCURVE",
"126 -113 CURVE SMOOTH",
"370 -113 OFFCURVE",
"491 200 OFFCURVE",
"540 307 CURVE SMOOTH",
"631 509 OFFCURVE",
"715 740 OFFCURVE",
"832 740 CURVE SMOOTH",
"866 740 OFFCURVE",
"882 716 OFFCURVE",
"882 679 CURVE SMOOTH",
"882 555 OFFCURVE",
"721 315 OFFCURVE",
"505 315 CURVE SMOOTH",
"327 315 OFFCURVE",
"276 393 OFFCURVE",
"276 468 CURVE SMOOTH",
"276 566 OFFCURVE",
"373 666 OFFCURVE",
"474 666 CURVE",
"474 671 OFFCURVE",
"472 682 OFFCURVE",
"462 682 CURVE SMOOTH",
"326 682 OFFCURVE",
"220 579 OFFCURVE",
"220 474 CURVE SMOOTH",
"220 387 OFFCURVE",
"288 295 OFFCURVE",
"505 295 CURVE SMOOTH",
"731 295 OFFCURVE",
"925 546 OFFCURVE",
"925 697 CURVE SMOOTH",
"925 752 OFFCURVE",
"897 790 OFFCURVE",
"832 790 CURVE SMOOTH",
"649 790 OFFCURVE",
"581 583 OFFCURVE",
"516 391 CURVE SMOOTH",
"477 276 OFFCURVE",
"349 -93 OFFCURVE",
"126 -93 CURVE SMOOTH",
"59 -93 OFFCURVE",
"22 -64 OFFCURVE",
"22 -31 CURVE SMOOTH",
"22 17 OFFCURVE",
"96 75 OFFCURVE",
"261 75 CURVE SMOOTH",
"549 75 OFFCURVE",
"829 -52 OFFCURVE",
"829 -203 CURVE SMOOTH",
"829 -277 OFFCURVE",
"810 -294 OFFCURVE",
"783 -300 CURVE",
"783 -305 OFFCURVE",
"786 -311 OFFCURVE",
"797 -311 CURVE SMOOTH",
"799 -311 LINE SMOOTH"
);
},
{
closed = 1;
nodes = (
"700 -511 OFFCURVE",
"732 -510 OFFCURVE",
"765 -505 CURVE SMOOTH",
"1037 -463 OFFCURVE",
"1153 -319 OFFCURVE",
"1302 -60 CURVE SMOOTH",
"1473 237 OFFCURVE",
"1506 478 OFFCURVE",
"1637 701 CURVE",
"1645 701 OFFCURVE",
"1668 709 OFFCURVE",
"1680 709 CURVE",
"1719 721 OFFCURVE",
"1762 736 OFFCURVE",
"1762 777 CURVE SMOOTH",
"1762 797 OFFCURVE",
"1747 807 OFFCURVE",
"1727 807 CURVE SMOOTH",
"1720 807 OFFCURVE",
"1713 806 OFFCURVE",
"1706 804 CURVE SMOOTH",
"1672 793 OFFCURVE",
"1633 738 OFFCURVE",
"1624 724 CURVE",
"1440 700 OFFCURVE",
"1103 606 OFFCURVE",
"1065 374 CURVE SMOOTH",
"1063 363 OFFCURVE",
"1062 353 OFFCURVE",
"1062 343 CURVE SMOOTH",
"1062 262 OFFCURVE",
"1118 209 OFFCURVE",
"1191 209 CURVE SMOOTH",
"1209 209 OFFCURVE",
"1228 212 OFFCURVE",
"1247 219 CURVE SMOOTH",
"1316 243 OFFCURVE",
"1370 312 OFFCURVE",
"1370 379 CURVE SMOOTH",
"1370 395 OFFCURVE",
"1367 410 OFFCURVE",
"1361 425 CURVE",
"1356 431 OFFCURVE",
"1350 434 OFFCURVE",
"1345 434 CURVE SMOOTH",
"1339 434 OFFCURVE",
"1334 430 OFFCURVE",
"1334 425 CURVE SMOOTH",
"1334 422 OFFCURVE",
"1336 419 OFFCURVE",
"1340 417 CURVE",
"1344 413 OFFCURVE",
"1348 400 OFFCURVE",
"1348 384 CURVE SMOOTH",
"1348 341 OFFCURVE",
"1326 271 OFFCURVE",
"1247 243 CURVE SMOOTH",
"1232 238 OFFCURVE",
"1219 235 OFFCURVE",
"1207 235 CURVE SMOOTH",
"1158 235 OFFCURVE",
"1130 277 OFFCURVE",
"1130 336 CURVE SMOOTH",
"1130 347 OFFCURVE",
"1130 355 OFFCURVE",
"1132 367 CURVE SMOOTH",
"1164 563 OFFCURVE",
"1444 671 OFFCURVE",
"1607 697 CURVE",
"1585 662 OFFCURVE",
"1517 547 OFFCURVE",
"1446 391 CURVE SMOOTH",
"1402 294 OFFCURVE",
"1334 121 OFFCURVE",
"1241 -45 CURVE SMOOTH",
"1133 -239 OFFCURVE",
"989 -424 OFFCURVE",
"753 -472 CURVE SMOOTH",
"730 -477 OFFCURVE",
"704 -479 OFFCURVE",
"678 -479 CURVE SMOOTH",
"511 -479 OFFCURVE",
"413 -372 OFFCURVE",
"413 -289 CURVE SMOOTH",
"413 -192 OFFCURVE",
"438 -149 OFFCURVE",
"505 -122 CURVE SMOOTH",
"511 -120 OFFCURVE",
"518 -115 OFFCURVE",
"518 -112 CURVE SMOOTH",
"518 -110 OFFCURVE",
"515 -109 OFFCURVE",
"509 -109 CURVE SMOOTH",
"506 -109 LINE",
"409 -127 OFFCURVE",
"372 -211 OFFCURVE",
"372 -290 CURVE SMOOTH",
"372 -397 OFFCURVE",
"452 -511 OFFCURVE",
"669 -511 CURVE SMOOTH"
);
},
{
closed = 1;
nodes = (
"1672 744 OFFCURVE",
"1702 780 OFFCURVE",
"1714 775 CURVE",
"1718 775 OFFCURVE",
"1724 770 OFFCURVE",
"1724 763 CURVE SMOOTH",
"1724 751 OFFCURVE",
"1710 735 OFFCURVE",
"1655 726 CURVE"
);
}
);
userData = {
com.hugojourdan.ColorFlow = {
"0" = 0;
"1" = 0;
"10" = 0;
"11" = 0;
"2" = 0;
"3" = 0;
"4" = 0;
"5" = 0;
"6" = 0;
"7" = 0;
"8" = 0;
"9" = 0;
};
};
width = 1430;
}
);
unicode = 01C7;
},
{
glyphname = Lbelt;
lastChange = "2024-03-16 00:22:22 +0000";
layers = (
{
anchors = (
{
name = bottom;
position = "{427, -87}";
},
{
name = center;
position = "{668, 229}";
},
{
name = top;
position = "{870, 862}";
},
{
name = topright;
position = "{1037, 860}";
}
);
layerId = "61E7180A-0B32-4047-B910-001D8BB62225";
paths = (
{
closed = 1;
nodes = (
"335 332 OFFCURVE",
"325 313 OFFCURVE",
"325 294 CURVE SMOOTH",
"325 278 OFFCURVE",
"332 261 OFFCURVE",
"348 245 CURVE SMOOTH",
"388 210 OFFCURVE",
"481 196 OFFCURVE",
"569 196 CURVE SMOOTH",
"639 196 OFFCURVE",
"706 205 OFFCURVE",
"740 219 CURVE SMOOTH",
"744 221 OFFCURVE",
"747 223 OFFCURVE",
"747 229 CURVE SMOOTH",
"747 232 OFFCURVE",
"746 238 OFFCURVE",
"736 238 CURVE SMOOTH",
"735 238 LINE SMOOTH",
"702 233 OFFCURVE",
"662 230 OFFCURVE",
"620 230 CURVE SMOOTH",
"531 230 OFFCURVE",
"436 243 OFFCURVE",
"403 277 CURVE SMOOTH",
"393 287 OFFCURVE",
"387 298 OFFCURVE",
"387 310 CURVE SMOOTH",
"387 322 OFFCURVE",
"393 336 OFFCURVE",
"407 350 CURVE SMOOTH",
"426 369 OFFCURVE",
"495 375 OFFCURVE",
"524 375 CURVE",
"526 377 OFFCURVE",
"534 381 OFFCURVE",
"534 385 CURVE SMOOTH",
"534 387 OFFCURVE",
"533 388 OFFCURVE",
"532 389 CURVE SMOOTH",
"525 396 OFFCURVE",
"509 400 OFFCURVE",
"488 400 CURVE SMOOTH",
"446 400 OFFCURVE",
"387 384 OFFCURVE",
"348 345 CURVE SMOOTH"
);
},
{
closed = 1;
nodes = (
"796 -335 OFFCURVE",
"803 -333 OFFCURVE",
"812 -328 CURVE SMOOTH",
"821 -324 OFFCURVE",
"830 -314 OFFCURVE",
"838 -300 CURVE SMOOTH",
"844 -290 OFFCURVE",
"847 -274 OFFCURVE",
"847 -256 CURVE SMOOTH",
"847 -201 OFFCURVE",
"818 -121 OFFCURVE",
"744 -64 CURVE SMOOTH",
"654 6 OFFCURVE",
"515 61 OFFCURVE",
"416 85 CURVE",
"425 99 OFFCURVE",
"428 103 OFFCURVE",
"437 120 CURVE SMOOTH",
"483 203 OFFCURVE",
"574 393 OFFCURVE",
"604 454 CURVE",
"771 454 OFFCURVE",
"963 566 OFFCURVE",
"963 764 CURVE SMOOTH",
"963 772 OFFCURVE",
"963 775 OFFCURVE",
"962 787 CURVE SMOOTH",
"959 825 OFFCURVE",
"922 862 OFFCURVE",
"870 862 CURVE SMOOTH",
"797 862 OFFCURVE",
"703 791 OFFCURVE",
"635 646 CURVE SMOOTH",
"614 602 OFFCURVE",
"574 502 OFFCURVE",
"562 474 CURVE",
"545 472 OFFCURVE",
"530 471 OFFCURVE",
"515 471 CURVE SMOOTH",
"390 471 OFFCURVE",
"339 540 OFFCURVE",
"339 616 CURVE SMOOTH",
"339 704 OFFCURVE",
"408 801 OFFCURVE",
"513 814 CURVE SMOOTH",
"535 817 OFFCURVE",
"545 823 OFFCURVE",
"545 828 CURVE SMOOTH",
"545 831 OFFCURVE",
"540 834 OFFCURVE",
"530 834 CURVE SMOOTH",
"525 834 OFFCURVE",
"519 834 OFFCURVE",
"512 832 CURVE SMOOTH",
"357 796 OFFCURVE",
"290 713 OFFCURVE",
"290 634 CURVE SMOOTH",
"290 536 OFFCURVE",
"389 445 OFFCURVE",
"548 450 CURVE",
"512 375 OFFCURVE",
"416 153 OFFCURVE",
"378 94 CURVE",
"349 100 OFFCURVE",
"314 102 OFFCURVE",
"279 102 CURVE SMOOTH",
"223 102 OFFCURVE",
"169 96 OFFCURVE",
"127 84 CURVE SMOOTH",
"20 52 OFFCURVE",
"-22 -1 OFFCURVE",
"-22 -51 CURVE SMOOTH",
"-22 -104 OFFCURVE",
"30 -150 OFFCURVE",
"105 -150 CURVE SMOOTH",
"136 -150 OFFCURVE",
"171 -142 OFFCURVE",
"208 -124 CURVE SMOOTH",
"274 -93 OFFCURVE",
"334 -33 OFFCURVE",
"386 39 CURVE",
"514 15 OFFCURVE",
"653 -14 OFFCURVE",
"749 -101 CURVE SMOOTH",
"795 -142 OFFCURVE",
"808 -197 OFFCURVE",
"808 -241 CURVE SMOOTH",
"808 -265 OFFCURVE",
"805 -285 OFFCURVE",
"799 -297 CURVE SMOOTH",
"792 -312 OFFCURVE",
"780 -335 OFFCURVE",
"792 -335 CURVE SMOOTH"
);
},
{
closed = 1;
nodes = (
"35 -121 OFFCURVE",
"-1 -94 OFFCURVE",
"-1 -61 CURVE SMOOTH",
"-1 -22 OFFCURVE",
"48 18 OFFCURVE",
"137 42 CURVE SMOOTH",
"173 52 OFFCURVE",
"212 56 OFFCURVE",
"248 56 CURVE SMOOTH",
"282 56 OFFCURVE",
"316 53 OFFCURVE",
"347 46 CURVE",
"299 -22 OFFCURVE",
"247 -69 OFFCURVE",
"192 -96 CURVE SMOOTH",
"154 -114 OFFCURVE",
"120 -121 OFFCURVE",
"91 -121 CURVE SMOOTH"
);
},
{
closed = 1;
nodes = (
"638 521 OFFCURVE",
"662 559 OFFCURVE",
"691 610 CURVE SMOOTH",
"754 722 OFFCURVE",
"840 801 OFFCURVE",
"886 801 CURVE SMOOTH",
"908 801 OFFCURVE",
"921 785 OFFCURVE",
"921 762 CURVE SMOOTH",
"921 578 OFFCURVE",
"775 481 OFFCURVE",
"618 481 CURVE"
);
}
);
userData = {
com.hugojourdan.ColorFlow = {
"0" = 0;
"1" = 0;
"10" = 0;
"11" = 0;
"2" = 0;
"3" = 0;
"4" = 0;
"5" = 0;
"6" = 0;
"7" = 0;
"8" = 0;
"9" = 0;
};
};
width = 716;
}
);
unicode = A7AD;
},
{
color = 4;
glyphname = Ldoublebar;
lastChange = "2024-03-16 00:22:22 +0000";
layers = (
{
anchors = (
{
name = top;
position = "{449.879, 192}";
}
);
color = 9;
layerId = "61E7180A-0B32-4047-B910-001D8BB62225";
paths = (
{
closed = 1;
nodes = (
"821 -311 OFFCURVE",
"868 -286 OFFCURVE",
"868 -203 CURVE SMOOTH",
"868 -42 OFFCURVE",
"561 136 OFFCURVE",
"261 136 CURVE SMOOTH",
"80 136 OFFCURVE",
"-3 53 OFFCURVE",
"-3 -17 CURVE SMOOTH",
"-3 -68 OFFCURVE",
"42 -113 OFFCURVE",
"126 -113 CURVE SMOOTH",
"360 -113 OFFCURVE",
"516 283 OFFCURVE",
"565 390 CURVE SMOOTH",
"656 592 OFFCURVE",
"740 823 OFFCURVE",
"857 823 CURVE SMOOTH",
"891 823 OFFCURVE",
"907 799 OFFCURVE",
"907 762 CURVE SMOOTH",
"907 638 OFFCURVE",
"746 398 OFFCURVE",
"530 398 CURVE SMOOTH",
"352 398 OFFCURVE",
"301 476 OFFCURVE",
"301 551 CURVE SMOOTH",
"301 649 OFFCURVE",
"398 749 OFFCURVE",
"499 749 CURVE",
"499 754 OFFCURVE",
"497 765 OFFCURVE",
"487 765 CURVE SMOOTH",
"351 765 OFFCURVE",
"245 662 OFFCURVE",
"245 557 CURVE SMOOTH",
"245 470 OFFCURVE",
"313 378 OFFCURVE",
"530 378 CURVE SMOOTH",
"756 378 OFFCURVE",
"950 629 OFFCURVE",
"950 780 CURVE SMOOTH",
"950 835 OFFCURVE",
"922 873 OFFCURVE",
"857 873 CURVE SMOOTH",
"674 873 OFFCURVE",
"606 666 OFFCURVE",
"541 474 CURVE SMOOTH",
"502 359 OFFCURVE",
"349 -93 OFFCURVE",
"126 -93 CURVE SMOOTH",
"59 -93 OFFCURVE",
"22 -64 OFFCURVE",
"22 -31 CURVE SMOOTH",
"22 17 OFFCURVE",
"96 75 OFFCURVE",
"261 75 CURVE SMOOTH",
"549 75 OFFCURVE",
"829 -52 OFFCURVE",
"829 -203 CURVE SMOOTH",
"829 -277 OFFCURVE",
"810 -294 OFFCURVE",
"783 -300 CURVE",
"783 -305 OFFCURVE",
"786 -311 OFFCURVE",
"797 -311 CURVE SMOOTH",
"799 -311 LINE SMOOTH"
);
},
{
closed = 1;
nodes = (
"656 283 LINE SMOOTH",
"688 283 OFFCURVE",
"688 309 OFFCURVE",
"688 314 CURVE",
"378 314 LINE",
"352 314 OFFCURVE",
"345 291 OFFCURVE",
"345 283 CURVE"
);
},
{
closed = 1;
nodes = (
"635 195 LINE SMOOTH",
"667 195 OFFCURVE",
"667 221 OFFCURVE",
"667 226 CURVE",
"357 226 LINE",
"331 226 OFFCURVE",
"324 203 OFFCURVE",
"324 195 CURVE"
);
}
);
userData = {
com.hugojourdan.ColorFlow = {
"0" = 0;
"1" = 0;
"10" = 0;
"11" = 0;
"2" = 0;
"3" = 0;
"4" = 0;
"5" = 0;
"6" = 0;
"7" = 0;
"8" = 0;
"9" = 1;
};
com.hugojourdan.ColorFlow_Color_9 = "9";
};
width = 716;
}
);
unicode = 2C60;
},
{
color = 9;
glyphname = Lmiddletilde;
lastChange = "2024-03-16 00:22:22 +0000";
layers = (
{
layerId = "61E7180A-0B32-4047-B910-001D8BB62225";
paths = (
{
closed = 1;
nodes = (
"796 -335 OFFCURVE",
"803 -333 OFFCURVE",
"812 -328 CURVE SMOOTH",
"821 -324 OFFCURVE",
"830 -314 OFFCURVE",
"838 -300 CURVE SMOOTH",
"844 -290 OFFCURVE",
"847 -274 OFFCURVE",
"847 -256 CURVE SMOOTH",
"847 -201 OFFCURVE",
"818 -121 OFFCURVE",
"744 -64 CURVE SMOOTH",
"654 6 OFFCURVE",
"515 61 OFFCURVE",
"416 85 CURVE",
"425 99 OFFCURVE",
"428 103 OFFCURVE",
"437 120 CURVE SMOOTH",
"483 203 OFFCURVE",
"574 393 OFFCURVE",
"604 454 CURVE",
"771 454 OFFCURVE",
"963 566 OFFCURVE",
"963 764 CURVE SMOOTH",
"963 772 OFFCURVE",
"963 775 OFFCURVE",
"962 787 CURVE SMOOTH",
"959 825 OFFCURVE",
"922 862 OFFCURVE",
"870 862 CURVE SMOOTH",
"797 862 OFFCURVE",
"703 791 OFFCURVE",
"635 646 CURVE SMOOTH",
"614 602 OFFCURVE",
"574 502 OFFCURVE",
"562 474 CURVE",
"545 472 OFFCURVE",
"530 471 OFFCURVE",
"515 471 CURVE SMOOTH",
"390 471 OFFCURVE",
"339 540 OFFCURVE",
"339 616 CURVE SMOOTH",
"339 704 OFFCURVE",
"408 801 OFFCURVE",
"513 814 CURVE SMOOTH",
"535 817 OFFCURVE",
"545 823 OFFCURVE",
"545 828 CURVE SMOOTH",
"545 831 OFFCURVE",
"540 834 OFFCURVE",
"530 834 CURVE SMOOTH",
"525 834 OFFCURVE",
"519 834 OFFCURVE",
"512 832 CURVE SMOOTH",
"357 796 OFFCURVE",
"290 713 OFFCURVE",
"290 634 CURVE SMOOTH",
"290 536 OFFCURVE",
"389 445 OFFCURVE",
"548 450 CURVE",
"512 375 OFFCURVE",
"416 153 OFFCURVE",
"378 94 CURVE",
"349 100 OFFCURVE",
"314 102 OFFCURVE",
"279 102 CURVE SMOOTH",
"223 102 OFFCURVE",
"169 96 OFFCURVE",
"127 84 CURVE SMOOTH",
"20 52 OFFCURVE",
"-22 -1 OFFCURVE",
"-22 -51 CURVE SMOOTH",
"-22 -104 OFFCURVE",
"30 -150 OFFCURVE",
"105 -150 CURVE SMOOTH",
"136 -150 OFFCURVE",
"171 -142 OFFCURVE",
"208 -124 CURVE SMOOTH",
"274 -93 OFFCURVE",
"334 -33 OFFCURVE",
"386 39 CURVE",
"514 15 OFFCURVE",
"653 -14 OFFCURVE",
"749 -101 CURVE SMOOTH",
"795 -142 OFFCURVE",
"808 -197 OFFCURVE",
"808 -241 CURVE SMOOTH",
"808 -265 OFFCURVE",
"805 -285 OFFCURVE",
"799 -297 CURVE SMOOTH",
"792 -312 OFFCURVE",
"780 -335 OFFCURVE",
"792 -335 CURVE SMOOTH"
);
},
{
closed = 1;
nodes = (
"35 -121 OFFCURVE",
"-1 -94 OFFCURVE",
"-1 -61 CURVE SMOOTH",
"-1 -22 OFFCURVE",
"48 18 OFFCURVE",
"137 42 CURVE SMOOTH",
"173 52 OFFCURVE",
"212 56 OFFCURVE",
"248 56 CURVE SMOOTH",
"282 56 OFFCURVE",
"316 53 OFFCURVE",
"347 46 CURVE",
"299 -22 OFFCURVE",
"247 -69 OFFCURVE",
"192 -96 CURVE SMOOTH",
"154 -114 OFFCURVE",
"120 -121 OFFCURVE",
"91 -121 CURVE SMOOTH"
);
},
{
closed = 1;
nodes = (
"638 521 OFFCURVE",
"662 559 OFFCURVE",
"691 610 CURVE SMOOTH",
"754 722 OFFCURVE",
"840 801 OFFCURVE",
"886 801 CURVE SMOOTH",
"908 801 OFFCURVE",
"921 785 OFFCURVE",
"921 762 CURVE SMOOTH",
"921 578 OFFCURVE",
"775 481 OFFCURVE",
"618 481 CURVE"
);
},
{
closed = 1;
nodes = (
"694 321 OFFCURVE",
"687 323 OFFCURVE",
"681 323 CURVE SMOOTH",
"677 323 OFFCURVE",
"674 322 OFFCURVE",
"673 320 CURVE SMOOTH",
"663 300 OFFCURVE",
"649 286 OFFCURVE",
"627 286 CURVE SMOOTH",
"584 286 OFFCURVE",
"452 321 OFFCURVE",
"406 321 CURVE SMOOTH",
"365 321 OFFCURVE",
"335 281 OFFCURVE",
"318 250 CURVE",
"317 247 OFFCURVE",
"324 245 OFFCURVE",
"331 245 CURVE SMOOTH",
"335 245 OFFCURVE",
"339 245 OFFCURVE",
"340 248 CURVE",
"349 265 OFFCURVE",
"365 279 OFFCURVE",
"386 279 CURVE SMOOTH",
"428 279 OFFCURVE",
"560 242 OFFCURVE",
"604 242 CURVE SMOOTH",
"646 242 OFFCURVE",
"677 284 OFFCURVE",
"693 318 CURVE SMOOTH"
);
}
);
userData = {
com.hugojourdan.ColorFlow = {
"0" = 0;
"1" = 0;
"10" = 0;
"11" = 0;
"2" = 0;
"3" = 0;
"4" = 0;
"5" = 0;
"6" = 0;
"7" = 0;
"8" = 0;
"9" = 1;
};
com.hugojourdan.ColorFlow_Color_9 = "9";
};
width = 660;
}
);
unicode = 2C62;
},
{
glyphname = Lslash;
lastChange = "2024-03-16 00:22:22 +0000";
layers = (
{
layerId = "61E7180A-0B32-4047-B910-001D8BB62225";
paths = (
{
closed = 1;
nodes = (
"813 -342 OFFCURVE",
"820 -340 OFFCURVE",
"829 -335 CURVE SMOOTH",
"838 -331 OFFCURVE",
"847 -321 OFFCURVE",
"855 -307 CURVE SMOOTH",
"861 -297 OFFCURVE",
"864 -281 OFFCURVE",
"864 -263 CURVE SMOOTH",
"864 -208 OFFCURVE",
"835 -123 OFFCURVE",
"761 -71 CURVE SMOOTH",
"668 -5 OFFCURVE",
"511 59 OFFCURVE",
"412 83 CURVE",
"421 97 OFFCURVE",
"424 101 OFFCURVE",
"433 118 CURVE SMOOTH",
"479 201 OFFCURVE",
"513 265 OFFCURVE",
"577 392 CURVE",
"749 391 OFFCURVE",
"963 566 OFFCURVE",
"963 764 CURVE SMOOTH",
"963 772 OFFCURVE",
"963 775 OFFCURVE",
"962 787 CURVE SMOOTH",
"959 825 OFFCURVE",
"922 862 OFFCURVE",
"870 862 CURVE SMOOTH",
"797 862 OFFCURVE",
"692 792 OFFCURVE",
"634 628 CURVE",
"634 628 OFFCURVE",
"561 440 OFFCURVE",
"549 412 CURVE",
"532 410 OFFCURVE",
"517 409 OFFCURVE",
"502 409 CURVE SMOOTH",
"377 409 OFFCURVE",
"326 478 OFFCURVE",
"326 554 CURVE SMOOTH",
"326 642 OFFCURVE",
"395 739 OFFCURVE",
"500 752 CURVE SMOOTH",
"522 755 OFFCURVE",
"532 761 OFFCURVE",
"532 766 CURVE SMOOTH",
"532 769 OFFCURVE",
"527 772 OFFCURVE",
"517 772 CURVE SMOOTH",
"512 772 OFFCURVE",
"506 772 OFFCURVE",
"499 770 CURVE SMOOTH",
"344 734 OFFCURVE",
"277 651 OFFCURVE",
"277 572 CURVE SMOOTH",
"277 474 OFFCURVE",
"376 383 OFFCURVE",
"535 388 CURVE",
"465 247 OFFCURVE",
"412 151 OFFCURVE",
"374 92 CURVE",
"345 98 OFFCURVE",
"310 100 OFFCURVE",
"275 100 CURVE SMOOTH",
"219 100 OFFCURVE",
"165 94 OFFCURVE",
"123 82 CURVE SMOOTH",
"16 50 OFFCURVE",
"-26 -3 OFFCURVE",
"-26 -53 CURVE SMOOTH",
"-26 -106 OFFCURVE",
"26 -152 OFFCURVE",
"101 -152 CURVE SMOOTH",
"132 -152 OFFCURVE",
"167 -144 OFFCURVE",
"204 -126 CURVE SMOOTH",
"270 -95 OFFCURVE",
"330 -35 OFFCURVE",
"382 37 CURVE",
"510 13 OFFCURVE",
"670 -31 OFFCURVE",
"766 -108 CURVE SMOOTH",
"814 -147 OFFCURVE",
"825 -204 OFFCURVE",
"825 -248 CURVE SMOOTH",
"825 -272 OFFCURVE",
"822 -292 OFFCURVE",
"816 -304 CURVE SMOOTH",
"809 -319 OFFCURVE",
"797 -342 OFFCURVE",
"809 -342 CURVE SMOOTH"
);
},
{
closed = 1;
nodes = (
"31 -123 OFFCURVE",
"-5 -96 OFFCURVE",
"-5 -63 CURVE SMOOTH",
"-5 -24 OFFCURVE",
"44 16 OFFCURVE",
"133 40 CURVE SMOOTH",
"169 50 OFFCURVE",
"208 54 OFFCURVE",
"244 54 CURVE SMOOTH",
"278 54 OFFCURVE",
"312 51 OFFCURVE",
"343 44 CURVE",
"295 -24 OFFCURVE",
"243 -71 OFFCURVE",
"188 -98 CURVE SMOOTH",
"150 -116 OFFCURVE",
"116 -123 OFFCURVE",
"87 -123 CURVE SMOOTH"
);
},
{
closed = 1;
nodes = (
"384 175 OFFCURVE",
"602 249 OFFCURVE",
"690 276 CURVE SMOOTH",
"702 279 OFFCURVE",
"706 283 OFFCURVE",
"705 289 CURVE SMOOTH",
"704 295 OFFCURVE",
"694 304 OFFCURVE",
"682 301 CURVE SMOOTH",
"582 275 OFFCURVE",
"371 216 OFFCURVE",
"328 206 CURVE SMOOTH",
"317 203 OFFCURVE",
"314 195 OFFCURVE",
"315 185 CURVE SMOOTH",
"317 170 OFFCURVE",
"328 156 OFFCURVE",
"337 159 CURVE SMOOTH"
);
},
{
closed = 1;
nodes = (
"632 504 OFFCURVE",
"671 581 OFFCURVE",
"671 581 CURVE",
"776 788 OFFCURVE",
"840 801 OFFCURVE",
"886 801 CURVE SMOOTH",
"908 801 OFFCURVE",
"921 785 OFFCURVE",
"921 762 CURVE SMOOTH",
"921 578 OFFCURVE",
"738 423 OFFCURVE",
"591 419 CURVE"
);
}
);
userData = {
com.hugojourdan.ColorFlow = {
"0" = 0;
"1" = 0;
"10" = 0;
"11" = 0;
"2" = 0;
"3" = 0;
"4" = 0;
"5" = 0;
"6" = 0;
"7" = 0;
"8" = 0;
"9" = 1;
};
com.hugojourdan.ColorFlow_Color_9 = "9";
};
width = 750;
}
);
note = Lslash;
unicode = 0141;
},
{
glyphname = M;
lastChange = "2024-03-16 00:22:22 +0000";
layers = (
{
anchors = (
{
name = bottom;
position = "{820, -28}";
},
{
name = top;
position = "{1189, 719}";
}
);
layerId = "61E7180A-0B32-4047-B910-001D8BB62225";
paths = (
{
closed = 1;
nodes = (
"1389 -118 OFFCURVE",
"1403 -110 OFFCURVE",
"1403 -105 CURVE SMOOTH",
"1403 -102 OFFCURVE",
"1399 -99 OFFCURVE",
"1388 -99 CURVE SMOOTH",
"1382 -99 LINE SMOOTH",
"1298 -99 OFFCURVE",
"1268 -51 OFFCURVE",
"1268 23 CURVE SMOOTH",
"1268 158 OFFCURVE",
"1363 363 OFFCURVE",
"1422 480 CURVE SMOOTH",
"1448 532 OFFCURVE",
"1461 580 OFFCURVE",
"1461 614 CURVE SMOOTH",
"1461 656 OFFCURVE",
"1442 680 OFFCURVE",
"1407 680 CURVE SMOOTH",
"1350 680 OFFCURVE",
"1257 616 OFFCURVE",
"1155 488 CURVE SMOOTH",
"1071 382 OFFCURVE",
"996 277 OFFCURVE",
"955 213 CURVE",
"996 338 OFFCURVE",
"1041 460 OFFCURVE",
"1053 588 CURVE SMOOTH",
"1054 598 OFFCURVE",
"1054 602 OFFCURVE",
"1054 610 CURVE SMOOTH",
"1054 680 OFFCURVE",
"1019 707 OFFCURVE",
"975 707 CURVE SMOOTH",
"926 707 OFFCURVE",
"868 675 OFFCURVE",
"827 626 CURVE SMOOTH",
"754 537 OFFCURVE",
"711 473 OFFCURVE",
"640 344 CURVE",
"638 344 LINE",
"665 423 OFFCURVE",
"704 550 OFFCURVE",
"704 630 CURVE SMOOTH",
"704 761 OFFCURVE",
"631 816 OFFCURVE",
"533 816 CURVE SMOOTH",
"432 816 OFFCURVE",
"304 758 OFFCURVE",
"200 665 CURVE SMOOTH",
"106 581 OFFCURVE",
"18 454 OFFCURVE",
"18 328 CURVE SMOOTH",
"18 196 OFFCURVE",
"112 117 OFFCURVE",
"221 117 CURVE SMOOTH",
"344 117 OFFCURVE",
"465 250 OFFCURVE",
"465 357 CURVE SMOOTH",
"465 411 OFFCURVE",
"435 451 OFFCURVE",
"375 451 CURVE SMOOTH",
"338 451 OFFCURVE",
"326 442 OFFCURVE",
"326 437 CURVE SMOOTH",
"326 432 OFFCURVE",
"336 428 OFFCURVE",
"345 428 CURVE SMOOTH",
"348 428 LINE SMOOTH",
"355 428 OFFCURVE",
"361 429 OFFCURVE",
"366 429 CURVE SMOOTH",
"413 429 OFFCURVE",
"433 401 OFFCURVE",
"433 362 CURVE SMOOTH",
"433 272 OFFCURVE",
"341 139 OFFCURVE",
"226 139 CURVE SMOOTH",
"142 139 OFFCURVE",
"73 200 OFFCURVE",
"73 313 CURVE SMOOTH",
"73 423 OFFCURVE",
"129 535 OFFCURVE",
"221 627 CURVE SMOOTH",
"316 723 OFFCURVE",
"441 795 OFFCURVE",
"531 795 CURVE SMOOTH",
"599 795 OFFCURVE",
"647 754 OFFCURVE",
"647 652 CURVE SMOOTH",
"647 486 OFFCURVE",
"487 95 OFFCURVE",
"398 -43 CURVE",
"394 -58 OFFCURVE",
"408 -66 OFFCURVE",
"427 -66 CURVE SMOOTH",
"446 -66 OFFCURVE",
"471 -58 OFFCURVE",
"481 -36 CURVE SMOOTH",
"627 290 OFFCURVE",
"676 398 OFFCURVE",
"843 607 CURVE SMOOTH",
"881 655 OFFCURVE",
"921 681 OFFCURVE",
"950 681 CURVE SMOOTH",
"976 681 OFFCURVE",
"994 660 OFFCURVE",
"994 613 CURVE SMOOTH",
"994 553 OFFCURVE",
"962 410 OFFCURVE",
"939 334 CURVE SMOOTH",
"881 145 OFFCURVE",
"804 23 OFFCURVE",
"792 0 CURVE SMOOTH",
"790 -3 OFFCURVE",
"789 -6 OFFCURVE",
"789 -10 CURVE SMOOTH",
"789 -17 OFFCURVE",
"793 -23 OFFCURVE",
"799 -27 CURVE SMOOTH",
"804 -31 OFFCURVE",
"812 -34 OFFCURVE",
"821 -34 CURVE SMOOTH",
"841 -34 OFFCURVE",
"866 -21 OFFCURVE",
"883 20 CURVE SMOOTH",
"919 107 OFFCURVE",
"1091 372 OFFCURVE",
"1155 451 CURVE SMOOTH",
"1252 571 OFFCURVE",
"1329 630 OFFCURVE",
"1367 630 CURVE SMOOTH",
"1383 630 OFFCURVE",
"1392 619 OFFCURVE",
"1392 597 CURVE SMOOTH",
"1392 575 OFFCURVE",
"1383 543 OFFCURVE",
"1365 501 CURVE SMOOTH",
"1296 342 OFFCURVE",
"1206 173 OFFCURVE",
"1206 49 CURVE SMOOTH",
"1206 -96 OFFCURVE",
"1326 -111 OFFCURVE",
"1365 -115 CURVE SMOOTH"
);
}
);
userData = {
com.hugojourdan.ColorFlow = {
"0" = 0;
"1" = 0;
"10" = 0;
"11" = 0;
"2" = 0;
"3" = 0;
"4" = 0;
"5" = 0;
"6" = 0;
"7" = 0;
"8" = 0;
"9" = 0;
};
};
width = 1336;
}
);
note = M;
unicode = 004D;
userData = {
KernOnName = M;
};
},
{
glyphname = Mturned;
lastChange = "2024-03-16 00:22:22 +0000";
layers = (
{
anchors = (
{
name = bottom;
position = "{593, -6}";
},
{
name = top;
position = "{864, 750}";
}
);
layerId = "61E7180A-0B32-4047-B910-001D8BB62225";
paths = (
{
closed = 1;
nodes = (
"132 786 OFFCURVE",
"-89 669 OFFCURVE",
"-89 468 CURVE SMOOTH",
"-89 384 OFFCURVE",
"-20 332 OFFCURVE",
"51 332 CURVE SMOOTH",
"132 332 OFFCURVE",
"231 410 OFFCURVE",
"231 487 CURVE SMOOTH",
"231 522 OFFCURVE",
"210 548 OFFCURVE",
"167 548 CURVE SMOOTH",
"140 548 OFFCURVE",
"132 542 OFFCURVE",
"132 539 CURVE SMOOTH",
"132 533 OFFCURVE",
"153 534 OFFCURVE",
"160 534 CURVE SMOOTH",
"194 534 OFFCURVE",
"208 516 OFFCURVE",
"208 490 CURVE SMOOTH",
"208 424 OFFCURVE",
"134 346 OFFCURVE",
"58 346 CURVE SMOOTH",
"0 346 OFFCURVE",
"-50 386 OFFCURVE",
"-50 459 CURVE SMOOTH",
"-50 601 OFFCURVE",
"140 770 OFFCURVE",
"279 770 CURVE SMOOTH",
"285 770 LINE SMOOTH",
"369 773 OFFCURVE",
"399 722 OFFCURVE",
"399 648 CURVE SMOOTH",
"399 513 OFFCURVE",
"304 308 OFFCURVE",
"245 191 CURVE SMOOTH",
"219 139 OFFCURVE",
"206 91 OFFCURVE",
"206 57 CURVE SMOOTH",
"206 15 OFFCURVE",
"225 -9 OFFCURVE",
"260 -9 CURVE SMOOTH",
"317 -9 OFFCURVE",
"410 55 OFFCURVE",
"512 183 CURVE SMOOTH",
"596 289 OFFCURVE",
"671 394 OFFCURVE",
"712 458 CURVE",
"674 342 OFFCURVE",
"613 165 OFFCURVE",
"613 61 CURVE SMOOTH",
"613 -9 OFFCURVE",
"648 -36 OFFCURVE",
"692 -36 CURVE SMOOTH",
"741 -36 OFFCURVE",
"799 -4 OFFCURVE",
"840 45 CURVE SMOOTH",
"913 134 OFFCURVE",
"943 176 OFFCURVE",
"1005 289 CURVE SMOOTH",
"1013 303 OFFCURVE",
"1017 310 OFFCURVE",
"1021 310 CURVE SMOOTH",
"1022 310 OFFCURVE",
"1023 308 OFFCURVE",
"1023 305 CURVE SMOOTH",
"1023 301 OFFCURVE",
"1021 288 OFFCURVE",
"1017 277 CURVE SMOOTH",
"995 214 OFFCURVE",
"973 145 OFFCURVE",
"965 77 CURVE SMOOTH",
"964 69 OFFCURVE",
"963 51 OFFCURVE",
"963 41 CURVE SMOOTH",
"963 -90 OFFCURVE",
"1036 -145 OFFCURVE",
"1134 -145 CURVE SMOOTH",
"1167 -145 OFFCURVE",
"1167 -124 OFFCURVE",
"1136 -124 CURVE SMOOTH",
"1068 -124 OFFCURVE",
"1020 -83 OFFCURVE",
"1020 19 CURVE SMOOTH",
"1020 36 OFFCURVE",
"1021 55 OFFCURVE",
"1024 76 CURVE SMOOTH",
"1047 239 OFFCURVE",
"1183 581 OFFCURVE",
"1269 714 CURVE",
"1273 729 OFFCURVE",
"1259 737 OFFCURVE",
"1240 737 CURVE SMOOTH",
"1221 737 OFFCURVE",
"1196 729 OFFCURVE",
"1186 707 CURVE SMOOTH",
"1040 381 OFFCURVE",
"991 273 OFFCURVE",
"824 64 CURVE SMOOTH",
"786 16 OFFCURVE",
"746 -10 OFFCURVE",
"717 -10 CURVE SMOOTH",
"691 -10 OFFCURVE",
"673 11 OFFCURVE",
"673 58 CURVE SMOOTH",
"673 136 OFFCURVE",
"717 313 OFFCURVE",
"752 410 CURVE SMOOTH",
"805 557 OFFCURVE",
"865 651 OFFCURVE",
"875 671 CURVE SMOOTH",
"877 674 OFFCURVE",
"878 681 OFFCURVE",
"878 684 CURVE SMOOTH",
"878 697 OFFCURVE",
"864 705 OFFCURVE",
"846 705 CURVE SMOOTH",
"826 705 OFFCURVE",
"805 692 OFFCURVE",
"784 651 CURVE SMOOTH",
"765 614 OFFCURVE",
"728 544 OFFCURVE",
"682 469 CURVE SMOOTH",
"620 371 OFFCURVE",
"549 265 OFFCURVE",
"512 220 CURVE SMOOTH",
"415 100 OFFCURVE",
"338 41 OFFCURVE",
"300 41 CURVE SMOOTH",
"284 41 OFFCURVE",
"275 52 OFFCURVE",
"275 74 CURVE SMOOTH",
"275 96 OFFCURVE",
"284 128 OFFCURVE",
"302 170 CURVE SMOOTH",
"371 329 OFFCURVE",
"461 498 OFFCURVE",
"461 622 CURVE SMOOTH",
"461 767 OFFCURVE",
"343 786 OFFCURVE",
"284 786 CURVE SMOOTH"
);
}
);
userData = {
com.hugojourdan.ColorFlow = {
"0" = 0;
"1" = 0;
"10" = 0;
"11" = 0;
"2" = 0;
"3" = 0;
"4" = 0;
"5" = 0;
"6" = 0;
"7" = 0;
"8" = 0;
"9" = 0;
};
};
width = 1156;
}
);
unicode = 019C;
},
{
glyphname = N;
lastChange = "2024-03-16 00:22:22 +0000";
layers = (
{
anchors = (
{
name = bottom;
position = "{663, 0}";
},
{
name = top;
position = "{1084, 762}";
}
);
layerId = "61E7180A-0B32-4047-B910-001D8BB62225";
paths = (
{
closed = 1;
nodes = (
"1041 -148 OFFCURVE",
"1067 -126 OFFCURVE",
"1067 -111 CURVE SMOOTH",
"1067 -105 OFFCURVE",
"1062 -100 OFFCURVE",
"1052 -100 CURVE SMOOTH",
"1046 -100 OFFCURVE",
"1036 -102 OFFCURVE",
"1024 -108 CURVE SMOOTH",
"1005 -117 OFFCURVE",
"989 -121 OFFCURVE",
"975 -121 CURVE SMOOTH",
"935 -121 OFFCURVE",
"913 -88 OFFCURVE",
"913 -33 CURVE SMOOTH",
"913 194 OFFCURVE",
"1194 500 OFFCURVE",
"1194 671 CURVE SMOOTH",
"1194 743 OFFCURVE",
"1148 766 OFFCURVE",
"1095 766 CURVE SMOOTH",
"962 766 OFFCURVE",
"833 633 OFFCURVE",
"749 531 CURVE SMOOTH",
"692 462 OFFCURVE",
"619 359 OFFCURVE",
"585 300 CURVE",
"602 325 OFFCURVE",
"697 538 OFFCURVE",
"697 635 CURVE SMOOTH",
"697 753 OFFCURVE",
"622 795 OFFCURVE",
"533 795 CURVE SMOOTH",
"250 795 OFFCURVE",
"-3 531 OFFCURVE",
"-3 319 CURVE SMOOTH",
"-3 195 OFFCURVE",
"83 122 OFFCURVE",
"180 122 CURVE SMOOTH",
"348 122 OFFCURVE",
"463 275 OFFCURVE",
"463 372 CURVE SMOOTH",
"463 417 OFFCURVE",
"438 450 OFFCURVE",
"383 450 CURVE SMOOTH",
"369 450 OFFCURVE",
"355 449 OFFCURVE",
"338 444 CURVE SMOOTH",
"335 443 OFFCURVE",
"328 440 OFFCURVE",
"328 435 CURVE SMOOTH",
"328 432 OFFCURVE",
"330 428 OFFCURVE",
"335 428 CURVE SMOOTH",
"341 428 OFFCURVE",
"348 430 OFFCURVE",
"362 430 CURVE SMOOTH",
"405 430 OFFCURVE",
"425 402 OFFCURVE",
"425 363 CURVE SMOOTH",
"425 278 OFFCURVE",
"323 141 OFFCURVE",
"182 141 CURVE SMOOTH",
"99 141 OFFCURVE",
"57 205 OFFCURVE",
"57 292 CURVE SMOOTH",
"57 540 OFFCURVE",
"343 770 OFFCURVE",
"521 770 CURVE SMOOTH",
"592 770 OFFCURVE",
"640 734 OFFCURVE",
"640 641 CURVE SMOOTH",
"640 490 OFFCURVE",
"460 80 OFFCURVE",
"375 -43 CURVE",
"371 -58 OFFCURVE",
"385 -65 OFFCURVE",
"403 -65 CURVE SMOOTH",
"423 -65 OFFCURVE",
"449 -55 OFFCURVE",
"458 -36 CURVE SMOOTH",
"524 101 OFFCURVE",
"632 345 OFFCURVE",
"769 510 CURVE SMOOTH",
"844 601 OFFCURVE",
"979 719 OFFCURVE",
"1070 719 CURVE SMOOTH",
"1097 719 OFFCURVE",
"1126 706 OFFCURVE",
"1126 675 CURVE SMOOTH",
"1126 562 OFFCURVE",
"855 156 OFFCURVE",
"855 -9 CURVE SMOOTH",
"855 -92 OFFCURVE",
"901 -143 OFFCURVE",
"1001 -147 CURVE SMOOTH"
);
}
);
userData = {
com.hugojourdan.ColorFlow = {
"0" = 0;
"1" = 0;
"10" = 0;
"11" = 0;
"2" = 0;
"3" = 0;
"4" = 0;
"5" = 0;
"6" = 0;
"7" = 0;
"8" = 0;
"9" = 0;
};
};
width = 1044;
}
);
note = N;
unicode = 004E;
userData = {
KernOnName = N;
};
},
{
glyphname = Nhookleft;
lastChange = "2024-03-16 00:22:22 +0000";
layers = (
{
anchors = (
{
name = bottom;
position = "{486, -75}";
},
{
name = top;
position = "{874, 786}";
}
);
layerId = "61E7180A-0B32-4047-B910-001D8BB62225";
paths = (
{
closed = 1;
nodes = (
"192 -114 OFFCURVE",
"67 -234 CURVE SMOOTH",
"-12 -309 OFFCURVE",
"-104 -356 OFFCURVE",
"-202 -356 CURVE SMOOTH",
"-257 -356 OFFCURVE",
"-292 -337 OFFCURVE",
"-292 -303 CURVE SMOOTH",
"-292 -209 OFFCURVE",
"-106 -139 OFFCURVE",
"9 -124 CURVE SMOOTH",
"78 -115 LINE SMOOTH",
"89 -114 OFFCURVE",
"93 -106 OFFCURVE",
"93 -101 CURVE SMOOTH",
"93 -96 OFFCURVE",
"90 -95 OFFCURVE",
"81 -95 CURVE SMOOTH",
"51 -95 OFFCURVE",
"19 -100 OFFCURVE",
"-5 -103 CURVE SMOOTH",
"-189 -129 OFFCURVE",
"-343 -222 OFFCURVE",
"-343 -304 CURVE SMOOTH",
"-343 -351 OFFCURVE",
"-298 -384 OFFCURVE",
"-201 -384 CURVE SMOOTH",
"57 -384 OFFCURVE",
"237 -190 OFFCURVE",
"407 175 CURVE SMOOTH",
"497 368 OFFCURVE",
"727 719 OFFCURVE",
"910 719 CURVE SMOOTH",
"937 719 OFFCURVE",
"960 706 OFFCURVE",
"960 665 CURVE SMOOTH",
"960 586 OFFCURVE",
"751 208 OFFCURVE",
"719 113 CURVE SMOOTH",
"703 66 OFFCURVE",
"695 25 OFFCURVE",
"695 -9 CURVE SMOOTH",
"695 -103 OFFCURVE",
"758 -147 OFFCURVE",
"841 -147 CURVE SMOOTH",
"881 -147 OFFCURVE",
"907 -126 OFFCURVE",
"907 -110 CURVE SMOOTH",
"907 -104 OFFCURVE",
"902 -100 OFFCURVE",
"896 -100 CURVE SMOOTH",
"889 -100 OFFCURVE",
"868 -123 OFFCURVE",
"827 -123 CURVE SMOOTH",
"775 -123 OFFCURVE",
"753 -88 OFFCURVE",
"753 -33 CURVE SMOOTH",
"753 16 OFFCURVE",
"769 83 OFFCURVE",
"805 161 CURVE SMOOTH",
"905 380 OFFCURVE",
"1034 569 OFFCURVE",
"1034 673 CURVE SMOOTH",
"1034 743 OFFCURVE",
"987 766 OFFCURVE",
"935 766 CURVE SMOOTH",
"818 766 OFFCURVE",
"693 659 OFFCURVE",
"589 534 CURVE SMOOTH",
"535 468 OFFCURVE",
"507 419 OFFCURVE",
"448 339 CURVE",
"456 333 LINE",
"472 378 OFFCURVE",
"529 530 OFFCURVE",
"529 617 CURVE SMOOTH",
"529 735 OFFCURVE",
"449 779 OFFCURVE",
"368 779 CURVE SMOOTH",
"331 779 OFFCURVE",
"309 771 OFFCURVE",
"309 764 CURVE SMOOTH",
"309 756 OFFCURVE",
"317 746 OFFCURVE",
"338 746 CURVE SMOOTH",
"347 746 OFFCURVE",
"360 749 OFFCURVE",
"369 749 CURVE SMOOTH",
"432 749 OFFCURVE",
"476 704 OFFCURVE",
"476 620 CURVE SMOOTH",
"476 532 OFFCURVE",
"435 395 OFFCURVE",
"397 307 CURVE SMOOTH",
"325 140 OFFCURVE"
);
}
);
userData = {
com.hugojourdan.ColorFlow = {
"0" = 0;
"1" = 0;
"10" = 0;
"11" = 0;
"2" = 0;
"3" = 0;
"4" = 0;
"5" = 0;
"6" = 0;
"7" = 0;
"8" = 0;
"9" = 0;
};
};
width = 884;
}
);
unicode = 019D;
},
{
glyphname = Nlongrightleg;
lastChange = "2024-03-16 00:22:22 +0000";
layers = (
{
anchors = (
{
name = bottom;
position = "{272, -75}";
},
{
name = top;
position = "{710, 786}";
}
);
layerId = "61E7180A-0B32-4047-B910-001D8BB62225";
paths = (
{
closed = 1;
nodes = (
"424 -279 OFFCURVE",
"439 -288 OFFCURVE",
"455 -288 CURVE SMOOTH",
"475 -288 OFFCURVE",
"497 -273 OFFCURVE",
"493 -234 CURVE SMOOTH",
"492 -225 OFFCURVE",
"492 -215 OFFCURVE",
"492 -205 CURVE SMOOTH",
"492 57 OFFCURVE",
"820 505 OFFCURVE",
"820 671 CURVE SMOOTH",
"820 743 OFFCURVE",
"774 766 OFFCURVE",
"721 766 CURVE SMOOTH",
"687 766 OFFCURVE",
"649 756 OFFCURVE",
"614 740 CURVE SMOOTH",
"536 704 OFFCURVE",
"450 622 OFFCURVE",
"375 531 CURVE SMOOTH",
"317 461 OFFCURVE",
"274 399 OFFCURVE",
"243 351 CURVE SMOOTH",
"231 332 OFFCURVE",
"211 295 OFFCURVE",
"211 300 CURVE SMOOTH",
"211 302 OFFCURVE",
"218 319 OFFCURVE",
"237 361 CURVE SMOOTH",
"272 436 OFFCURVE",
"312 516 OFFCURVE",
"320 594 CURVE SMOOTH",
"322 611 OFFCURVE",
"323 621 OFFCURVE",
"323 635 CURVE SMOOTH",
"323 753 OFFCURVE",
"244 797 OFFCURVE",
"148 797 CURVE SMOOTH",
"114 797 OFFCURVE",
"99 790 OFFCURVE",
"99 783 CURVE SMOOTH",
"99 775 OFFCURVE",
"118 767 OFFCURVE",
"150 767 CURVE SMOOTH",
"218 767 OFFCURVE",
"266 731 OFFCURVE",
"266 638 CURVE SMOOTH",
"266 614 OFFCURVE",
"263 587 OFFCURVE",
"256 556 CURVE SMOOTH",
"208 343 OFFCURVE",
"51 30 OFFCURVE",
"1 -43 CURVE",
"-3 -58 OFFCURVE",
"11 -65 OFFCURVE",
"29 -65 CURVE SMOOTH",
"49 -65 OFFCURVE",
"75 -55 OFFCURVE",
"84 -36 CURVE SMOOTH",
"150 101 OFFCURVE",
"255 345 OFFCURVE",
"393 512 CURVE SMOOTH",
"466 600 OFFCURVE",
"544 662 OFFCURVE",
"618 697 CURVE SMOOTH",
"647 711 OFFCURVE",
"674 719 OFFCURVE",
"696 719 CURVE SMOOTH",
"740 719 OFFCURVE",
"741 695 OFFCURVE",
"741 659 CURVE SMOOTH",
"741 483 OFFCURVE",
"418 56 OFFCURVE",
"418 -216 CURVE SMOOTH",
"418 -233 OFFCURVE",
"419 -250 OFFCURVE",
"422 -266 CURVE SMOOTH"
);
}
);
userData = {
com.hugojourdan.ColorFlow = {
"0" = 0;
"1" = 0;
"10" = 0;
"11" = 0;
"2" = 0;
"3" = 0;
"4" = 0;
"5" = 0;
"6" = 0;
"7" = 0;
"8" = 0;
"9" = 0;
};
};
width = 670;
}
);
unicode = 0220;
},
{
glyphname = Eng;
lastChange = "2024-03-16 00:22:22 +0000";
layers = (
{
anchors = (
{
name = bottom;
position = "{95, -303}";
},
{
name = top;
position = "{722, 750}";
}
);
layerId = "61E7180A-0B32-4047-B910-001D8BB62225";
paths = (
{
closed = 1;
nodes = (
"327 -319 OFFCURVE",
"418 -182 OFFCURVE",
"483 -68 CURVE",
"620 -42 OFFCURVE",
"700 -1 OFFCURVE",
"779 184 CURVE",
"779 190 OFFCURVE",
"776 193 OFFCURVE",
"767 193 CURVE",
"737 133 OFFCURVE",
"713 89 OFFCURVE",
"667 39 CURVE SMOOTH",
"636 5 OFFCURVE",
"566 -34 OFFCURVE",
"491 -42 CURVE",
"523 23 OFFCURVE",
"820 555 OFFCURVE",
"820 671 CURVE SMOOTH",
"820 743 OFFCURVE",
"774 766 OFFCURVE",
"721 766 CURVE SMOOTH",
"588 766 OFFCURVE",
"459 633 OFFCURVE",
"375 531 CURVE SMOOTH",
"317 461 OFFCURVE",
"246 357 OFFCURVE",
"236 341 CURVE",
"245 370 OFFCURVE",
"323 520 OFFCURVE",
"323 635 CURVE SMOOTH",
"323 753 OFFCURVE",
"244 797 OFFCURVE",
"148 797 CURVE SMOOTH",
"114 797 OFFCURVE",
"99 790 OFFCURVE",
"99 783 CURVE SMOOTH",
"99 775 OFFCURVE",
"118 767 OFFCURVE",
"150 767 CURVE SMOOTH",
"218 767 OFFCURVE",
"266 731 OFFCURVE",
"266 638 CURVE SMOOTH",
"266 487 OFFCURVE",
"86 80 OFFCURVE",
"1 -43 CURVE",
"-3 -58 OFFCURVE",
"11 -65 OFFCURVE",
"29 -65 CURVE SMOOTH",
"49 -65 OFFCURVE",
"75 -55 OFFCURVE",
"84 -36 CURVE SMOOTH",
"150 101 OFFCURVE",
"258 345 OFFCURVE",
"396 512 CURVE SMOOTH",
"470 601 OFFCURVE",
"605 719 OFFCURVE",
"696 719 CURVE SMOOTH",
"723 719 OFFCURVE",
"742 706 OFFCURVE",
"742 675 CURVE SMOOTH",
"742 538 OFFCURVE",
"435 -5 OFFCURVE",
"407 -61 CURVE",
"318 -75 OFFCURVE",
"235 -80 OFFCURVE",
"160 -112 CURVE SMOOTH",
"91 -142 OFFCURVE",
"40 -194 OFFCURVE",
"40 -250 CURVE SMOOTH",
"40 -287 OFFCURVE",
"65 -319 OFFCURVE",
"139 -319 CURVE SMOOTH"
);
},
{
closed = 1;
nodes = (
"86 -296 OFFCURVE",
"69 -278 OFFCURVE",
"69 -253 CURVE SMOOTH",
"69 -214 OFFCURVE",
"108 -162 OFFCURVE",
"179 -135 CURVE SMOOTH",
"243 -110 OFFCURVE",
"320 -104 OFFCURVE",
"386 -94 CURVE",
"379 -108 OFFCURVE",
"361 -130 OFFCURVE",
"325 -174 CURVE SMOOTH",
"301 -204 OFFCURVE",
"220 -296 OFFCURVE",
"122 -296 CURVE SMOOTH"
);
}
);
userData = {
com.hugojourdan.ColorFlow = {
"0" = 0;
"1" = 0;
"10" = 0;
"11" = 0;
"2" = 0;
"3" = 0;
"4" = 0;
"5" = 0;
"6" = 0;
"7" = 0;
"8" = 0;
"9" = 0;
};
};
width = 708;
}
);
note = Eng;
unicode = 014A;
},
{
glyphname = O;
lastChange = "2024-03-16 00:22:22 +0000";
layers = (
{
anchors = (
{
name = bottom;
position = "{302, -48}";
},
{
name = center;
position = "{365, 209}";
},
{
name = ogonek;
position = "{312, -48}";
},
{
name = top;
position = "{538, 801}";
},
{
name = topleft;
position = "{20, 706}";
},
{
name = topright;
position = "{674, 645}";
}
);
layerId = "61E7180A-0B32-4047-B910-001D8BB62225";
paths = (
{
closed = 1;
nodes = (
"503 -61 OFFCURVE",
"684 129 OFFCURVE",
"736 291 CURVE SMOOTH",
"749 331 OFFCURVE",
"756 369 OFFCURVE",
"758 398 CURVE",
"823 438 OFFCURVE",
"871 491 OFFCURVE",
"905 543 CURVE SMOOTH",
"914 557 OFFCURVE",
"911 570 OFFCURVE",
"904 570 CURVE SMOOTH",
"900 570 OFFCURVE",
"898 568 OFFCURVE",
"894 561 CURVE SMOOTH",
"872 522 OFFCURVE",
"825 473 OFFCURVE",
"762 434 CURVE",
"772 673 OFFCURVE",
"598 780 OFFCURVE",
"419 780 CURVE SMOOTH",
"237 780 OFFCURVE",
"50 669 OFFCURVE",
"50 486 CURVE SMOOTH",
"50 416 OFFCURVE",
"73 371 OFFCURVE",
"129 332 CURVE",
"109 280 OFFCURVE",
"99 229 OFFCURVE",
"99 181 CURVE SMOOTH",
"99 26 OFFCURVE",
"180 -61 OFFCURVE",
"316 -61 CURVE SMOOTH"
);
},
{
closed = 1;
nodes = (
"225 -37 OFFCURVE",
"153 25 OFFCURVE",
"153 149 CURVE SMOOTH",
"153 199 OFFCURVE",
"164 253 OFFCURVE",
"184 304 CURVE",
"230 286 OFFCURVE",
"286 277 OFFCURVE",
"346 277 CURVE SMOOTH",
"458 277 OFFCURVE",
"587 308 OFFCURVE",
"695 366 CURVE",
"693 343 OFFCURVE",
"686 318 OFFCURVE",
"678 295 CURVE SMOOTH",
"620 130 OFFCURVE",
"472 -37 OFFCURVE",
"324 -37 CURVE SMOOTH"
);
},
{
closed = 1;
nodes = (
"291 310 OFFCURVE",
"238 320 OFFCURVE",
"198 339 CURVE",
"237 427 OFFCURVE",
"375 631 OFFCURVE",
"495 631 CURVE SMOOTH",
"505 631 OFFCURVE",
"514 630 OFFCURVE",
"524 627 CURVE SMOOTH",
"533 624 OFFCURVE",
"540 628 OFFCURVE",
"540 632 CURVE SMOOTH",
"540 635 OFFCURVE",
"537 638 OFFCURVE",
"532 641 CURVE SMOOTH",
"510 654 OFFCURVE",
"487 659 OFFCURVE",
"464 659 CURVE SMOOTH",
"331 659 OFFCURVE",
"194 474 OFFCURVE",
"147 374 CURVE",
"109 407 OFFCURVE",
"104 453 OFFCURVE",
"104 489 CURVE SMOOTH",
"104 646 OFFCURVE",
"250 758 OFFCURVE",
"423 758 CURVE SMOOTH",
"590 758 OFFCURVE",
"704 655 OFFCURVE",
"704 452 CURVE SMOOTH",
"704 436 OFFCURVE",
"704 419 OFFCURVE",
"702 402 CURVE",
"593 344 OFFCURVE",
"461 310 OFFCURVE",
"349 310 CURVE SMOOTH"
);
}
);
userData = {
com.hugojourdan.ColorFlow = {
"0" = 0;
"1" = 0;
"10" = 0;
"11" = 0;
"2" = 0;
"3" = 0;
"4" = 0;
"5" = 0;
"6" = 0;
"7" = 0;
"8" = 0;
"9" = 0;
};
};
width = 730;
}
);
note = O;
unicode = 004F;
userData = {
KernOnName = O;
};
},
{
glyphname = OU;
lastChange = "2024-03-16 00:22:22 +0000";
layers = (
{
layerId = "61E7180A-0B32-4047-B910-001D8BB62225";
paths = (
{
closed = 1;
nodes = (
"506 330 OFFCURVE",
"605 393 OFFCURVE",
"676 503 CURVE SMOOTH",
"715 564 OFFCURVE",
"804 742 OFFCURVE",
"836 775 CURVE",
"772 775 LINE SMOOTH",
"759 775 OFFCURVE",
"741 768 OFFCURVE",
"733 748 CURVE SMOOTH",
"711 691 OFFCURVE",
"684 629 OFFCURVE",
"661 585 CURVE SMOOTH",
"589 445 OFFCURVE",
"538 357 OFFCURVE",
"397 357 CURVE SMOOTH",
"329 357 OFFCURVE",
"305 393 OFFCURVE",
"305 443 CURVE SMOOTH",
"305 487 OFFCURVE",
"323 541 OFFCURVE",
"345 592 CURVE SMOOTH",
"362 632 OFFCURVE",
"405 703 OFFCURVE",
"405 740 CURVE SMOOTH",
"405 756 OFFCURVE",
"397 766 OFFCURVE",
"378 766 CURVE SMOOTH",
"353 766 OFFCURVE",
"313 749 OFFCURVE",
"258 719 CURVE SMOOTH",
"232 704 OFFCURVE",
"225 698 OFFCURVE",
"225 693 CURVE SMOOTH",
"225 688 OFFCURVE",
"229 684 OFFCURVE",
"234 684 CURVE SMOOTH",
"238 684 OFFCURVE",
"241 685 OFFCURVE",
"245 688 CURVE SMOOTH",
"275 711 OFFCURVE",
"293 719 OFFCURVE",
"303 719 CURVE SMOOTH",
"312 719 OFFCURVE",
"315 713 OFFCURVE",
"315 704 CURVE SMOOTH",
"315 681 OFFCURVE",
"294 637 OFFCURVE",
"284 612 CURVE SMOOTH",
"260 553 OFFCURVE",
"247 500 OFFCURVE",
"247 457 CURVE SMOOTH",
"247 378 OFFCURVE",
"291 330 OFFCURVE",
"399 330 CURVE SMOOTH"
);
},
{
closed = 1;
nodes = (
"200 356 OFFCURVE",
"24 267 OFFCURVE",
"24 127 CURVE SMOOTH",
"24 26 OFFCURVE",
"146 -22 OFFCURVE",
"285 -22 CURVE SMOOTH",
"474 -22 OFFCURVE",
"689 67 OFFCURVE",
"689 213 CURVE SMOOTH",
"689 309 OFFCURVE",
"556 356 OFFCURVE",
"403 356 CURVE SMOOTH"
);
},
{
closed = 1;
nodes = (
"95 247 OFFCURVE",
"239 330 OFFCURVE",
"406 330 CURVE SMOOTH",
"494 330 OFFCURVE",
"620 299 OFFCURVE",
"620 202 CURVE SMOOTH",
"620 120 OFFCURVE",
"475 -5 OFFCURVE",
"296 -5 CURVE SMOOTH",
"208 -5 OFFCURVE",
"95 38 OFFCURVE",
"95 125 CURVE SMOOTH"
);
}
);
userData = {
com.hugojourdan.ColorFlow = {
"0" = 0;
"1" = 0;
"10" = 0;
"11" = 0;
"2" = 0;
"3" = 0;
"4" = 0;
"5" = 0;
"6" = 0;
"7" = 0;
"8" = 0;
"9" = 0;
};
};
width = 671;
}
);
unicode = 0222;
},
{
glyphname = "Omega-latin";
lastChange = "2024-03-16 00:22:22 +0000";
layers = (
{
anchors = (
{
name = bottom;
position = "{374, 0}";
},
{
name = top;
position = "{642, 789}";
}
);
layerId = "61E7180A-0B32-4047-B910-001D8BB62225";
paths = (
{
closed = 1;
nodes = (
"435 166 OFFCURVE",
"432 146 OFFCURVE",
"432 124 CURVE SMOOTH",
"432 57 OFFCURVE",
"455 -12 OFFCURVE",
"549 -12 CURVE SMOOTH",
"690 -12 OFFCURVE",
"949 280 OFFCURVE",
"949 552 CURVE SMOOTH",
"949 673 OFFCURVE",
"878 768 OFFCURVE",
"767 768 CURVE SMOOTH",
"748 768 OFFCURVE",
"740 765 OFFCURVE",
"740 757 CURVE SMOOTH",
"740 755 OFFCURVE",
"743 752 OFFCURVE",
"746 752 CURVE SMOOTH",
"835 752 OFFCURVE",
"890 672 OFFCURVE",
"890 560 CURVE SMOOTH",
"890 331 OFFCURVE",
"703 18 OFFCURVE",
"546 18 CURVE SMOOTH",
"498 18 OFFCURVE",
"483 80 OFFCURVE",
"483 146 CURVE SMOOTH",
"483 196 OFFCURVE",
"491 248 OFFCURVE",
"498 276 CURVE",
"516 304 OFFCURVE",
"586 407 OFFCURVE",
"586 465 CURVE SMOOTH",
"586 489 OFFCURVE",
"577 502 OFFCURVE",
"560 502 CURVE SMOOTH",
"533 502 OFFCURVE",
"510 479 OFFCURVE",
"495 437 CURVE SMOOTH",
"478 394 OFFCURVE",
"467 342 OFFCURVE",
"458 281 CURVE",
"427 222 OFFCURVE",
"304 26 OFFCURVE",
"212 26 CURVE SMOOTH",
"146 26 OFFCURVE",
"107 91 OFFCURVE",
"107 182 CURVE SMOOTH",
"107 288 OFFCURVE",
"145 445 OFFCURVE",
"216 560 CURVE SMOOTH",
"286 673 OFFCURVE",
"381 752 OFFCURVE",
"469 752 CURVE SMOOTH",
"476 752 OFFCURVE",
"480 756 OFFCURVE",
"480 760 CURVE SMOOTH",
"480 768 OFFCURVE",
"474 768 OFFCURVE",
"463 768 CURVE SMOOTH",
"351 768 OFFCURVE",
"233 679 OFFCURVE",
"151 552 CURVE SMOOTH",
"80 440 OFFCURVE",
"50 322 OFFCURVE",
"50 234 CURVE SMOOTH",
"50 96 OFFCURVE",
"113 -2 OFFCURVE",
"204 -2 CURVE SMOOTH",
"308 -2 OFFCURVE",
"405 127 OFFCURVE",
"437 185 CURVE"
);
}
);
userData = {
com.hugojourdan.ColorFlow = {
"0" = 0;
"1" = 0;
"10" = 0;
"11" = 0;
"2" = 0;
"3" = 0;
"4" = 0;
"5" = 0;
"6" = 0;
"7" = 0;
"8" = 0;
"9" = 0;
};
};
width = 899;
}
);
unicode = A7B6;
},
{
color = 0;
glyphname = Oopen;
lastChange = "2024-03-16 00:22:22 +0000";
layers = (
{
anchors = (
{
name = bottom;
position = "{327, -51}";
},
{
name = ogonek;
position = "{340, -49}";
},
{
name = top;
position = "{578, 815}";
}
);
layerId = "61E7180A-0B32-4047-B910-001D8BB62225";
paths = (
{
closed = 1;
nodes = (
"601 -63 OFFCURVE",
"847 224 OFFCURVE",
"847 507 CURVE SMOOTH",
"847 716 OFFCURVE",
"715 824 OFFCURVE",
"537 824 CURVE SMOOTH",
"374 824 OFFCURVE",
"251 718 OFFCURVE",
"182 577 CURVE SMOOTH",
"176 564 OFFCURVE",
"159 527 OFFCURVE",
"159 524 CURVE SMOOTH",
"159 519 OFFCURVE",
"167 517 OFFCURVE",
"170 517 CURVE SMOOTH",
"173 517 OFFCURVE",
"182 520 OFFCURVE",
"185 527 CURVE SMOOTH",
"265 696 OFFCURVE",
"382 792 OFFCURVE",
"517 792 CURVE SMOOTH",
"662 792 OFFCURVE",
"777 712 OFFCURVE",
"777 519 CURVE SMOOTH",
"777 283 OFFCURVE",
"566 -24 OFFCURVE",
"319 -24 CURVE SMOOTH",
"198 -24 OFFCURVE",
"118 44 OFFCURVE",
"118 158 CURVE SMOOTH",
"118 269 OFFCURVE",
"206 393 OFFCURVE",
"377 393 CURVE SMOOTH",
"386 393 OFFCURVE",
"394 397 OFFCURVE",
"394 403 CURVE SMOOTH",
"394 409 OFFCURVE",
"389 413 OFFCURVE",
"377 413 CURVE SMOOTH",
"186 413 OFFCURVE",
"72 280 OFFCURVE",
"72 153 CURVE SMOOTH",
"72 15 OFFCURVE",
"183 -63 OFFCURVE",
"325 -63 CURVE SMOOTH"
);
}
);
userData = {
com.hugojourdan.ColorFlow = {
"0" = 0;
"1" = 0;
"10" = 0;
"11" = 0;
"2" = 0;
"3" = 0;
"4" = 0;
"5" = 0;
"6" = 0;
"7" = 0;
"8" = 0;
"9" = 0;
};
};
width = 789;
}
);
unicode = 0186;
},
{
glyphname = OE;
lastChange = "2024-03-16 00:22:22 +0000";
layers = (
{
anchors = (
{
name = bottom;
position = "{581, 0}";
},
{
name = top;
position = "{812, 753}";
}
);
layerId = "61E7180A-0B32-4047-B910-001D8BB62225";
paths = (
{
closed = 1;
nodes = (
"1127 -115 OFFCURVE",
"1304 -58 OFFCURVE",
"1403 26 CURVE SMOOTH",
"1452 67 OFFCURVE",
"1478 110 OFFCURVE",
"1478 147 CURVE SMOOTH",
"1478 177 OFFCURVE",
"1461 203 OFFCURVE",
"1424 220 CURVE SMOOTH",
"1413 225 OFFCURVE",
"1403 227 OFFCURVE",
"1396 227 CURVE SMOOTH",
"1389 227 OFFCURVE",
"1384 225 OFFCURVE",
"1384 222 CURVE SMOOTH",
"1384 217 OFFCURVE",
"1392 211 OFFCURVE",
"1414 206 CURVE SMOOTH",
"1436 201 OFFCURVE",
"1445 188 OFFCURVE",
"1445 171 CURVE SMOOTH",
"1445 140 OFFCURVE",
"1415 95 OFFCURVE",
"1367 55 CURVE SMOOTH",
"1281 -16 OFFCURVE",
"1116 -91 OFFCURVE",
"951 -91 CURVE SMOOTH",
"760 -91 OFFCURVE",
"682 6 OFFCURVE",
"682 108 CURVE SMOOTH",
"682 202 OFFCURVE",
"749 302 OFFCURVE",
"855 332 CURVE SMOOTH",
"900 345 OFFCURVE",
"946 348 OFFCURVE",
"987 348 CURVE SMOOTH",
"1021 348 OFFCURVE",
"1051 346 OFFCURVE",
"1076 346 CURVE SMOOTH",
"1109 346 OFFCURVE",
"1131 350 OFFCURVE",
"1135 366 CURVE",
"1143 437 OFFCURVE",
"911 394 OFFCURVE",
"892 527 CURVE",
"900 535 OFFCURVE",
"905 545 OFFCURVE",
"909 550 CURVE",
"912 556 OFFCURVE",
"913 560 OFFCURVE",
"913 563 CURVE SMOOTH",
"913 568 OFFCURVE",
"911 570 OFFCURVE",
"907 570 CURVE SMOOTH",
"902 570 OFFCURVE",
"897 566 OFFCURVE",
"894 560 CURVE",
"892 559 LINE",
"906 686 OFFCURVE",
"1091 782 OFFCURVE",
"1253 782 CURVE SMOOTH",
"1265 782 OFFCURVE",
"1277 781 OFFCURVE",
"1289 780 CURVE SMOOTH",
"1372 772 OFFCURVE",
"1402 733 OFFCURVE",
"1402 690 CURVE SMOOTH",
"1402 633 OFFCURVE",
"1346 564 OFFCURVE",
"1286 558 CURVE SMOOTH",
"1265 556 OFFCURVE",
"1248 547 OFFCURVE",
"1248 541 CURVE SMOOTH",
"1248 537 OFFCURVE",
"1253 535 OFFCURVE",
"1263 535 CURVE SMOOTH",
"1270 535 OFFCURVE",
"1279 536 OFFCURVE",
"1292 539 CURVE SMOOTH",
"1402 564 OFFCURVE",
"1465 628 OFFCURVE",
"1465 687 CURVE SMOOTH",
"1465 740 OFFCURVE",
"1412 792 OFFCURVE",
"1293 805 CURVE SMOOTH",
"1278 807 OFFCURVE",
"1261 808 OFFCURVE",
"1248 808 CURVE SMOOTH",
"1072 808 OFFCURVE",
"815 699 OFFCURVE",
"813 531 CURVE SMOOTH",
"813 513 OFFCURVE",
"819 497 OFFCURVE",
"828 483 CURVE",
"807 465 OFFCURVE",
"785 449 OFFCURVE",
"762 434 CURVE",
"772 673 OFFCURVE",
"598 777 OFFCURVE",
"419 777 CURVE SMOOTH",
"237 777 OFFCURVE",
"50 669 OFFCURVE",
"50 486 CURVE SMOOTH",
"50 477 OFFCURVE",
"50 468 OFFCURVE",
"51 458 CURVE SMOOTH",
"56 403 OFFCURVE",
"86 362 OFFCURVE",
"129 332 CURVE",
"109 280 OFFCURVE",
"99 229 OFFCURVE",
"99 181 CURVE SMOOTH",
"99 69 OFFCURVE",
"152 -23 OFFCURVE",
"232 -48 CURVE SMOOTH",
"260 -57 OFFCURVE",
"288 -61 OFFCURVE",
"316 -61 CURVE SMOOTH",
"423 -61 OFFCURVE",
"528 1 OFFCURVE",
"608 85 CURVE",
"626 -23 OFFCURVE",
"737 -115 OFFCURVE",
"949 -115 CURVE SMOOTH"
);
},
{
closed = 1;
nodes = (
"295 -37 OFFCURVE",
"265 -30 OFFCURVE",
"236 -16 CURVE SMOOTH",
"178 13 OFFCURVE",
"153 76 OFFCURVE",
"153 149 CURVE SMOOTH",
"153 199 OFFCURVE",
"164 253 OFFCURVE",
"184 304 CURVE",
"230 286 OFFCURVE",
"286 277 OFFCURVE",
"346 277 CURVE SMOOTH",
"458 277 OFFCURVE",
"587 308 OFFCURVE",
"695 366 CURVE",
"693 343 OFFCURVE",
"686 318 OFFCURVE",
"678 295 CURVE SMOOTH",
"677 292 OFFCURVE",
"671 278 OFFCURVE",
"666 268 CURVE",
"638 235 OFFCURVE",
"619 197 OFFCURVE",
"610 161 CURVE",
"537 50 OFFCURVE",
"431 -37 OFFCURVE",
"324 -37 CURVE SMOOTH"
);
},
{
closed = 1;
nodes = (
"291 310 OFFCURVE",
"238 320 OFFCURVE",
"198 339 CURVE",
"237 427 OFFCURVE",
"375 631 OFFCURVE",
"495 631 CURVE SMOOTH",
"505 631 OFFCURVE",
"514 630 OFFCURVE",
"524 627 CURVE SMOOTH",
"533 624 OFFCURVE",
"540 628 OFFCURVE",
"540 632 CURVE SMOOTH",
"540 635 OFFCURVE",
"537 638 OFFCURVE",
"532 641 CURVE SMOOTH",
"510 654 OFFCURVE",
"487 659 OFFCURVE",
"464 659 CURVE SMOOTH",
"331 659 OFFCURVE",
"194 474 OFFCURVE",
"147 374 CURVE",
"125 393 OFFCURVE",
"111 418 OFFCURVE",
"107 450 CURVE SMOOTH",
"105 463 OFFCURVE",
"104 476 OFFCURVE",
"104 489 CURVE SMOOTH",
"104 654 OFFCURVE",
"267 760 OFFCURVE",
"423 760 CURVE SMOOTH",
"566 760 OFFCURVE",
"704 670 OFFCURVE",
"704 452 CURVE SMOOTH",
"704 436 OFFCURVE",
"704 419 OFFCURVE",
"702 402 CURVE",
"593 344 OFFCURVE",
"461 310 OFFCURVE",
"349 310 CURVE SMOOTH"
);
},
{
closed = 1;
nodes = (
"754 357 OFFCURVE",
"758 378 OFFCURVE",
"758 398 CURVE",
"789 418 OFFCURVE",
"817 440 OFFCURVE",
"842 465 CURVE",
"870 433 OFFCURVE",
"915 409 OFFCURVE",
"953 395 CURVE",
"919 394 OFFCURVE",
"883 387 OFFCURVE",
"847 377 CURVE SMOOTH",
"809 366 OFFCURVE",
"777 351 OFFCURVE",
"748 334 CURVE"
);
}
);
userData = {
com.hugojourdan.ColorFlow = {
"0" = 0;
"1" = 0;
"10" = 0;
"11" = 0;
"2" = 0;
"3" = 0;
"4" = 0;
"5" = 0;
"6" = 0;
"7" = 0;
"8" = 0;
"9" = 0;
};
};
width = 1501;
}
);
note = OE;
unicode = 0152;
},
{
glyphname = P;
lastChange = "2024-03-16 00:22:22 +0000";
layers = (
{
anchors = (
{
name = bottom;
position = "{478, 0}";
},
{
name = top;
position = "{864, 800}";
}
);
layerId = "61E7180A-0B32-4047-B910-001D8BB62225";
paths = (
{
closed = 1;
nodes = (
"260 -39 OFFCURVE",
"348 -3 OFFCURVE",
"422 67 CURVE SMOOTH",
"482 124 OFFCURVE",
"528 185 OFFCURVE",
"573 249 CURVE",
"582 248 OFFCURVE",
"592 248 OFFCURVE",
"602 248 CURVE SMOOTH",
"656 248 OFFCURVE",
"730 256 OFFCURVE",
"798 273 CURVE SMOOTH",
"938 307 OFFCURVE",
"1105 434 OFFCURVE",
"1105 558 CURVE SMOOTH",
"1105 611 OFFCURVE",
"1075 663 OFFCURVE",
"999 708 CURVE SMOOTH",
"964 729 OFFCURVE",
"925 745 OFFCURVE",
"882 756 CURVE",
"900 773 OFFCURVE",
"917 787 OFFCURVE",
"928 793 CURVE SMOOTH",
"939 800 OFFCURVE",
"944 806 OFFCURVE",
"944 810 CURVE SMOOTH",
"944 813 OFFCURVE",
"942 814 OFFCURVE",
"938 814 CURVE SMOOTH",
"933 814 OFFCURVE",
"926 812 OFFCURVE",
"917 808 CURVE SMOOTH",
"888 797 OFFCURVE",
"865 784 OFFCURVE",
"842 767 CURVE",
"787 778 OFFCURVE",
"729 783 OFFCURVE",
"672 783 CURVE SMOOTH",
"605 783 OFFCURVE",
"540 777 OFFCURVE",
"480 768 CURVE SMOOTH",
"334 746 OFFCURVE",
"73 668 OFFCURVE",
"73 482 CURVE SMOOTH",
"73 385 OFFCURVE",
"147 336 OFFCURVE",
"226 336 CURVE SMOOTH",
"302 336 OFFCURVE",
"386 388 OFFCURVE",
"388 477 CURVE SMOOTH",
"388 484 OFFCURVE",
"385 488 OFFCURVE",
"382 488 CURVE SMOOTH",
"379 488 OFFCURVE",
"375 485 OFFCURVE",
"374 478 CURVE",
"351 412 OFFCURVE",
"289 357 OFFCURVE",
"228 357 CURVE SMOOTH",
"172 357 OFFCURVE",
"123 401 OFFCURVE",
"123 463 CURVE SMOOTH",
"123 470 OFFCURVE",
"124 477 OFFCURVE",
"125 484 CURVE SMOOTH",
"149 634 OFFCURVE",
"357 711 OFFCURVE",
"483 734 CURVE SMOOTH",
"544 745 OFFCURVE",
"605 751 OFFCURVE",
"674 751 CURVE SMOOTH",
"721 751 OFFCURVE",
"769 748 OFFCURVE",
"815 741 CURVE",
"798 726 OFFCURVE",
"779 704 OFFCURVE",
"762 685 CURVE SMOOTH",
"590 492 OFFCURVE",
"519 230 OFFCURVE",
"382 97 CURVE SMOOTH",
"318 34 OFFCURVE",
"248 -8 OFFCURVE",
"164 -8 CURVE SMOOTH",
"97 -8 OFFCURVE",
"68 28 OFFCURVE",
"68 66 CURVE SMOOTH",
"68 105 OFFCURVE",
"99 144 OFFCURVE",
"156 144 CURVE SMOOTH",
"173 144 OFFCURVE",
"192 141 OFFCURVE",
"214 133 CURVE SMOOTH",
"218 131 OFFCURVE",
"221 131 OFFCURVE",
"224 131 CURVE SMOOTH",
"228 131 OFFCURVE",
"230 133 OFFCURVE",
"230 135 CURVE SMOOTH",
"230 138 OFFCURVE",
"227 143 OFFCURVE",
"218 146 CURVE SMOOTH",
"186 157 OFFCURVE",
"157 161 OFFCURVE",
"132 161 CURVE SMOOTH",
"50 161 OFFCURVE",
"4 113 OFFCURVE",
"4 64 CURVE SMOOTH",
"4 19 OFFCURVE",
"42 -26 OFFCURVE",
"126 -36 CURVE SMOOTH",
"140 -38 OFFCURVE",
"155 -39 OFFCURVE",
"169 -39 CURVE SMOOTH"
);
},
{
closed = 1;
nodes = (
"684 421 OFFCURVE",
"760 588 OFFCURVE",
"863 732 CURVE",
"906 722 OFFCURVE",
"945 708 OFFCURVE",
"976 688 CURVE SMOOTH",
"1022 657 OFFCURVE",
"1042 617 OFFCURVE",
"1042 575 CURVE SMOOTH",
"1042 469 OFFCURVE",
"921 346 OFFCURVE",
"766 298 CURVE SMOOTH",
"703 279 OFFCURVE",
"638 269 OFFCURVE",
"587 271 CURVE"
);
}
);
userData = {
com.hugojourdan.ColorFlow = {
"0" = 0;
"1" = 0;
"10" = 0;
"11" = 0;
"2" = 0;
"3" = 0;
"4" = 0;
"5" = 0;
"6" = 0;
"7" = 0;
"8" = 0;
"9" = 0;
};
};
width = 925;
}
);
note = P;
unicode = 0050;
userData = {
KernOnName = P;
};
},
{
glyphname = Phook;
lastChange = "2024-03-16 00:22:22 +0000";
layers = (
{
anchors = (
{
name = bottom;
position = "{596, 0}";
},
{
name = top;
position = "{982, 800}";
}
);
layerId = "61E7180A-0B32-4047-B910-001D8BB62225";
paths = (
{
closed = 1;
nodes = (
"812 780 OFFCURVE",
"785 744 OFFCURVE",
"732 685 CURVE SMOOTH",
"560 492 OFFCURVE",
"489 230 OFFCURVE",
"352 97 CURVE SMOOTH",
"288 34 OFFCURVE",
"218 -8 OFFCURVE",
"134 -8 CURVE SMOOTH",
"67 -8 OFFCURVE",
"38 28 OFFCURVE",
"38 66 CURVE SMOOTH",
"38 105 OFFCURVE",
"69 144 OFFCURVE",
"126 144 CURVE SMOOTH",
"143 144 OFFCURVE",
"162 141 OFFCURVE",
"184 133 CURVE SMOOTH",
"188 131 OFFCURVE",
"191 131 OFFCURVE",
"194 131 CURVE SMOOTH",
"198 131 OFFCURVE",
"200 133 OFFCURVE",
"200 135 CURVE SMOOTH",
"200 138 OFFCURVE",
"197 143 OFFCURVE",
"188 146 CURVE SMOOTH",
"156 157 OFFCURVE",
"127 161 OFFCURVE",
"102 161 CURVE SMOOTH",
"20 161 OFFCURVE",
"-26 113 OFFCURVE",
"-26 64 CURVE SMOOTH",
"-26 19 OFFCURVE",
"12 -26 OFFCURVE",
"96 -36 CURVE SMOOTH",
"110 -38 OFFCURVE",
"125 -39 OFFCURVE",
"139 -39 CURVE SMOOTH",
"230 -39 OFFCURVE",
"318 -3 OFFCURVE",
"392 67 CURVE SMOOTH",
"452 124 OFFCURVE",
"498 185 OFFCURVE",
"543 249 CURVE",
"552 248 OFFCURVE",
"562 248 OFFCURVE",
"572 248 CURVE SMOOTH",
"626 248 OFFCURVE",
"700 256 OFFCURVE",
"768 273 CURVE SMOOTH",
"908 307 OFFCURVE",
"1075 434 OFFCURVE",
"1075 558 CURVE SMOOTH",
"1075 611 OFFCURVE",
"1045 663 OFFCURVE",
"969 708 CURVE SMOOTH",
"934 729 OFFCURVE",
"895 745 OFFCURVE",
"852 756 CURVE",
"870 773 OFFCURVE",
"887 787 OFFCURVE",
"898 793 CURVE SMOOTH",
"909 800 OFFCURVE",
"914 806 OFFCURVE",
"914 810 CURVE SMOOTH",
"914 813 OFFCURVE",
"912 814 OFFCURVE",
"908 814 CURVE SMOOTH",
"903 814 OFFCURVE",
"896 812 OFFCURVE",
"887 808 CURVE SMOOTH"
);
},
{
closed = 1;
nodes = (
"654 421 OFFCURVE",
"730 588 OFFCURVE",
"833 732 CURVE",
"876 722 OFFCURVE",
"915 708 OFFCURVE",
"946 688 CURVE SMOOTH",
"992 657 OFFCURVE",
"1012 617 OFFCURVE",
"1012 575 CURVE SMOOTH",
"1012 469 OFFCURVE",
"891 346 OFFCURVE",
"736 298 CURVE SMOOTH",
"673 279 OFFCURVE",
"608 269 OFFCURVE",
"557 271 CURVE"
);
},
{
closed = 1;
nodes = (
"394 459 OFFCURVE",
"446 531 OFFCURVE",
"446 563 CURVE SMOOTH",
"446 568 OFFCURVE",
"444 571 OFFCURVE",
"442 573 CURVE SMOOTH",
"438 578 OFFCURVE",
"429 575 OFFCURVE",
"427 570 CURVE SMOOTH",
"417 546 OFFCURVE",
"394 514 OFFCURVE",
"365 506 CURVE SMOOTH",
"357 504 OFFCURVE",
"350 503 OFFCURVE",
"343 503 CURVE SMOOTH",
"308 503 OFFCURVE",
"293 510 OFFCURVE",
"282 530 CURVE SMOOTH",
"273 545 OFFCURVE",
"269 563 OFFCURVE",
"269 584 CURVE SMOOTH",
"269 622 OFFCURVE",
"288 676 OFFCURVE",
"306 719 CURVE SMOOTH",
"312 734 OFFCURVE",
"324 768 OFFCURVE",
"329 803 CURVE",
"453 755 OFFCURVE",
"714 758 OFFCURVE",
"820 738 CURVE",
"843 761 LINE",
"765 781 OFFCURVE",
"456 792 OFFCURVE",
"330 839 CURVE",
"329 875 OFFCURVE",
"314 904 OFFCURVE",
"285 904 CURVE SMOOTH",
"263 904 OFFCURVE",
"260 884 OFFCURVE",
"260 873 CURVE SMOOTH",
"260 847 OFFCURVE",
"278 827 OFFCURVE",
"309 812 CURVE",
"303 783 OFFCURVE",
"287 752 OFFCURVE",
"275 732 CURVE SMOOTH",
"238 670 OFFCURVE",
"205 596 OFFCURVE",
"205 538 CURVE SMOOTH",
"205 521 OFFCURVE",
"208 505 OFFCURVE",
"215 492 CURVE SMOOTH",
"233 459 OFFCURVE",
"265 447 OFFCURVE",
"296 447 CURVE SMOOTH",
"307 447 OFFCURVE",
"317 449 OFFCURVE",
"327 450 CURVE SMOOTH"
);
}
);
userData = {
com.hugojourdan.ColorFlow = {
"0" = 0;
"1" = 0;
"10" = 0;
"11" = 0;
"2" = 0;
"3" = 0;
"4" = 0;
"5" = 0;
"6" = 0;
"7" = 0;
"8" = 0;
"9" = 0;
};
};
width = 895;
}
);
rightMetricsKey = P;
unicode = 01A4;
},
{
glyphname = Thorn;
lastChange = "2024-03-16 00:22:22 +0000";
layers = (
{
layerId = "61E7180A-0B32-4047-B910-001D8BB62225";
paths = (
{
closed = 1;
nodes = (
"89 3 OFFCURVE",
"96 15 OFFCURVE",
"123 55 CURVE SMOOTH",
"199 166 LINE",
"255 163 OFFCURVE",
"339 165 OFFCURVE",
"414 187 CURVE SMOOTH",
"566 232 OFFCURVE",
"690 347 OFFCURVE",
"690 441 CURVE SMOOTH",
"690 522 OFFCURVE",
"645 571 OFFCURVE",
"551 617 CURVE SMOOTH",
"515 635 OFFCURVE",
"448 656 OFFCURVE",
"393 664 CURVE",
"423 761 LINE SMOOTH",
"429 780 OFFCURVE",
"432 794 OFFCURVE",
"432 806 CURVE SMOOTH",
"432 822 OFFCURVE",
"426 834 OFFCURVE",
"411 847 CURVE SMOOTH",
"401 856 OFFCURVE",
"385 857 OFFCURVE",
"371 862 CURVE",
"376 781 OFFCURVE",
"311 599 OFFCURVE",
"236 425 CURVE SMOOTH",
"153 233 OFFCURVE",
"57 49 OFFCURVE",
"11 8 CURVE",
"28 9 OFFCURVE",
"46 3 OFFCURVE",
"63 3 CURVE SMOOTH"
);
},
{
closed = 1;
nodes = (
"284 341 OFFCURVE",
"341 522 OFFCURVE",
"384 640 CURVE",
"428 630 OFFCURVE",
"491 612 OFFCURVE",
"516 601 CURVE SMOOTH",
"592 568 OFFCURVE",
"625 521 OFFCURVE",
"625 467 CURVE SMOOTH",
"625 344 OFFCURVE",
"501 250 OFFCURVE",
"361 206 CURVE SMOOTH",
"309 189 OFFCURVE",
"262 192 OFFCURVE",
"211 192 CURVE"
);
}
);
userData = {
com.hugojourdan.ColorFlow = {
"0" = 0;
"1" = 0;
"10" = 0;
"11" = 0;
"2" = 0;
"3" = 0;
"4" = 0;
"5" = 0;
"6" = 0;
"7" = 0;
"8" = 0;
"9" = 0;
};
};
width = 613;
}
);
note = Thorn;
unicode = 00DE;
},
{
glyphname = Q;
lastChange = "2024-03-16 00:22:22 +0000";
layers = (
{
layerId = "61E7180A-0B32-4047-B910-001D8BB62225";
paths = (
{
closed = 1;
nodes = (
"379 -63 OFFCURVE",
"450 -41 OFFCURVE",
"509 -2 CURVE SMOOTH",
"671 105 OFFCURVE",
"774 298 OFFCURVE",
"774 471 CURVE SMOOTH",
"774 645 OFFCURVE",
"670 791 OFFCURVE",
"432 791 CURVE SMOOTH",
"396 791 OFFCURVE",
"356 787 OFFCURVE",
"314 780 CURVE SMOOTH",
"182 758 OFFCURVE",
"84 659 OFFCURVE",
"84 544 CURVE SMOOTH",
"84 513 OFFCURVE",
"91 481 OFFCURVE",
"107 449 CURVE SMOOTH",
"113 438 OFFCURVE",
"119 433 OFFCURVE",
"124 433 CURVE SMOOTH",
"129 433 OFFCURVE",
"132 438 OFFCURVE",
"132 445 CURVE SMOOTH",
"132 448 OFFCURVE",
"132 451 OFFCURVE",
"131 454 CURVE SMOOTH",
"124 482 OFFCURVE",
"121 510 OFFCURVE",
"121 535 CURVE SMOOTH",
"121 653 OFFCURVE",
"189 740 OFFCURVE",
"318 757 CURVE SMOOTH",
"342 760 OFFCURVE",
"365 762 OFFCURVE",
"386 762 CURVE SMOOTH",
"603 762 OFFCURVE",
"720 609 OFFCURVE",
"720 432 CURVE SMOOTH",
"720 294 OFFCURVE",
"651 142 OFFCURVE",
"505 32 CURVE SMOOTH",
"443 -15 OFFCURVE",
"374 -43 OFFCURVE",
"314 -43 CURVE SMOOTH",
"245 -43 OFFCURVE",
"187 -7 OFFCURVE",
"162 81 CURVE SMOOTH",
"156 104 OFFCURVE",
"153 129 OFFCURVE",
"153 154 CURVE SMOOTH",
"153 363 OFFCURVE",
"352 631 OFFCURVE",
"494 631 CURVE SMOOTH",
"505 631 OFFCURVE",
"515 630 OFFCURVE",
"524 627 CURVE SMOOTH",
"532 624 OFFCURVE",
"540 628 OFFCURVE",
"540 632 CURVE SMOOTH",
"540 635 OFFCURVE",
"537 638 OFFCURVE",
"532 641 CURVE SMOOTH",
"509 654 OFFCURVE",
"485 660 OFFCURVE",
"459 660 CURVE SMOOTH",
"295 660 OFFCURVE",
"96 415 OFFCURVE",
"96 191 CURVE SMOOTH",
"96 149 OFFCURVE",
"103 107 OFFCURVE",
"119 68 CURVE SMOOTH",
"156 -26 OFFCURVE",
"233 -63 OFFCURVE",
"316 -63 CURVE SMOOTH"
);
},
{
closed = 1;
nodes = (
"789 -371 OFFCURVE",
"843 -322 OFFCURVE",
"843 -266 CURVE SMOOTH",
"843 -202 OFFCURVE",
"772 -128 OFFCURVE",
"647 -108 CURVE SMOOTH",
"638 -107 OFFCURVE",
"634 -111 OFFCURVE",
"634 -115 CURVE SMOOTH",
"634 -120 OFFCURVE",
"639 -127 OFFCURVE",
"650 -129 CURVE SMOOTH",
"754 -145 OFFCURVE",
"815 -217 OFFCURVE",
"815 -274 CURVE SMOOTH",
"815 -331 OFFCURVE",
"766 -346 OFFCURVE",
"717 -346 CURVE SMOOTH",
"615 -346 OFFCURVE",
"486 -286 OFFCURVE",
"393 -217 CURVE SMOOTH",
"289 -141 OFFCURVE",
"219 -62 OFFCURVE",
"111 -62 CURVE SMOOTH",
"65 -62 OFFCURVE",
"29 -95 OFFCURVE",
"29 -136 CURVE SMOOTH",
"29 -145 OFFCURVE",
"33 -151 OFFCURVE",
"38 -151 CURVE SMOOTH",
"41 -151 OFFCURVE",
"46 -148 OFFCURVE",
"46 -139 CURVE SMOOTH",
"46 -106 OFFCURVE",
"84 -92 OFFCURVE",
"104 -92 CURVE SMOOTH",
"268 -92 OFFCURVE",
"315 -371 OFFCURVE",
"669 -371 CURVE SMOOTH"
);
}
);
userData = {
com.hugojourdan.ColorFlow = {
"0" = 0;
"1" = 0;
"10" = 0;
"11" = 0;
"2" = 0;
"3" = 0;
"4" = 0;
"5" = 0;
"6" = 0;
"7" = 0;
"8" = 0;
"9" = 0;
};
};
width = 756;
}
);
note = Q;
unicode = 0051;
},
{
glyphname = Qhooktail;
lastChange = "2024-03-16 00:22:22 +0000";
layers = (
{
anchors = (
{
name = bottom;
position = "{357, -96}";
},
{
name = top;
position = "{629, 800}";
}
);
layerId = "61E7180A-0B32-4047-B910-001D8BB62225";
paths = (
{
closed = 1;
nodes = (
"563 12 OFFCURVE",
"513 -151 OFFCURVE",
"513 -220 CURVE SMOOTH",
"513 -284 OFFCURVE",
"538 -319 OFFCURVE",
"610 -319 CURVE SMOOTH",
"692 -319 OFFCURVE",
"869 -195 OFFCURVE",
"869 -84 CURVE SMOOTH",
"869 -69 OFFCURVE",
"856 -67 OFFCURVE",
"849 -67 CURVE",
"811 -202 OFFCURVE",
"695 -274 OFFCURVE",
"644 -274 CURVE SMOOTH",
"596 -274 OFFCURVE",
"579 -243 OFFCURVE",
"587 -161 CURVE SMOOTH",
"602 4 OFFCURVE",
"750 347 OFFCURVE",
"792 419 CURVE",
"779 418 OFFCURVE",
"759 422 OFFCURVE",
"754 423 CURVE SMOOTH",
"730 425 OFFCURVE",
"712 417 OFFCURVE",
"692 364 CURVE SMOOTH",
"632 205 OFFCURVE",
"535 -68 OFFCURVE",
"294 -68 CURVE SMOOTH",
"180 -68 OFFCURVE",
"112 36 OFFCURVE",
"112 169 CURVE SMOOTH",
"112 409 OFFCURVE",
"332 744 OFFCURVE",
"590 744 CURVE SMOOTH",
"705 744 OFFCURVE",
"767 685 OFFCURVE",
"767 620 CURVE SMOOTH",
"767 537 OFFCURVE",
"645 461 OFFCURVE",
"526 461 CURVE SMOOTH",
"461 461 OFFCURVE",
"396 484 OFFCURVE",
"353 541 CURVE SMOOTH",
"333 568 OFFCURVE",
"344 584 OFFCURVE",
"331 584 CURVE SMOOTH",
"326 584 OFFCURVE",
"323 577 OFFCURVE",
"323 567 CURVE SMOOTH",
"323 558 OFFCURVE",
"326 545 OFFCURVE",
"332 532 CURVE SMOOTH",
"363 471 OFFCURVE",
"439 437 OFFCURVE",
"522 437 CURVE SMOOTH",
"661 437 OFFCURVE",
"820 519 OFFCURVE",
"820 629 CURVE SMOOTH",
"820 708 OFFCURVE",
"736 783 OFFCURVE",
"572 783 CURVE SMOOTH",
"259 783 OFFCURVE",
"55 461 OFFCURVE",
"55 205 CURVE SMOOTH",
"55 37 OFFCURVE",
"143 -103 OFFCURVE",
"292 -103 CURVE SMOOTH",
"427 -103 OFFCURVE",
"520 -22 OFFCURVE",
"584 76 CURVE"
);
}
);
userData = {
com.hugojourdan.ColorFlow = {
"0" = 0;
"1" = 0;
"10" = 0;
"11" = 0;
"2" = 0;
"3" = 0;
"4" = 0;
"5" = 0;
"6" = 0;
"7" = 0;
"8" = 0;
"9" = 0;
};
};
width = 714;
}
);
unicode = 024A;
},
{
glyphname = R;
lastChange = "2024-03-16 00:22:22 +0000";
layers = (
{
anchors = (
{
name = bottom;
position = "{545, -41}";
},
{
name = top;
position = "{896, 801}";
}
);
layerId = "61E7180A-0B32-4047-B910-001D8BB62225";
paths = (
{
closed = 1;
nodes = (
"929 -42 OFFCURVE",
"969 -26 OFFCURVE",
"1000 8 CURVE SMOOTH",
"1043 56 OFFCURVE",
"1088 158 OFFCURVE",
"1099 184 CURVE",
"1099 193 OFFCURVE",
"1095 193 OFFCURVE",
"1087 193 CURVE",
"1073 160 OFFCURVE",
"1036 86 OFFCURVE",
"988 38 CURVE SMOOTH",
"961 11 OFFCURVE",
"936 0 OFFCURVE",
"914 0 CURVE SMOOTH",
"878 0 OFFCURVE",
"847 32 OFFCURVE",
"816 78 CURVE SMOOTH",
"739 193 OFFCURVE",
"709 350 OFFCURVE",
"704 378 CURVE",
"726 379 OFFCURVE",
"758 381 OFFCURVE",
"799 388 CURVE SMOOTH",
"991 419 OFFCURVE",
"1117 515 OFFCURVE",
"1117 604 CURVE SMOOTH",
"1117 659 OFFCURVE",
"1070 708 OFFCURVE",
"965 738 CURVE SMOOTH",
"938 746 OFFCURVE",
"903 752 OFFCURVE",
"867 757 CURVE",
"869 765 OFFCURVE",
"871 773 OFFCURVE",
"871 779 CURVE SMOOTH",
"871 786 OFFCURVE",
"869 790 OFFCURVE",
"864 790 CURVE SMOOTH",
"858 790 OFFCURVE",
"847 782 OFFCURVE",
"829 763 CURVE",
"777 770 OFFCURVE",
"724 774 OFFCURVE",
"668 774 CURVE SMOOTH",
"598 774 OFFCURVE",
"524 768 OFFCURVE",
"446 757 CURVE SMOOTH",
"211 723 OFFCURVE",
"94 589 OFFCURVE",
"94 477 CURVE SMOOTH",
"94 381 OFFCURVE",
"166 330 OFFCURVE",
"244 330 CURVE SMOOTH",
"288 330 OFFCURVE",
"340 348 OFFCURVE",
"377 387 CURVE SMOOTH",
"396 407 OFFCURVE",
"410 438 OFFCURVE",
"415 469 CURVE SMOOTH",
"416 476 OFFCURVE",
"412 484 OFFCURVE",
"408 484 CURVE SMOOTH",
"406 484 OFFCURVE",
"403 480 OFFCURVE",
"402 470 CURVE SMOOTH",
"401 458 OFFCURVE",
"389 433 OFFCURVE",
"364 406 CURVE SMOOTH",
"333 373 OFFCURVE",
"293 358 OFFCURVE",
"256 358 CURVE SMOOTH",
"197 358 OFFCURVE",
"144 397 OFFCURVE",
"144 465 CURVE SMOOTH",
"144 475 OFFCURVE",
"145 485 OFFCURVE",
"147 496 CURVE SMOOTH",
"165 583 OFFCURVE",
"263 680 OFFCURVE",
"434 716 CURVE SMOOTH",
"518 734 OFFCURVE",
"611 743 OFFCURVE",
"695 743 CURVE SMOOTH",
"733 743 OFFCURVE",
"771 742 OFFCURVE",
"807 738 CURVE",
"725 647 OFFCURVE",
"659 514 OFFCURVE",
"570 356 CURVE SMOOTH",
"463 166 OFFCURVE",
"353 -8 OFFCURVE",
"185 -8 CURVE SMOOTH",
"118 -8 OFFCURVE",
"87 30 OFFCURVE",
"87 68 CURVE SMOOTH",
"87 107 OFFCURVE",
"117 146 OFFCURVE",
"173 146 CURVE SMOOTH",
"191 146 OFFCURVE",
"210 142 OFFCURVE",
"232 134 CURVE SMOOTH",
"235 133 OFFCURVE",
"238 133 OFFCURVE",
"240 133 CURVE SMOOTH",
"245 133 OFFCURVE",
"248 134 OFFCURVE",
"248 137 CURVE SMOOTH",
"248 140 OFFCURVE",
"245 143 OFFCURVE",
"237 146 CURVE SMOOTH",
"203 158 OFFCURVE",
"173 163 OFFCURVE",
"146 163 CURVE SMOOTH",
"65 163 OFFCURVE",
"19 115 OFFCURVE",
"19 66 CURVE SMOOTH",
"19 20 OFFCURVE",
"59 -26 OFFCURVE",
"147 -36 CURVE SMOOTH",
"163 -38 OFFCURVE",
"178 -39 OFFCURVE",
"194 -39 CURVE SMOOTH",
"293 -39 OFFCURVE",
"387 5 OFFCURVE",
"464 89 CURVE SMOOTH",
"545 178 OFFCURVE",
"592 271 OFFCURVE",
"641 366 CURVE",
"651 302 OFFCURVE",
"694 105 OFFCURVE",
"787 9 CURVE SMOOTH",
"819 -25 OFFCURVE",
"857 -42 OFFCURVE",
"894 -42 CURVE SMOOTH"
);
},
{
closed = 1;
nodes = (
"720 521 OFFCURVE",
"791 622 OFFCURVE",
"855 732 CURVE",
"885 727 OFFCURVE",
"929 720 OFFCURVE",
"953 713 CURVE SMOOTH",
"1012 696 OFFCURVE",
"1044 662 OFFCURVE",
"1044 619 CURVE SMOOTH",
"1044 538 OFFCURVE",
"928 436 OFFCURVE",
"789 418 CURVE SMOOTH",
"746 412 OFFCURVE",
"701 411 OFFCURVE",
"662 405 CURVE"
);
}
);
userData = {
com.hugojourdan.ColorFlow = {
"0" = 0;
"1" = 0;
"10" = 0;
"11" = 0;
"2" = 0;
"3" = 0;
"4" = 0;
"5" = 0;
"6" = 0;
"7" = 0;
"8" = 0;
"9" = 0;
};
};
width = 1028;
}
);
note = R;
unicode = 0052;
userData = {
KernOnName = R;
};
},
{
color = 4;
glyphname = Rtail;
lastChange = "2024-03-16 00:22:22 +0000";
layers = (
{
anchors = (
{
name = bottom;
position = "{455, -41}";
},
{
name = top;
position = "{806, 801}";
}
);
color = 0;
layerId = "61E7180A-0B32-4047-B910-001D8BB62225";
paths = (
{
closed = 1;
nodes = (
"402 -319 OFFCURVE",
"569 -195 OFFCURVE",
"579 -84 CURVE SMOOTH",
"580 -69 OFFCURVE",
"566 -67 OFFCURVE",
"559 -67 CURVE",
"521 -202 OFFCURVE",
"395 -271 OFFCURVE",
"344 -271 CURVE SMOOTH",
"299 -271 OFFCURVE",
"294 -240 OFFCURVE",
"294 -196 CURVE SMOOTH",
"294 -156 OFFCURVE",
"307 -108 OFFCURVE",
"319 -72 CURVE SMOOTH",
"358 42 OFFCURVE",
"441 215 OFFCURVE",
"538 366 CURVE",
"539 366 LINE",
"549 302 OFFCURVE",
"604 105 OFFCURVE",
"697 9 CURVE SMOOTH",
"729 -25 OFFCURVE",
"767 -42 OFFCURVE",
"804 -42 CURVE SMOOTH",
"911 -42 OFFCURVE",
"968 88 OFFCURVE",
"1010 184 CURVE",
"1010 189 OFFCURVE",
"1010 193 OFFCURVE",
"998 193 CURVE",
"938 68 OFFCURVE",
"886 0 OFFCURVE",
"824 0 CURVE SMOOTH",
"788 0 OFFCURVE",
"757 32 OFFCURVE",
"726 78 CURVE SMOOTH",
"649 193 OFFCURVE",
"619 350 OFFCURVE",
"614 378 CURVE",
"636 379 OFFCURVE",
"668 381 OFFCURVE",
"709 388 CURVE SMOOTH",
"901 419 OFFCURVE",
"1027 515 OFFCURVE",
"1027 604 CURVE SMOOTH",
"1027 659 OFFCURVE",
"980 708 OFFCURVE",
"875 738 CURVE SMOOTH",
"848 746 OFFCURVE",
"813 752 OFFCURVE",
"777 757 CURVE",
"779 765 OFFCURVE",
"781 773 OFFCURVE",
"781 779 CURVE SMOOTH",
"781 786 OFFCURVE",
"779 790 OFFCURVE",
"774 790 CURVE SMOOTH",
"768 790 OFFCURVE",
"757 782 OFFCURVE",
"739 763 CURVE",
"687 770 OFFCURVE",
"634 774 OFFCURVE",
"578 774 CURVE SMOOTH",
"508 774 OFFCURVE",
"434 768 OFFCURVE",
"356 757 CURVE SMOOTH",
"121 723 OFFCURVE",
"4 589 OFFCURVE",
"4 477 CURVE SMOOTH",
"4 381 OFFCURVE",
"76 330 OFFCURVE",
"154 330 CURVE SMOOTH",
"198 330 OFFCURVE",
"250 348 OFFCURVE",
"287 387 CURVE SMOOTH",
"306 407 OFFCURVE",
"320 438 OFFCURVE",
"325 469 CURVE SMOOTH",
"326 476 OFFCURVE",
"322 484 OFFCURVE",
"318 484 CURVE SMOOTH",
"316 484 OFFCURVE",
"313 480 OFFCURVE",
"312 470 CURVE SMOOTH",
"311 458 OFFCURVE",
"299 433 OFFCURVE",
"274 406 CURVE SMOOTH",
"243 373 OFFCURVE",
"203 358 OFFCURVE",
"166 358 CURVE SMOOTH",
"107 358 OFFCURVE",
"54 397 OFFCURVE",
"54 465 CURVE SMOOTH",
"54 475 OFFCURVE",
"55 485 OFFCURVE",
"57 496 CURVE SMOOTH",
"75 583 OFFCURVE",
"173 680 OFFCURVE",
"344 716 CURVE SMOOTH",
"428 734 OFFCURVE",
"521 743 OFFCURVE",
"605 743 CURVE SMOOTH",
"643 743 OFFCURVE",
"681 742 OFFCURVE",
"717 738 CURVE",
"654 668 OFFCURVE",
"602 588 OFFCURVE",
"540 487 CURVE SMOOTH",
"481 390 LINE SMOOTH",
"379 213 OFFCURVE",
"306 73 OFFCURVE",
"266 -36 CURVE SMOOTH",
"242 -101 OFFCURVE",
"218 -172 OFFCURVE",
"218 -226 CURVE SMOOTH",
"218 -281 OFFCURVE",
"248 -319 OFFCURVE",
"320 -319 CURVE SMOOTH"
);
},
{
closed = 1;
nodes = (
"630 521 OFFCURVE",
"701 622 OFFCURVE",
"765 732 CURVE",
"795 727 OFFCURVE",
"839 720 OFFCURVE",
"863 713 CURVE SMOOTH",
"922 696 OFFCURVE",
"954 662 OFFCURVE",
"954 619 CURVE SMOOTH",
"954 538 OFFCURVE",
"838 436 OFFCURVE",
"699 418 CURVE SMOOTH",
"656 412 OFFCURVE",
"611 411 OFFCURVE",
"562 406 CURVE"
);
}
);
userData = {
com.hugojourdan.ColorFlow = {
"0" = 0;
"1" = 0;
"10" = 0;
"11" = 0;
"2" = 0;
"3" = 0;
"4" = 0;
"5" = 0;
"6" = 0;
"7" = 0;
"8" = 0;
"9" = 0;
};
};
width = 939;
}
);
unicode = 2C64;
},
{
glyphname = S;
lastChange = "2024-03-16 00:22:22 +0000";
layers = (
{
anchors = (
{
name = bottom;
position = "{378, -83}";
},
{
name = top;
position = "{828, 830}";
}
);
layerId = "61E7180A-0B32-4047-B910-001D8BB62225";
paths = (
{
closed = 1;
nodes = (
"522 -92 OFFCURVE",
"635 -64 OFFCURVE",
"720 -13 CURVE SMOOTH",
"829 52 OFFCURVE",
"924 153 OFFCURVE",
"924 250 CURVE SMOOTH",
"924 305 OFFCURVE",
"894 358 OFFCURVE",
"821 403 CURVE SMOOTH",
"750 447 OFFCURVE",
"649 482 OFFCURVE",
"583 523 CURVE SMOOTH",
"531 555 OFFCURVE",
"509 591 OFFCURVE",
"509 626 CURVE SMOOTH",
"509 682 OFFCURVE",
"564 735 OFFCURVE",
"637 761 CURVE SMOOTH",
"697 782 OFFCURVE",
"748 791 OFFCURVE",
"791 791 CURVE SMOOTH",
"903 791 OFFCURVE",
"954 730 OFFCURVE",
"954 679 CURVE SMOOTH",
"954 645 OFFCURVE",
"933 617 OFFCURVE",
"893 612 CURVE SMOOTH",
"875 610 OFFCURVE",
"867 603 OFFCURVE",
"867 598 CURVE SMOOTH",
"867 594 OFFCURVE",
"872 591 OFFCURVE",
"879 591 CURVE SMOOTH",
"882 591 OFFCURVE",
"884 591 OFFCURVE",
"888 592 CURVE SMOOTH",
"917 600 OFFCURVE",
"938 611 OFFCURVE",
"955 625 CURVE SMOOTH",
"979 645 OFFCURVE",
"991 670 OFFCURVE",
"991 695 CURVE SMOOTH",
"991 734 OFFCURVE",
"966 771 OFFCURVE",
"921 793 CURVE SMOOTH",
"885 811 OFFCURVE",
"836 818 OFFCURVE",
"784 818 CURVE SMOOTH",
"721 818 OFFCURVE",
"653 807 OFFCURVE",
"599 788 CURVE SMOOTH",
"505 755 OFFCURVE",
"434 682 OFFCURVE",
"434 608 CURVE SMOOTH",
"434 566 OFFCURVE",
"457 524 OFFCURVE",
"511 488 CURVE SMOOTH",
"586 438 OFFCURVE",
"720 402 OFFCURVE",
"783 351 CURVE SMOOTH",
"825 317 OFFCURVE",
"844 275 OFFCURVE",
"844 230 CURVE SMOOTH",
"844 144 OFFCURVE",
"775 50 OFFCURVE",
"664 -8 CURVE SMOOTH",
"592 -45 OFFCURVE",
"501 -66 OFFCURVE",
"412 -66 CURVE SMOOTH",
"253 -66 OFFCURVE",
"105 1 OFFCURVE",
"105 159 CURVE SMOOTH",
"105 225 OFFCURVE",
"124 293 OFFCURVE",
"161 350 CURVE SMOOTH",
"179 379 OFFCURVE",
"203 405 OFFCURVE",
"230 426 CURVE SMOOTH",
"241 434 OFFCURVE",
"245 439 OFFCURVE",
"245 442 CURVE SMOOTH",
"245 444 OFFCURVE",
"243 445 OFFCURVE",
"239 445 CURVE SMOOTH",
"235 445 OFFCURVE",
"224 443 OFFCURVE",
"220 441 CURVE SMOOTH",
"121 395 OFFCURVE",
"42 253 OFFCURVE",
"47 162 CURVE SMOOTH",
"56 -4 OFFCURVE",
"217 -92 OFFCURVE",
"413 -92 CURVE SMOOTH"
);
}
);
userData = {
com.hugojourdan.ColorFlow = {
"0" = 0;
"1" = 0;
"10" = 0;
"11" = 0;
"2" = 0;
"3" = 0;
"4" = 0;
"5" = 0;
"6" = 0;
"7" = 0;
"8" = 0;
"9" = 0;
};
};
width = 926;
}
);
note = S;
unicode = 0053;
userData = {
KernOnName = S;
};
},
{
color = 4;
glyphname = Germandbls;
lastChange = "2024-03-16 00:22:22 +0000";
layers = (
{
layerId = "61E7180A-0B32-4047-B910-001D8BB62225";
paths = (
{
closed = 1;
nodes = (
"-149 -252 OFFCURVE",
"-86 -212 OFFCURVE",
"-48 -173 CURVE SMOOTH",
"72 -50 OFFCURVE",
"134 262 OFFCURVE",
"219 505 CURVE SMOOTH",
"275 666 OFFCURVE",
"354 774 OFFCURVE",
"468 774 CURVE SMOOTH",
"544 774 OFFCURVE",
"573 730 OFFCURVE",
"573 697 CURVE SMOOTH",
"573 650 OFFCURVE",
"556 615 OFFCURVE",
"513 567 CURVE SMOOTH",
"489 540 OFFCURVE",
"457 512 OFFCURVE",
"457 458 CURVE SMOOTH",
"457 381 OFFCURVE",
"566 345 OFFCURVE",
"566 186 CURVE SMOOTH",
"566 95 OFFCURVE",
"493 21 OFFCURVE",
"398 21 CURVE SMOOTH",
"317 21 OFFCURVE",
"273 70 OFFCURVE",
"273 104 CURVE SMOOTH",
"273 133 OFFCURVE",
"291 146 OFFCURVE",
"307 134 CURVE",
"310 137 OFFCURVE",
"312 144 OFFCURVE",
"312 152 CURVE SMOOTH",
"312 172 OFFCURVE",
"295 179 OFFCURVE",
"284 179 CURVE SMOOTH",
"251 179 OFFCURVE",
"229 146 OFFCURVE",
"229 112 CURVE SMOOTH",
"229 59 OFFCURVE",
"292 -3 OFFCURVE",
"394 -3 CURVE SMOOTH",
"539 -3 OFFCURVE",
"640 96 OFFCURVE",
"640 185 CURVE SMOOTH",
"640 348 OFFCURVE",
"483 390 OFFCURVE",
"483 463 CURVE SMOOTH",
"483 502 OFFCURVE",
"502 528 OFFCURVE",
"538 555 CURVE SMOOTH",
"580 586 OFFCURVE",
"644 618 OFFCURVE",
"644 689 CURVE SMOOTH",
"644 750 OFFCURVE",
"583 795 OFFCURVE",
"475 795 CURVE SMOOTH",
"363 795 OFFCURVE",
"242 727 OFFCURVE",
"166 523 CURVE SMOOTH",
"46 203 OFFCURVE",
"14 86 OFFCURVE",
"6 67 CURVE SMOOTH",
"-80 -151 OFFCURVE",
"-125 -221 OFFCURVE",
"-195 -238 CURVE",
"-206 -239 LINE SMOOTH",
"-208 -239 OFFCURVE",
"-209 -240 OFFCURVE",
"-209 -242 CURVE SMOOTH",
"-209 -247 OFFCURVE",
"-206 -252 OFFCURVE",
"-195 -252 CURVE SMOOTH"
);
}
);
userData = {
com.hugojourdan.ColorFlow = {
"0" = 0;
"1" = 0;
"10" = 0;
"11" = 0;
"2" = 0;
"3" = 0;
"4" = 0;
"5" = 0;
"6" = 0;
"7" = 0;
"8" = 0;
"9" = 0;
};
};
width = 644;
}
);
unicode = 1E9E;
},
{
glyphname = Sobliquestroke;
lastChange = "2024-03-16 00:22:22 +0000";
layers = (
{
anchors = (
{
name = bottom;
position = "{378, -83}";
},
{
name = top;
position = "{828, 830}";
}
);
color = 9;
layerId = "61E7180A-0B32-4047-B910-001D8BB62225";
paths = (
{
closed = 1;
nodes = (
"522 -92 OFFCURVE",
"635 -64 OFFCURVE",
"720 -13 CURVE SMOOTH",
"829 52 OFFCURVE",
"924 153 OFFCURVE",
"924 250 CURVE SMOOTH",
"924 305 OFFCURVE",
"894 358 OFFCURVE",
"821 403 CURVE SMOOTH",
"750 447 OFFCURVE",
"649 482 OFFCURVE",
"583 523 CURVE SMOOTH",
"531 555 OFFCURVE",
"509 591 OFFCURVE",
"509 626 CURVE SMOOTH",
"509 682 OFFCURVE",
"564 735 OFFCURVE",
"637 761 CURVE SMOOTH",
"697 782 OFFCURVE",
"748 791 OFFCURVE",
"791 791 CURVE SMOOTH",
"903 791 OFFCURVE",
"954 730 OFFCURVE",
"954 679 CURVE SMOOTH",
"954 645 OFFCURVE",
"933 617 OFFCURVE",
"893 612 CURVE SMOOTH",
"875 610 OFFCURVE",
"867 603 OFFCURVE",
"867 598 CURVE SMOOTH",
"867 594 OFFCURVE",
"872 591 OFFCURVE",
"879 591 CURVE SMOOTH",
"882 591 OFFCURVE",
"884 591 OFFCURVE",
"888 592 CURVE SMOOTH",
"917 600 OFFCURVE",
"938 611 OFFCURVE",
"955 625 CURVE SMOOTH",
"979 645 OFFCURVE",
"991 670 OFFCURVE",
"991 695 CURVE SMOOTH",
"991 734 OFFCURVE",
"966 771 OFFCURVE",
"921 793 CURVE SMOOTH",
"885 811 OFFCURVE",
"836 818 OFFCURVE",
"784 818 CURVE SMOOTH",
"721 818 OFFCURVE",
"653 807 OFFCURVE",
"599 788 CURVE SMOOTH",
"505 755 OFFCURVE",
"434 682 OFFCURVE",
"434 608 CURVE SMOOTH",
"434 566 OFFCURVE",
"457 524 OFFCURVE",
"511 488 CURVE SMOOTH",
"586 438 OFFCURVE",
"720 402 OFFCURVE",
"783 351 CURVE SMOOTH",
"825 317 OFFCURVE",
"844 275 OFFCURVE",
"844 230 CURVE SMOOTH",
"844 144 OFFCURVE",
"775 50 OFFCURVE",
"664 -8 CURVE SMOOTH",
"592 -45 OFFCURVE",
"501 -66 OFFCURVE",
"412 -66 CURVE SMOOTH",
"253 -66 OFFCURVE",
"105 1 OFFCURVE",
"105 159 CURVE SMOOTH",
"105 225 OFFCURVE",
"124 293 OFFCURVE",
"161 350 CURVE SMOOTH",
"179 379 OFFCURVE",
"203 405 OFFCURVE",
"230 426 CURVE SMOOTH",
"241 434 OFFCURVE",
"245 439 OFFCURVE",
"245 442 CURVE SMOOTH",
"245 444 OFFCURVE",
"243 445 OFFCURVE",
"239 445 CURVE SMOOTH",
"235 445 OFFCURVE",
"224 443 OFFCURVE",
"220 441 CURVE SMOOTH",
"121 395 OFFCURVE",
"42 253 OFFCURVE",
"47 162 CURVE SMOOTH",
"56 -4 OFFCURVE",
"217 -92 OFFCURVE",
"413 -92 CURVE SMOOTH"
);
},
{
closed = 1;
nodes = (
"726 485 LINE",
"753 508 OFFCURVE",
"750 525 OFFCURVE",
"746 531 CURVE",
"525 401 LINE",
"497 386 OFFCURVE",
"488 362 OFFCURVE",
"494 351 CURVE"
);
}
);
userData = {
com.hugojourdan.ColorFlow = {
"0" = 0;
"1" = 0;
"10" = 0;
"11" = 0;
"2" = 0;
"3" = 0;
"4" = 0;
"5" = 0;
"6" = 0;
"7" = 0;
"8" = 0;
"9" = 0;
};
};
width = 926;
}
);
unicode = A7A8;
},
{
glyphname = T;
lastChange = "2024-03-16 00:22:22 +0000";
layers = (
{
anchors = (
{
name = bottom;
position = "{362, -94}";
},
{
name = center;
position = "{472, 209}";
},
{
name = top;
position = "{1112, 712}";
}
);
layerId = "61E7180A-0B32-4047-B910-001D8BB62225";
paths = (
{
closed = 1;
nodes = (
"219 -70 OFFCURVE",
"82 22 OFFCURVE",
"82 186 CURVE SMOOTH",
"82 269 OFFCURVE",
"120 351 OFFCURVE",
"189 392 CURVE SMOOTH",
"192 394 OFFCURVE",
"194 397 OFFCURVE",
"194 400 CURVE SMOOTH",
"194 403 OFFCURVE",
"192 405 OFFCURVE",
"187 405 CURVE",
"92 383 OFFCURVE",
"26 285 OFFCURVE",
"26 162 CURVE SMOOTH",
"26 17 OFFCURVE",
"158 -95 OFFCURVE",
"388 -95 CURVE SMOOTH",
"639 -95 OFFCURVE",
"796 6 OFFCURVE",
"894 251 CURVE SMOOTH",
"943 374 OFFCURVE",
"975 505 OFFCURVE",
"1050 625 CURVE SMOOTH",
"1064 647 OFFCURVE",
"1097 685 OFFCURVE",
"1124 685 CURVE SMOOTH",
"1134 685 OFFCURVE",
"1138 690 OFFCURVE",
"1138 697 CURVE SMOOTH",
"1138 706 OFFCURVE",
"1131 709 OFFCURVE",
"1118 709 CURVE SMOOTH",
"1081 709 OFFCURVE",
"1044 665 OFFCURVE",
"1022 635 CURVE SMOOTH",
"987 588 OFFCURVE",
"918 408 OFFCURVE",
"834 253 CURVE SMOOTH",
"733 70 OFFCURVE",
"586 -70 OFFCURVE",
"388 -70 CURVE SMOOTH"
);
},
{
closed = 1;
nodes = (
"958 657 OFFCURVE",
"1033 629 CURVE SMOOTH",
"1134 591 OFFCURVE",
"1258 558 OFFCURVE",
"1328 558 CURVE SMOOTH",
"1379 558 OFFCURVE",
"1417 580 OFFCURVE",
"1417 612 CURVE SMOOTH",
"1417 618 OFFCURVE",
"1414 634 OFFCURVE",
"1408 634 CURVE SMOOTH",
"1398 634 OFFCURVE",
"1396 627 OFFCURVE",
"1396 619 CURVE SMOOTH",
"1396 597 OFFCURVE",
"1372 589 OFFCURVE",
"1312 589 CURVE SMOOTH",
"1245 589 OFFCURVE",
"1149 618 OFFCURVE",
"1047 651 CURVE SMOOTH",
"928 690 OFFCURVE",
"826 743 OFFCURVE",
"674 743 CURVE SMOOTH",
"453 743 OFFCURVE",
"351 611 OFFCURVE",
"351 495 CURVE SMOOTH",
"351 387 OFFCURVE",
"434 325 OFFCURVE",
"516 325 CURVE SMOOTH",
"595 325 OFFCURVE",
"673 379 OFFCURVE",
"684 466 CURVE",
"684 475 OFFCURVE",
"680 480 OFFCURVE",
"674 480 CURVE SMOOTH",
"671 480 OFFCURVE",
"667 478 OFFCURVE",
"664 474 CURVE",
"664 473 LINE SMOOTH",
"664 449 OFFCURVE",
"613 352 OFFCURVE",
"518 352 CURVE SMOOTH",
"459 352 OFFCURVE",
"400 383 OFFCURVE",
"400 458 CURVE SMOOTH",
"400 561 OFFCURVE",
"517 700 OFFCURVE",
"716 690 CURVE SMOOTH",
"867 682 OFFCURVE"
);
}
);
userData = {
com.hugojourdan.ColorFlow = {
"0" = 0;
"1" = 0;
"10" = 0;
"11" = 0;
"2" = 0;
"3" = 0;
"4" = 0;
"5" = 0;
"6" = 0;
"7" = 0;
"8" = 0;
"9" = 0;
};
};
width = 933;
}
);
note = T;
unicode = 0054;
userData = {
KernOnName = T;
};
},
{
glyphname = Thook;
lastChange = "2024-03-16 00:22:22 +0000";
layers = (
{
layerId = "61E7180A-0B32-4047-B910-001D8BB62225";
paths = (
{
closed = 1;
nodes = (
"214 -121 OFFCURVE",
"317 -42 OFFCURVE",
"396 139 CURVE SMOOTH",
"453 268 OFFCURVE",
"504 417 OFFCURVE",
"542 521 CURVE SMOOTH",
"567 587 OFFCURVE",
"616 692 OFFCURVE",
"657 692 CURVE SMOOTH",
"661 692 OFFCURVE",
"664 691 OFFCURVE",
"668 688 CURVE",
"671 687 OFFCURVE",
"674 686 OFFCURVE",
"676 686 CURVE SMOOTH",
"684 686 OFFCURVE",
"688 692 OFFCURVE",
"688 699 CURVE SMOOTH",
"688 708 OFFCURVE",
"683 713 OFFCURVE",
"670 713 CURVE SMOOTH",
"613 713 OFFCURVE",
"568 648 OFFCURVE",
"509 528 CURVE SMOOTH",
"461 431 OFFCURVE",
"408 304 OFFCURVE",
"366 216 CURVE SMOOTH",
"301 82 OFFCURVE",
"214 -74 OFFCURVE",
"110 -74 CURVE SMOOTH",
"53 -74 OFFCURVE",
"39 -22 OFFCURVE",
"39 20 CURVE SMOOTH",
"39 94 OFFCURVE",
"91 168 OFFCURVE",
"120 188 CURVE",
"122 194 OFFCURVE",
"118 197 OFFCURVE",
"112 197 CURVE SMOOTH",
"108 197 OFFCURVE",
"93 192 OFFCURVE",
"77 175 CURVE SMOOTH",
"49 145 OFFCURVE",
"1 76 OFFCURVE",
"1 -1 CURVE SMOOTH",
"1 -65 OFFCURVE",
"44 -121 OFFCURVE",
"112 -121 CURVE SMOOTH"
);
},
{
closed = 1;
nodes = (
"177 364 OFFCURVE",
"247 434 OFFCURVE",
"247 475 CURVE SMOOTH",
"247 485 OFFCURVE",
"246 493 OFFCURVE",
"239 493 CURVE SMOOTH",
"233 493 OFFCURVE",
"233 489 OFFCURVE",
"229 481 CURVE SMOOTH",
"204 432 OFFCURVE",
"175 412 OFFCURVE",
"140 412 CURVE SMOOTH",
"91 412 OFFCURVE",
"67 438 OFFCURVE",
"69 502 CURVE SMOOTH",
"71 563 OFFCURVE",
"105 636 OFFCURVE",
"139 693 CURVE",
"130 695 LINE",
"140 628 OFFCURVE",
"246 607 OFFCURVE",
"315 607 CURVE SMOOTH",
"447 607 OFFCURVE",
"624 639 OFFCURVE",
"757 639 CURVE SMOOTH",
"800 639 OFFCURVE",
"914 636 OFFCURVE",
"914 591 CURVE SMOOTH",
"914 582 OFFCURVE",
"915 572 OFFCURVE",
"922 572 CURVE SMOOTH",
"931 572 OFFCURVE",
"935 587 OFFCURVE",
"935 595 CURVE SMOOTH",
"935 655 OFFCURVE",
"810 668 OFFCURVE",
"750 668 CURVE SMOOTH",
"556 668 OFFCURVE",
"491 653 OFFCURVE",
"373 653 CURVE SMOOTH",
"318 653 OFFCURVE",
"156 664 OFFCURVE",
"156 712 CURVE SMOOTH",
"156 719 OFFCURVE",
"159 725 OFFCURVE",
"163 729 CURVE",
"159 740 OFFCURVE",
"154 743 OFFCURVE",
"150 743 CURVE SMOOTH",
"148 743 OFFCURVE",
"146 742 OFFCURVE",
"140 735 CURVE SMOOTH",
"95 681 OFFCURVE",
"13 548 OFFCURVE",
"13 459 CURVE SMOOTH",
"13 396 OFFCURVE",
"48 364 OFFCURVE",
"106 364 CURVE SMOOTH"
);
}
);
userData = {
com.hugojourdan.ColorFlow = {
"0" = 0;
"1" = 0;
"10" = 0;
"11" = 0;
"2" = 0;
"3" = 0;
"4" = 0;
"5" = 0;
"6" = 0;
"7" = 0;
"8" = 0;
"9" = 0;
};
};
width = 550;
}
);
unicode = 01AC;
},
{
glyphname = Tretroflexhook;
lastChange = "2024-03-16 00:22:22 +0000";
layers = (
{
layerId = "61E7180A-0B32-4047-B910-001D8BB62225";
paths = (
{
closed = 1;
nodes = (
"283 -158 OFFCURVE",
"278 -191 OFFCURVE",
"278 -220 CURVE SMOOTH",
"278 -284 OFFCURVE",
"308 -319 OFFCURVE",
"371 -319 CURVE SMOOTH",
"475 -319 OFFCURVE",
"652 -195 OFFCURVE",
"652 -84 CURVE SMOOTH",
"652 -69 OFFCURVE",
"639 -67 OFFCURVE",
"632 -67 CURVE",
"594 -202 OFFCURVE",
"472 -266 OFFCURVE",
"421 -266 CURVE SMOOTH",
"391 -266 OFFCURVE",
"359 -252 OFFCURVE",
"359 -201 CURVE SMOOTH",
"359 13 OFFCURVE",
"601 456 OFFCURVE",
"710 625 CURVE",
"731 615 OFFCURVE",
"814 579 OFFCURVE",
"963 560 CURVE SMOOTH",
"972 559 OFFCURVE",
"980 558 OFFCURVE",
"988 558 CURVE SMOOTH",
"1039 558 OFFCURVE",
"1077 580 OFFCURVE",
"1077 612 CURVE SMOOTH",
"1077 618 OFFCURVE",
"1074 634 OFFCURVE",
"1068 634 CURVE SMOOTH",
"1058 634 OFFCURVE",
"1056 627 OFFCURVE",
"1056 619 CURVE SMOOTH",
"1056 597 OFFCURVE",
"1032 589 OFFCURVE",
"995 589 CURVE SMOOTH",
"917 589 OFFCURVE",
"785 627 OFFCURVE",
"726 646 CURVE",
"738 667 OFFCURVE",
"769 693 OFFCURVE",
"778 686 CURVE",
"781 685 OFFCURVE",
"784 684 OFFCURVE",
"786 684 CURVE SMOOTH",
"794 684 OFFCURVE",
"798 690 OFFCURVE",
"798 697 CURVE SMOOTH",
"798 706 OFFCURVE",
"793 711 OFFCURVE",
"780 711 CURVE SMOOTH",
"752 711 OFFCURVE",
"710 671 OFFCURVE",
"696 654 CURVE",
"633 671 OFFCURVE",
"494 731 OFFCURVE",
"369 741 CURVE SMOOTH",
"344 743 OFFCURVE",
"338 743 OFFCURVE",
"321 743 CURVE SMOOTH",
"113 743 OFFCURVE",
"11 611 OFFCURVE",
"11 495 CURVE SMOOTH",
"11 425 OFFCURVE",
"48 360 OFFCURVE",
"122 334 CURVE SMOOTH",
"139 328 OFFCURVE",
"158 325 OFFCURVE",
"176 325 CURVE SMOOTH",
"255 325 OFFCURVE",
"333 379 OFFCURVE",
"344 466 CURVE",
"344 475 OFFCURVE",
"340 480 OFFCURVE",
"334 480 CURVE SMOOTH",
"331 480 OFFCURVE",
"327 478 OFFCURVE",
"324 474 CURVE",
"324 473 LINE SMOOTH",
"324 449 OFFCURVE",
"273 352 OFFCURVE",
"178 352 CURVE SMOOTH",
"163 352 OFFCURVE",
"148 354 OFFCURVE",
"131 359 CURVE SMOOTH",
"83 375 OFFCURVE",
"60 413 OFFCURVE",
"60 458 CURVE SMOOTH",
"60 561 OFFCURVE",
"177 700 OFFCURVE",
"376 690 CURVE SMOOTH",
"485 685 OFFCURVE",
"576 667 OFFCURVE",
"682 635 CURVE",
"622 556 OFFCURVE",
"366 119 OFFCURVE",
"295 -118 CURVE SMOOTH"
);
}
);
userData = {
com.hugojourdan.ColorFlow = {
"0" = 0;
"1" = 0;
"10" = 0;
"11" = 0;
"2" = 0;
"3" = 0;
"4" = 0;
"5" = 0;
"6" = 0;
"7" = 0;
"8" = 0;
"9" = 0;
};
};
width = 677;
}
);
unicode = 01AE;
},
{
glyphname = U;
lastChange = "2024-03-16 00:22:22 +0000";
layers = (
{
anchors = (
{
name = bottom;
position = "{568, -29}";
},
{
name = ogonek;
position = "{879, -59}";
},
{
name = top;
position = "{940, 628}";
},
{
name = topright;
position = "{957, 470}";
}
);
layerId = "61E7180A-0B32-4047-B910-001D8BB62225";
paths = (
{
closed = 1;
nodes = (
"920 -82 OFFCURVE",
"936 -72 OFFCURVE",
"936 -64 CURVE SMOOTH",
"936 -60 OFFCURVE",
"931 -56 OFFCURVE",
"917 -56 CURVE SMOOTH",
"906 -56 LINE SMOOTH",
"880 -56 OFFCURVE",
"870 -26 OFFCURVE",
"870 18 CURVE SMOOTH",
"870 62 OFFCURVE",
"881 119 OFFCURVE",
"895 173 CURVE SMOOTH",
"913 242 OFFCURVE",
"942 307 OFFCURVE",
"955 335 CURVE SMOOTH",
"975 380 OFFCURVE",
"1010 429 OFFCURVE",
"1010 461 CURVE SMOOTH",
"1010 474 OFFCURVE",
"1005 491 OFFCURVE",
"992 491 CURVE SMOOTH",
"974 491 OFFCURVE",
"957 477 OFFCURVE",
"935 438 CURVE SMOOTH",
"892 360 OFFCURVE",
"834 223 OFFCURVE",
"766 125 CURVE SMOOTH",
"701 31 OFFCURVE",
"639 -13 OFFCURVE",
"596 -13 CURVE SMOOTH",
"562 -13 OFFCURVE",
"540 16 OFFCURVE",
"540 71 CURVE SMOOTH",
"540 217 OFFCURVE",
"687 435 OFFCURVE",
"721 587 CURVE SMOOTH",
"728 618 OFFCURVE",
"732 649 OFFCURVE",
"732 677 CURVE SMOOTH",
"732 748 OFFCURVE",
"706 811 OFFCURVE",
"636 840 CURVE SMOOTH",
"604 854 OFFCURVE",
"566 861 OFFCURVE",
"530 861 CURVE SMOOTH",
"463 861 OFFCURVE",
"387 840 OFFCURVE",
"307 796 CURVE SMOOTH",
"89 676 OFFCURVE",
"-4 509 OFFCURVE",
"-4 367 CURVE SMOOTH",
"-4 240 OFFCURVE",
"72 143 OFFCURVE",
"185 143 CURVE SMOOTH",
"215 143 OFFCURVE",
"247 150 OFFCURVE",
"280 164 CURVE SMOOTH",
"402 215 OFFCURVE",
"466 336 OFFCURVE",
"466 422 CURVE SMOOTH",
"466 475 OFFCURVE",
"442 514 OFFCURVE",
"390 514 CURVE SMOOTH",
"372 514 OFFCURVE",
"352 510 OFFCURVE",
"328 500 CURVE SMOOTH",
"323 498 OFFCURVE",
"306 487 OFFCURVE",
"306 482 CURVE SMOOTH",
"306 480 OFFCURVE",
"307 479 OFFCURVE",
"311 479 CURVE SMOOTH",
"315 479 OFFCURVE",
"322 481 OFFCURVE",
"332 483 CURVE SMOOTH",
"345 486 OFFCURVE",
"357 487 OFFCURVE",
"368 487 CURVE SMOOTH",
"417 487 OFFCURVE",
"437 457 OFFCURVE",
"437 416 CURVE SMOOTH",
"437 337 OFFCURVE",
"365 217 OFFCURVE",
"281 186 CURVE SMOOTH",
"253 175 OFFCURVE",
"226 170 OFFCURVE",
"202 170 CURVE SMOOTH",
"101 170 OFFCURVE",
"38 256 OFFCURVE",
"38 368 CURVE SMOOTH",
"38 494 OFFCURVE",
"116 652 OFFCURVE",
"305 763 CURVE SMOOTH",
"381 807 OFFCURVE",
"462 834 OFFCURVE",
"536 834 CURVE SMOOTH",
"575 834 OFFCURVE",
"611 826 OFFCURVE",
"641 808 CURVE SMOOTH",
"668 792 OFFCURVE",
"679 756 OFFCURVE",
"679 710 CURVE SMOOTH",
"679 673 OFFCURVE",
"672 633 OFFCURVE",
"662 592 CURVE SMOOTH",
"626 453 OFFCURVE",
"483 221 OFFCURVE",
"483 80 CURVE SMOOTH",
"483 3 OFFCURVE",
"523 -39 OFFCURVE",
"578 -39 CURVE SMOOTH",
"637 -39 OFFCURVE",
"709 5 OFFCURVE",
"781 97 CURVE SMOOTH",
"808 132 OFFCURVE",
"823 154 OFFCURVE",
"843 186 CURVE",
"836 152 OFFCURVE",
"829 106 OFFCURVE",
"829 61 CURVE SMOOTH",
"829 -6 OFFCURVE",
"845 -69 OFFCURVE",
"902 -79 CURVE SMOOTH"
);
}
);
userData = {
com.hugojourdan.ColorFlow = {
"0" = 0;
"1" = 0;
"10" = 0;
"11" = 0;
"2" = 0;
"3" = 0;
"4" = 0;
"5" = 0;
"6" = 0;
"7" = 0;
"8" = 0;
"9" = 0;
};
};
width = 947;
}
);
note = U;
unicode = 0055;
userData = {
KernOnName = U;
};
},
{
color = 0;
glyphname = Ubar;
lastChange = "2024-03-16 00:22:22 +0000";
layers = (
{
anchors = (
{
name = bottom;
position = "{568, -29}";
},
{
name = ogonek;
position = "{879, -59}";
},
{
name = top;
position = "{920, 628}";
},
{
name = topright;
position = "{957, 470}";
}
);
color = 9;
layerId = "61E7180A-0B32-4047-B910-001D8BB62225";
paths = (
{
closed = 1;
nodes = (
"920 -82 OFFCURVE",
"936 -72 OFFCURVE",
"936 -64 CURVE SMOOTH",
"936 -60 OFFCURVE",
"931 -56 OFFCURVE",
"917 -56 CURVE SMOOTH",
"906 -56 LINE SMOOTH",
"880 -56 OFFCURVE",
"870 -26 OFFCURVE",
"870 18 CURVE SMOOTH",
"870 62 OFFCURVE",
"881 119 OFFCURVE",
"895 173 CURVE SMOOTH",
"913 242 OFFCURVE",
"942 307 OFFCURVE",
"955 335 CURVE SMOOTH",
"975 380 OFFCURVE",
"1010 429 OFFCURVE",
"1010 461 CURVE SMOOTH",
"1010 474 OFFCURVE",
"1005 491 OFFCURVE",
"992 491 CURVE SMOOTH",
"974 491 OFFCURVE",
"957 477 OFFCURVE",
"935 438 CURVE SMOOTH",
"892 360 OFFCURVE",
"834 223 OFFCURVE",
"766 125 CURVE SMOOTH",
"701 31 OFFCURVE",
"639 -13 OFFCURVE",
"596 -13 CURVE SMOOTH",
"562 -13 OFFCURVE",
"540 16 OFFCURVE",
"540 71 CURVE SMOOTH",
"540 217 OFFCURVE",
"687 435 OFFCURVE",
"721 587 CURVE SMOOTH",
"728 618 OFFCURVE",
"732 649 OFFCURVE",
"732 677 CURVE SMOOTH",
"732 748 OFFCURVE",
"706 811 OFFCURVE",
"636 840 CURVE SMOOTH",
"604 854 OFFCURVE",
"566 861 OFFCURVE",
"530 861 CURVE SMOOTH",
"463 861 OFFCURVE",
"387 840 OFFCURVE",
"307 796 CURVE SMOOTH",
"89 676 OFFCURVE",
"-4 509 OFFCURVE",
"-4 367 CURVE SMOOTH",
"-4 240 OFFCURVE",
"72 143 OFFCURVE",
"153 143 CURVE SMOOTH",
"183 143 OFFCURVE",
"215 148 OFFCURVE",
"248 162 CURVE SMOOTH",
"370 215 OFFCURVE",
"435 336 OFFCURVE",
"434 422 CURVE SMOOTH",
"433 475 OFFCURVE",
"408 515 OFFCURVE",
"356 515 CURVE SMOOTH",
"338 515 OFFCURVE",
"318 511 OFFCURVE",
"294 501 CURVE SMOOTH",
"289 499 OFFCURVE",
"272 488 OFFCURVE",
"272 483 CURVE SMOOTH",
"272 481 OFFCURVE",
"273 480 OFFCURVE",
"277 480 CURVE SMOOTH",
"281 480 OFFCURVE",
"288 482 OFFCURVE",
"298 484 CURVE SMOOTH",
"311 487 OFFCURVE",
"323 488 OFFCURVE",
"334 488 CURVE SMOOTH",
"383 488 OFFCURVE",
"405 457 OFFCURVE",
"406 416 CURVE SMOOTH",
"407 337 OFFCURVE",
"333 217 OFFCURVE",
"249 186 CURVE SMOOTH",
"221 175 OFFCURVE",
"194 170 OFFCURVE",
"170 170 CURVE SMOOTH",
"101 170 OFFCURVE",
"38 256 OFFCURVE",
"38 368 CURVE SMOOTH",
"38 494 OFFCURVE",
"116 652 OFFCURVE",
"305 763 CURVE SMOOTH",
"381 807 OFFCURVE",
"462 834 OFFCURVE",
"536 834 CURVE SMOOTH",
"575 834 OFFCURVE",
"611 826 OFFCURVE",
"641 808 CURVE SMOOTH",
"668 792 OFFCURVE",
"679 756 OFFCURVE",
"679 710 CURVE SMOOTH",
"679 673 OFFCURVE",
"672 633 OFFCURVE",
"662 592 CURVE SMOOTH",
"626 453 OFFCURVE",
"483 221 OFFCURVE",
"483 80 CURVE SMOOTH",
"483 3 OFFCURVE",
"523 -39 OFFCURVE",
"578 -39 CURVE SMOOTH",
"637 -39 OFFCURVE",
"709 5 OFFCURVE",
"781 97 CURVE SMOOTH",
"808 132 OFFCURVE",
"823 154 OFFCURVE",
"843 186 CURVE",
"836 152 OFFCURVE",
"829 106 OFFCURVE",
"829 61 CURVE SMOOTH",
"829 -6 OFFCURVE",
"845 -69 OFFCURVE",
"902 -79 CURVE SMOOTH"
);
},
{
closed = 1;
nodes = (
"1005 313 LINE SMOOTH",
"1035 313 OFFCURVE",
"1035 337 OFFCURVE",
"1035 343 CURVE",
"504 343 LINE",
"478 340 OFFCURVE",
"471 323 OFFCURVE",
"471 313 CURVE"
);
}
);
userData = {
com.hugojourdan.ColorFlow = {
"0" = 0;
"1" = 0;
"10" = 0;
"11" = 0;
"2" = 0;
"3" = 0;
"4" = 0;
"5" = 0;
"6" = 0;
"7" = 0;
"8" = 0;
"9" = 0;
};
};
width = 947;
}
);
unicode = 0244;
},
